<svg width="29" height="27" viewBox="0 0 29 27" fill="none" xmlns="http://www.w3.org/2000/svg">
<path d="M27.6742 6.67421H26.3258V5.32579C26.3258 4.5936 25.7322 4 25 4C24.2678 4 23.6742 4.5936 23.6742 5.32579V6.67421H22.3258C21.5936 6.67421 21 7.26781 21 8C21 8.73219 21.5936 9.32579 22.3258 9.32579H23.6742V10.6742C23.6742 11.4064 24.2678 12 25 12C25.7322 12 26.3258 11.4064 26.3258 10.6742V9.32579H27.6742C28.4064 9.32579 29 8.73219 29 8C29 7.26781 28.4064 6.67421 27.6742 6.67421Z" fill="#026F81"/>
<path d="M18 6C18 2.69153 15.3085 0 12 0C8.69153 0 6 2.69153 6 6C6 9.30848 8.69153 12 12 12C15.3085 12 18 9.30836 18 6ZM7.78034 6C7.78034 3.67321 9.67321 1.78035 12 1.78035C14.3268 1.78035 16.2197 3.67321 16.2197 6C16.2197 8.32668 14.3268 10.2197 12 10.2197C9.67321 10.2197 7.78034 8.32668 7.78034 6Z" fill="#026F81"/>
<path d="M0.58326 26.1771C0.123769 25.6607 -0.078689 24.9809 0.0278008 24.3119C0.480354 21.4678 1.97815 18.859 4.24496 16.966C6.53548 15.0534 9.46748 14 12.5008 14C16.4138 14 20.1257 16.6982 22.5078 19.6829C23.8888 21.4133 24.1136 27 26 27H16.0311C15.5522 27 15.1639 26.6255 15.1639 26.1635C15.1639 25.7016 15.5522 25.3271 16.0311 25.3271L19.8882 25.3271L22.5078 25.3271C22.7186 23.1747 21.9514 22.2497 21.0544 20.5194C19.0004 17.9236 15.8912 15.673 12.5009 15.673C9.88442 15.673 7.3556 16.5814 5.38016 18.2309C3.42438 19.8642 2.13228 22.1139 1.74216 24.5658C1.70158 24.8204 1.82321 25.0021 1.89941 25.0876C2.03481 25.2397 2.2316 25.3271 2.43914 25.3271H12.5624C13.0413 25.3271 13.4296 25.7016 13.4296 26.1635C13.4296 26.6255 13.0413 27 12.5624 27H2.43914C1.72505 27 1.04853 26.7001 0.58326 26.1771Z" fill="#026F81"/>
</svg>
