<svg width="47" height="47" viewBox="0 0 47 47" fill="none" xmlns="http://www.w3.org/2000/svg">
<path d="M23.5 0C10.5416 0 0 10.5416 0 23.5C0 36.4584 10.5416 47 23.5 47C36.4584 47 47 36.4584 47 23.5C47 10.5416 36.4584 0 23.5 0ZM33.7812 25.4582H25.4582V33.7812C25.4582 34.8624 24.5811 35.7395 23.5 35.7395C22.4189 35.7395 21.5418 34.8624 21.5418 33.7812V25.4582H13.2188C12.1376 25.4582 11.2605 24.5811 11.2605 23.5C11.2605 22.4189 12.1376 21.5418 13.2188 21.5418H21.5418V13.2188C21.5418 12.1376 22.4189 11.2605 23.5 11.2605C24.5811 11.2605 25.4582 12.1376 25.4582 13.2188V21.5418H33.7812C34.8624 21.5418 35.7395 22.4189 35.7395 23.5C35.7395 24.5811 34.8624 25.4582 33.7812 25.4582Z" fill="#006478"/>
</svg>
