<svg width="33" height="34" viewBox="0 0 33 34" fill="none" xmlns="http://www.w3.org/2000/svg">
<path d="M31.2487 9.29136C31.9628 8.61015 32.4091 7.65058 32.4091 6.58807C32.4091 4.52692 30.7322 2.85004 28.6711 2.85004C27.8558 2.85004 27.1012 3.1132 26.4862 3.55793C23.5957 1.35699 20.1434 0.193542 16.5 0.193542C12.1689 0.193542 8.07681 1.85908 4.97746 4.88328C4.78635 5.06974 4.78262 5.37583 4.96908 5.56687C5.06382 5.66394 5.18938 5.71266 5.31513 5.71266C5.43688 5.71266 5.5587 5.66697 5.65267 5.57525C8.57033 2.72829 12.4227 1.16034 16.5 1.16034C19.8764 1.16034 23.078 2.22195 25.7724 4.23121C25.2482 4.87477 24.9331 5.6952 24.9331 6.58807C24.9331 8.64921 26.61 10.3261 28.6711 10.3261C29.3176 10.3261 29.9261 10.161 30.4571 9.87099C31.5021 12.0023 32.0332 14.2957 32.0332 16.6935C32.0332 20.8426 30.4175 24.7434 27.4837 27.6772C24.5498 30.611 20.6491 32.2267 16.5 32.2267C12.3509 32.2267 8.45019 30.611 5.51635 27.6772C2.58251 24.7434 0.966797 20.8426 0.966797 16.6935C0.966797 13.1131 2.15048 9.74898 4.3899 6.96499C4.55722 6.75693 4.52422 6.45271 4.31623 6.28539C4.10818 6.11801 3.80389 6.15107 3.63664 6.35906C2.48293 7.79327 1.58419 9.39506 0.96525 11.12C0.324779 12.9049 0 14.7801 0 16.6935C0 21.1008 1.71632 25.2444 4.8327 28.3608C7.94913 31.4773 12.0927 33.1935 16.5 33.1935C20.9073 33.1935 25.0508 31.4773 28.1673 28.3608C31.2837 25.2444 33 21.1008 33 16.6935C33 14.0887 32.4099 11.5994 31.2487 9.29136ZM25.8998 6.58807C25.8998 5.06001 27.143 3.81684 28.6711 3.81684C30.1991 3.81684 31.4423 5.06001 31.4423 6.58807C31.4423 8.11612 30.1991 9.35929 28.6711 9.35929C27.143 9.35929 25.8998 8.11612 25.8998 6.58807Z" fill="#28DE70"/>
<path d="M29.6461 6.10456H29.1544V5.61291C29.1544 5.34595 28.938 5.12952 28.671 5.12952C28.4041 5.12952 28.1876 5.34595 28.1876 5.61291V6.10456H27.696C27.429 6.10456 27.2126 6.32099 27.2126 6.58796C27.2126 6.85492 27.429 7.07136 27.696 7.07136H28.1876V7.563C28.1876 7.82997 28.4041 8.0464 28.671 8.0464C28.938 8.0464 29.1544 7.82997 29.1544 7.563V7.07136H29.6461C29.913 7.07136 30.1295 6.85492 30.1295 6.58796C30.1295 6.32099 29.913 6.10456 29.6461 6.10456Z" fill="#28DE70"/>
<path d="M16.4902 11.1284C16.4902 9.33172 15.0286 7.87012 13.232 7.87012C11.4354 7.87012 9.97376 9.33172 9.97376 11.1284C9.97376 12.925 11.4354 14.3866 13.232 14.3866C15.0286 14.3866 16.4902 12.9249 16.4902 11.1284ZM10.9406 11.1284C10.9406 9.86481 11.9685 8.83691 13.232 8.83691C14.4955 8.83691 15.5234 9.86481 15.5234 11.1284C15.5234 12.3918 14.4955 13.4198 13.232 13.4198C11.9685 13.4198 10.9406 12.3918 10.9406 11.1284Z" fill="#28DE70"/>
<path d="M6.27899 21.3853C6.21962 21.7719 6.33248 22.1647 6.58862 22.4632C6.84798 22.7654 7.22509 22.9388 7.62316 22.9388H13.2662C13.5332 22.9388 13.7496 22.7223 13.7496 22.4554C13.7496 22.1884 13.5332 21.972 13.2662 21.972H7.62316C7.50746 21.972 7.39776 21.9215 7.32229 21.8336C7.27981 21.7841 7.21201 21.6791 7.23463 21.532C7.4521 20.1151 8.17236 18.8149 9.26259 17.8711C10.3638 16.9178 11.7734 16.3928 13.2319 16.3928C15.1218 16.3928 16.9141 17.2839 18.0591 18.784C17.2133 19.612 16.6512 20.7281 16.5337 21.972H15.1998C14.9328 21.972 14.7164 22.1884 14.7164 22.4554C14.7164 22.7223 14.9328 22.9388 15.1998 22.9388H25.3424C25.7609 22.9388 26.1503 22.7505 26.4106 22.4222C26.6676 22.0981 26.7612 21.6826 26.6674 21.282C26.4072 20.1706 25.7712 19.1628 24.8764 18.4443C23.9676 17.7146 22.824 17.3127 21.6563 17.3127C20.6048 17.3127 19.6261 17.6305 18.8102 18.1744C17.4823 16.4495 15.4132 15.426 13.2319 15.426C11.541 15.426 9.9066 16.0347 8.62979 17.14C7.36618 18.234 6.53126 19.7417 6.27899 21.3853ZM25.7261 21.5024C25.7618 21.6549 25.6957 21.7678 25.6531 21.8215C25.5772 21.9171 25.464 21.972 25.3424 21.972H17.5049C17.7471 19.8962 19.5171 18.2796 21.6563 18.2796C23.6084 18.2795 25.282 19.6048 25.7261 21.5024Z" fill="#28DE70"/>
<path d="M24.1148 13.9221C24.1148 12.5665 23.012 11.4637 21.6564 11.4637C20.3008 11.4637 19.1979 12.5665 19.1979 13.9221C19.1979 15.2777 20.3007 16.3806 21.6564 16.3806C23.012 16.3806 24.1148 15.2777 24.1148 13.9221ZM20.1647 13.9221C20.1647 13.0996 20.8338 12.4305 21.6564 12.4305C22.4789 12.4305 23.148 13.0996 23.148 13.9221C23.148 14.7446 22.4789 15.4138 21.6564 15.4138C20.8338 15.4138 20.1647 14.7446 20.1647 13.9221Z" fill="#28DE70"/>
</svg>
