<svg width="32" height="32" viewBox="0 0 32 32" fill="none" xmlns="http://www.w3.org/2000/svg">
<path d="M20.6667 7.66669C22.1334 7.66669 23.3334 6.46669 23.3334 5C23.3334 3.53331 22.1334 2.33331 20.6667 2.33331C19.2 2.33331 18 3.53331 18 5C18 6.46669 19.2 7.66669 20.6667 7.66669Z" fill="#DDDDDD"/>
<path d="M6.66669 16.3333C3 16.3333 0 19.3333 0 23C0 26.6667 3 29.6667 6.66669 29.6667C10.3334 29.6667 13.3334 26.6667 13.3334 23C13.3334 19.3333 10.3333 16.3333 6.66669 16.3333ZM6.66669 27.6667C4.06669 27.6667 2 25.6 2 23C2 20.4 4.06669 18.3333 6.66669 18.3333C9.26669 18.3333 11.3334 20.4 11.3334 23C11.3334 25.6 9.26669 27.6667 6.66669 27.6667Z" fill="#DDDDDD"/>
<path d="M25.2667 14.9333V12.2666C23.2667 12.2666 21.6 11.5333 20.4 10.3333L17.8 7.8C17.4 7.33331 16.7333 7 16 7C15.2667 7 14.6 7.26669 14.1333 7.8L10.4666 11.4667C9.99994 11.9334 9.66663 12.6 9.66663 13.3334C9.66663 14.0668 9.99994 14.7334 10.4666 15.2667L14.6666 19V25.6667H17.3333V17.3333L14.4 14.4L17.5333 11.2L18.5333 12.2C20.2 13.9333 22.5333 14.9333 25.2667 14.9333Z" fill="#DDDDDD"/>
<path d="M25.3333 16.3333C21.6666 16.3333 18.6666 19.3333 18.6666 23C18.6666 26.6667 21.6666 29.6667 25.3333 29.6667C29 29.6667 32 26.6667 32 23C32 19.3333 29 16.3333 25.3333 16.3333ZM25.3333 27.6667C22.7333 27.6667 20.6666 25.6 20.6666 23C20.6666 20.4 22.7333 18.3333 25.3333 18.3333C27.9333 18.3333 30 20.4 30 23C30 25.6 27.9333 27.6667 25.3333 27.6667Z" fill="#DDDDDD"/>
</svg>
