<svg width="33" height="30" viewBox="0 0 33 30" fill="none" xmlns="http://www.w3.org/2000/svg">
<path d="M19.8621 6.62069C19.8621 2.96996 16.8921 0 13.2414 0C9.59069 0 6.62073 2.96996 6.62073 6.62069C6.62073 10.2714 9.59069 13.2414 13.2414 13.2414C16.8921 13.2414 19.8621 10.2713 19.8621 6.62069ZM8.58525 6.62069C8.58525 4.0532 10.6739 1.96452 13.2414 1.96452C15.8089 1.96452 17.8976 4.0532 17.8976 6.62069C17.8976 9.18806 15.8089 11.2769 13.2414 11.2769C10.6739 11.2769 8.58525 9.18806 8.58525 6.62069Z" fill="#026F81"/>
<path d="M0.643597 28.8851C0.136573 28.3152 -0.0868293 27.5651 0.0306768 26.827C0.530046 23.6887 2.18279 20.8099 4.6841 18.7211C7.21156 16.6107 10.4469 15.4483 13.7939 15.4483C18.1118 15.4483 22.2077 18.4256 24.8362 21.7191C26.3601 23.6285 26.6081 29.7931 28.6897 29.7931H17.6895C17.161 29.7931 16.7326 29.3799 16.7326 28.8701C16.7326 28.3604 17.161 27.9471 17.6895 27.9471L21.9456 27.9472L24.8362 27.9471C25.0688 25.5721 24.2222 24.5515 23.2325 22.6421C20.9659 19.7778 17.5351 17.2944 13.7941 17.2944C10.9069 17.2944 8.11652 18.2968 5.93673 20.1169C3.77862 21.9191 2.35286 24.4016 1.92238 27.1071C1.8776 27.3881 2.01182 27.5885 2.0959 27.6829C2.2453 27.8508 2.46245 27.9471 2.69147 27.9471H13.8619C14.3904 27.9471 14.8188 28.3604 14.8188 28.8701C14.8188 29.3799 14.3904 29.7931 13.8619 29.7931H2.69147C1.9035 29.7931 1.157 29.4622 0.643597 28.8851Z" fill="#026F81"/>
<circle cx="27.5" cy="8.5" r="4.75" stroke="#026F81" stroke-width="1.5"/>
<line x1="30.5694" y1="4.48809" x2="24.5694" y2="11.4881" stroke="#026F81" stroke-width="1.5"/>
</svg>
