<svg width="27" height="21" viewBox="0 0 27 21" fill="none" xmlns="http://www.w3.org/2000/svg">
<path d="M25.5574 8.53125H22.9362V5.90625C22.9362 5.54531 22.6413 5.25 22.2809 5.25H20.9702C20.6098 5.25 20.3149 5.54531 20.3149 5.90625V8.53125H17.6936C17.3332 8.53125 17.0383 8.82656 17.0383 9.1875V10.5C17.0383 10.8609 17.3332 11.1562 17.6936 11.1562H20.3149V13.7812C20.3149 14.1422 20.6098 14.4375 20.9702 14.4375H22.2809C22.6413 14.4375 22.9362 14.1422 22.9362 13.7812V11.1562H25.5574C25.9179 11.1562 26.2128 10.8609 26.2128 10.5V9.1875C26.2128 8.82656 25.9179 8.53125 25.5574 8.53125ZM9.17447 10.5C12.0702 10.5 14.417 8.1498 14.417 5.25C14.417 2.3502 12.0702 0 9.17447 0C6.27878 0 3.93191 2.3502 3.93191 5.25C3.93191 8.1498 6.27878 10.5 9.17447 10.5ZM12.8443 11.8125H12.1603C11.251 12.2309 10.2394 12.4688 9.17447 12.4688C8.10957 12.4688 7.10202 12.2309 6.18867 11.8125H5.50468C2.46564 11.8125 0 14.2816 0 17.325V19.0312C0 20.1182 0.880585 21 1.96596 21H16.383C17.4684 21 18.3489 20.1182 18.3489 19.0312V17.325C18.3489 14.2816 15.8833 11.8125 12.8443 11.8125Z" fill="#026F81"/>
</svg>
