<svg id="Camada_1" data-name="Camada 1" xmlns="http://www.w3.org/2000/svg" viewBox="0 0 50 50"><title>calend</title><path d="M25.35,21.4H9.16c-1.14,0-1.28-.14-1.29-1.3,0-1.79,0-3.58,0-5.38,0-2,.84-2.86,2.89-2.87,1.52,0,3,0,4.57,0,.39,0,.56-.09.52-.51a9.43,9.43,0,0,1,0-1.19c0-.47.33-.65.75-.66a.67.67,0,0,1,.77.65,6,6,0,0,1,0,1.12c0,.46.11.6.58.6,2,0,3.92,0,5.88,0,3,0,6,0,8.94,0,.47,0,.63-.13.58-.6a7.5,7.5,0,0,1,0-1.06.77.77,0,0,1,1.53,0,1.15,1.15,0,0,1,0,.19c0,.45-.15,1.06.09,1.32s.94.11,1.43.12c1.27,0,2.54,0,3.81,0a2.37,2.37,0,0,1,2.65,2.67c0,1.88,0,3.76,0,5.63,0,1.08-.16,1.24-1.22,1.24Zm0-1.59H40.73c.31,0,.57,0,.56-.44,0-1.69,0-3.37,0-5.06a.77.77,0,0,0-.84-.87H35.32c-.16,0-.41,0-.39.2.07.66-.29,1.37.38,2a1.46,1.46,0,0,1-.06,2.13,1.54,1.54,0,0,1-2.1.11,1.44,1.44,0,0,1-.29-2.1,2.21,2.21,0,0,0,.52-1.62c0-.63-.22-.71-.75-.71-3.63,0-7.25,0-10.88,0H17.94c-.19,0-.53-.09-.51.19.05.66-.31,1.37.37,2a1.45,1.45,0,0,1-.06,2.13,1.52,1.52,0,0,1-2.09.12,1.43,1.43,0,0,1-.29-2.1c.58-.56.46-1.17.5-1.81,0-.44-.16-.52-.54-.51H10.56c-.89,0-1.07.2-1.08,1.13,0,1.52,0,3,0,4.56,0,.56.15.69.69.69Q17.77,19.8,25.36,19.81Z"/><path d="M22.8,41.29c-4,0-8-.06-12.06,0a2.58,2.58,0,0,1-2.88-2.86c0-4.73,0-9.46,0-14.19a3.22,3.22,0,0,1,0-.62A.71.71,0,0,1,8.64,23a.7.7,0,0,1,.78.57,3,3,0,0,1,.06.74V38.38c0,1.17.14,1.32,1.28,1.32H33.7c1.47,0,2-.57,2-2,0-.35,0-.71,0-1.06a2.33,2.33,0,0,1,2.42-2.46c.46,0,.92,0,1.38,0a1.58,1.58,0,0,0,1.74-1.75c0-2.68,0-5.37,0-8.06a4.22,4.22,0,0,1,0-.62.74.74,0,0,1,.82-.69c.49,0,.69.32.75.76a7.27,7.27,0,0,1,0,.81c0,2.83,0,5.66,0,8.5a4.68,4.68,0,0,1-1.49,3.57c-1.09,1.09-2.2,2.16-3.26,3.28a4.3,4.3,0,0,1-3.29,1.37C30.84,41.27,26.82,41.29,22.8,41.29Zm17.13-5.55c-.54,0-1.11,0-1.68,0s-.89.23-.92.9,0,1.19,0,1.68Z"/><path d="M23.78,26.16a1.58,1.58,0,1,1-1.61-1.56A1.56,1.56,0,0,1,23.78,26.16Z"/><path d="M30.15,26.2A1.58,1.58,0,1,1,27,26.15a1.58,1.58,0,0,1,3.16.05Z"/><path d="M36.52,26.19a1.59,1.59,0,1,1-1.58-1.59A1.57,1.57,0,0,1,36.52,26.19Z"/><path d="M15.87,34.92a1.59,1.59,0,1,1,1.54-1.62A1.56,1.56,0,0,1,15.87,34.92Z"/><path d="M23.78,33.34a1.58,1.58,0,1,1-1.58-1.59A1.55,1.55,0,0,1,23.78,33.34Z"/><path d="M30.15,33.36a1.58,1.58,0,1,1-1.56-1.61A1.56,1.56,0,0,1,30.15,33.36Z"/></svg>