<svg width="20" height="32" viewBox="0 0 20 32" fill="none" xmlns="http://www.w3.org/2000/svg">
<path d="M11.1628 5.95346C12.8 5.95346 14.1396 4.61393 14.1396 2.9767C14.1395 1.33953 12.8 0 11.1628 0C9.52564 0 8.18604 1.33953 8.18604 2.97677C8.18604 4.614 9.52557 5.95346 11.1628 5.95346Z" fill="#DDDDDD"/>
<path d="M19.3488 17.1163V14.1395C16.5953 14.1395 14.2139 12.6512 12.8744 10.493L11.4604 8.1116C10.9395 7.21865 9.97206 6.69769 8.93023 6.69769C8.55816 6.69769 8.18602 6.77213 7.81395 6.92095L0 10.121V17.1163H2.97677V12.1303L5.58139 11.014L1.48835 32H4.61393L7.21855 20.093L10.4186 23.0698V32H13.3953V20.7628L10.3442 17.7117L11.2372 13.2465C13.1721 15.6279 16.0744 17.1163 19.3488 17.1163Z" fill="#DDDDDD"/>
</svg>
