<svg width="32" height="31" viewBox="0 0 32 31" fill="none" xmlns="http://www.w3.org/2000/svg">
<path d="M28.3023 3.4617C27.9378 2.44556 26.9423 1.72223 25.7778 1.72223H6.22225C5.05783 1.72223 4.06225 2.44556 3.69783 3.4617L0 13.7778V27.5556C0 28.5028 0.8 29.2778 1.77775 29.2778H3.5555C4.54217 29.2778 5.33325 28.5028 5.33325 27.5556V25.8334H26.6666V27.5556C26.6666 28.5028 27.4666 29.2778 28.4443 29.2778H30.2221C31.2088 29.2778 31.9998 28.5028 31.9998 27.5556V13.7778L28.3023 3.4617ZM6.22225 20.6667C4.74667 20.6667 3.55558 19.5128 3.55558 18.0834C3.55558 16.6539 4.74667 15.5 6.22225 15.5C7.69783 15.5 8.88892 16.6539 8.88892 18.0834C8.88892 19.5128 7.69775 20.6667 6.22225 20.6667ZM25.7778 20.6667C24.3022 20.6667 23.1111 19.5128 23.1111 18.0834C23.1111 16.6539 24.3022 15.5 25.7778 15.5C27.2533 15.5 28.4444 16.6539 28.4444 18.0834C28.4444 19.5128 27.2533 20.6667 25.7778 20.6667ZM3.55558 12.0556L6.22225 4.30556H25.7778L28.4445 12.0556H3.55558Z" fill="#DDDDDD"/>
</svg>
