<svg width="37" height="38" viewBox="0 0 37 38" fill="none" xmlns="http://www.w3.org/2000/svg">
<path d="M3.56203 22.9271C4.08711 21.8976 4.89763 21.0634 5.88427 20.5371C6.22411 20.3571 6.09195 20.2071 5.95979 19.9671C5.56987 19.2963 5.39842 18.5085 5.47174 17.7246C5.54506 16.9406 5.85911 16.2038 6.36571 15.6271C6.74935 15.2031 7.24728 14.915 7.79138 14.8023C8.33549 14.6895 8.89919 14.7576 9.40539 14.9971C9.92684 15.2001 10.3768 15.568 10.6942 16.051C11.0117 16.5339 11.1813 17.1086 11.1801 17.6971C11.2819 18.5276 11.0975 19.369 10.6609 20.0671C10.5004 20.2871 10.5571 20.3971 10.7742 20.5171C11.764 21.0458 12.58 21.8789 13.1153 22.9071C15.06 20.7371 14.9184 16.7071 12.8604 14.4171C12.3826 13.8805 11.8245 13.4311 11.2084 13.0871C10.7836 12.8471 10.5193 12.5071 10.7931 11.9971C11.0668 11.4871 11.4539 11.5571 11.8881 11.7971C12.8826 12.3509 13.7422 13.1416 14.3992 14.1071C14.6257 14.4371 14.7862 14.4671 15.1166 14.2871C17.8353 12.7538 20.5635 11.2371 23.3011 9.73711C23.6598 9.54711 23.6409 9.35711 23.5465 9.01711C23.0656 7.36753 23.1842 5.58711 23.879 4.02539C24.5737 2.46367 25.7944 1.23346 27.3015 0.576271C28.8086 -0.0809176 30.4931 -0.11761 32.0244 0.473397C33.5557 1.0644 34.8231 2.24042 35.5779 3.77057C36.3327 5.30071 36.5202 7.07446 36.1038 8.74359C35.6873 10.4127 34.6969 11.8567 33.327 12.7919C31.9571 13.7272 30.3067 14.0862 28.6997 13.7986C27.0927 13.5109 25.6453 12.5973 24.6416 11.2371C24.4339 10.9471 24.2923 10.8471 23.943 11.0471C21.2243 12.5804 18.4961 14.0938 15.7585 15.5871C15.4564 15.7571 15.3432 15.8971 15.4753 16.2971C16.0415 17.9751 16.0415 19.8091 15.4753 21.4871C15.3526 21.8371 15.4092 21.9871 15.7113 22.1571C18.4678 23.6705 21.2148 25.1971 23.9524 26.7371C24.3112 26.9371 24.4433 26.8071 24.651 26.5271C25.3675 25.5613 26.3147 24.816 27.3945 24.3683C28.4743 23.9207 29.6475 23.7869 30.7925 23.981C31.9375 24.1751 33.0127 24.6898 33.9068 25.4721C34.8008 26.2543 35.4812 27.2755 35.8775 28.4299C36.2738 29.5843 36.3715 30.8299 36.1606 32.0377C35.9496 33.2456 35.4377 34.3718 34.6779 35.2996C33.918 36.2275 32.9377 36.9232 31.8387 37.3149C30.7397 37.7065 29.5618 37.7798 28.427 37.5271C27.1171 37.2362 25.9228 36.5272 25.0047 35.4956C24.0866 34.4641 23.4888 33.1594 23.2916 31.7571C23.1418 30.735 23.2227 29.6898 23.5276 28.7071C23.6598 28.2871 23.5276 28.1371 23.1878 27.9571C20.488 26.4705 17.8007 24.9738 15.126 23.4671C15.0674 23.415 14.9982 23.3778 14.9239 23.3585C14.8495 23.3391 14.772 23.3381 14.6972 23.3555C14.6224 23.3729 14.5524 23.4082 14.4926 23.4588C14.4327 23.5093 14.3846 23.5738 14.352 23.6471C13.6805 24.6162 12.8114 25.4125 11.8095 25.9769C10.8075 26.5412 9.69838 26.8591 8.56448 26.9069C7.43059 26.9548 6.30109 26.7313 5.25994 26.2531C4.2188 25.7749 3.29276 25.0544 2.55066 24.1449C1.80855 23.2355 1.26947 22.1606 0.973458 21.0001C0.677449 19.8396 0.632129 18.6233 0.840867 17.4417C1.04961 16.2601 1.50703 15.1436 2.17916 14.175C2.85128 13.2064 3.72082 12.4107 4.72315 11.8471C5.30843 11.5171 5.66715 11.5671 5.91259 12.0271C6.15803 12.4871 5.79931 12.8771 5.38395 13.1371C4.59343 13.5918 3.90729 14.2255 3.37443 14.9932C2.84157 15.7609 2.47509 16.6437 2.3011 17.5786C2.12712 18.5134 2.14992 19.4775 2.36787 20.402C2.58581 21.3265 2.99355 22.1886 3.56203 22.9271ZM33.8361 10.2371C34.6376 9.11999 34.9945 7.71492 34.8304 6.32258C34.6663 4.93024 33.9943 3.66123 32.9582 2.78711C31.9082 1.89908 30.5711 1.48326 29.2346 1.62914C27.8981 1.77502 26.6691 2.47094 25.8121 3.56711C24.2828 5.56711 24.2356 8.88711 25.7271 10.1771C26.1559 9.45261 26.75 8.85419 27.4547 8.43711C27.6718 8.30711 27.7662 8.19711 27.5963 7.92711C27.305 7.38059 27.1828 6.75104 27.247 6.12711C27.2446 5.44074 27.4928 4.77997 27.9396 4.28292C28.3864 3.78588 28.9974 3.49104 29.6446 3.46005C30.2919 3.42906 30.9254 3.66431 31.4128 4.11663C31.9001 4.56895 32.2036 5.20331 32.2596 5.88711C32.3616 6.57302 32.2489 7.27544 31.9387 7.88711C31.816 8.11711 31.7593 8.26711 32.0331 8.41711C32.7705 8.85131 33.3911 9.47776 33.8361 10.2371ZM27.7756 31.9671C27.3299 31.2883 27.1443 30.4554 27.2564 29.6371C27.2834 29.2517 27.3891 28.8772 27.5661 28.5393C27.7431 28.2014 27.9872 27.9082 28.2816 27.68C28.576 27.4518 28.9137 27.294 29.2713 27.2176C29.6289 27.1411 29.9978 27.1478 30.3528 27.2371C30.7546 27.3627 31.1243 27.583 31.4343 27.8815C31.7443 28.18 31.9865 28.5489 32.1427 28.9607C32.2989 29.3725 32.3651 29.8164 32.3363 30.2591C32.3075 30.7019 32.1845 31.1319 31.9764 31.5171C31.8065 31.8671 31.7971 32.0371 32.1558 32.2271C32.6405 32.504 33.065 32.8856 33.4019 33.3471C33.9305 34.0371 33.9305 34.0371 34.3459 33.2271C34.3459 33.1271 34.4403 33.0271 34.478 32.9271C34.8982 31.9637 35.033 30.8881 34.8644 29.8419C34.6959 28.7958 34.2321 27.8284 33.534 27.0671C32.8886 26.2691 32.0258 25.7022 31.064 25.4444C30.1023 25.1866 29.0888 25.2504 28.1627 25.6271C27.2028 25.9352 26.3556 26.5485 25.7358 27.3839C25.1161 28.2192 24.7538 29.2363 24.6982 30.2971C24.6256 30.9555 24.6793 31.6226 24.8561 32.2584C25.0329 32.8942 25.3292 33.4856 25.7271 33.9971C26.2231 33.1358 26.9313 32.434 27.7756 31.9671ZM8.33867 21.3771C7.63432 21.38 6.94279 21.5769 6.33206 21.9486C5.72132 22.3203 5.2124 22.854 4.85531 23.4971C4.63819 23.8671 4.60043 24.1171 5.04411 24.3871C6.03238 25.0504 7.17821 25.4025 8.34811 25.4025C9.51801 25.4025 10.6638 25.0504 11.6521 24.3871C12.0864 24.1171 12.058 23.8671 11.8409 23.4871C11.4861 22.8381 10.9748 22.3007 10.3594 21.9299C9.74401 21.5591 9.04661 21.3684 8.33867 21.3771ZM29.758 12.3771C30.6709 12.3532 31.5648 12.0959 32.3635 11.6271C32.7788 11.3871 32.7694 11.1571 32.5428 10.7871C32.243 10.2917 31.8304 9.884 31.343 9.60166C30.8555 9.31931 30.3089 9.17133 29.7533 9.17133C29.1978 9.17133 28.6511 9.31931 28.1637 9.60166C27.6762 9.884 27.2636 10.2917 26.9638 10.7871C26.7467 11.1371 26.7372 11.3471 27.1148 11.5771C27.9166 12.0833 28.8254 12.3686 29.758 12.4071V12.3771ZM29.758 36.2371C30.6672 36.23 31.5588 35.9715 32.3446 35.4871C32.6939 35.2871 32.7883 35.0771 32.5523 34.7071C32.2586 34.1894 31.8434 33.761 31.3472 33.4636C30.8509 33.1662 30.2904 33.0099 29.7203 33.0099C29.1501 33.0099 28.5896 33.1662 28.0934 33.4636C27.5971 33.761 27.182 34.1894 26.8883 34.7071C26.6617 35.0571 26.7655 35.2371 27.0865 35.4371C27.8931 35.953 28.8159 36.2293 29.758 36.2371ZM9.78299 18.0971C9.78299 16.9471 9.23547 16.2371 8.32923 16.2571C7.42299 16.2771 6.87547 16.9671 6.87547 18.0671C6.84925 18.2892 6.86647 18.5145 6.92605 18.7292C6.98563 18.9439 7.08631 19.1433 7.2218 19.315C7.35729 19.4867 7.52471 19.6269 7.71361 19.7271C7.90251 19.8272 8.10885 19.8851 8.31979 19.8971C8.53156 19.8934 8.7402 19.8423 8.93199 19.7471C9.12378 19.652 9.29438 19.5149 9.43259 19.3448C9.57079 19.1748 9.67346 18.9758 9.73385 18.7607C9.79425 18.5457 9.81099 18.3195 9.78299 18.0971ZM28.663 30.0371C28.663 31.0371 29.0406 31.5071 29.7675 31.5071C30.4943 31.5071 30.8814 30.9771 30.8908 30.1171C30.9003 29.2571 30.4849 28.6571 29.7769 28.6571C29.0689 28.6571 28.6536 29.1571 28.6536 30.0371H28.663ZM28.663 6.23711C28.663 7.17711 29.0406 7.70711 29.7486 7.71711C30.4566 7.72711 30.9003 7.19711 30.8908 6.28711C30.8814 5.37711 30.4849 4.88711 29.7864 4.86711C29.0878 4.84711 28.6536 5.36711 28.6536 6.23711H28.663Z" fill="#28DE70"/>
</svg>
