<svg width="33" height="34" viewBox="0 0 33 34" fill="none" xmlns="http://www.w3.org/2000/svg">
<path d="M16.5068 33.4479C15.995 33.4479 15.475 33.4479 14.9632 33.4479C14.7059 33.4644 14.448 33.4265 14.2063 33.3366C13.9647 33.2467 13.7448 33.1069 13.5609 32.9262C13.377 32.7456 13.2334 32.5282 13.1393 32.2883C13.0452 32.0483 13.0029 31.7913 13.0151 31.5338C13.2132 29.9663 12.6271 29.2568 11.1495 28.7865C10.324 28.5143 9.77091 28.506 9.25086 29.2156C9.08434 29.4273 8.89313 29.6184 8.68127 29.7848C8.32497 30.133 7.84644 30.328 7.34812 30.328C6.84979 30.328 6.37126 30.133 6.01496 29.7848C5.18948 29.0588 4.4548 28.2915 3.72012 27.4995C3.52581 27.3238 3.37184 27.1082 3.26878 26.8674C3.16573 26.6267 3.11602 26.3665 3.12308 26.1047C3.13014 25.8429 3.19379 25.5857 3.30967 25.3509C3.42555 25.116 3.59092 24.909 3.79441 24.744C4.05391 24.5931 4.2781 24.3884 4.45194 24.1438C4.62578 23.8991 4.74525 23.6202 4.80232 23.3256C4.85939 23.031 4.85276 22.7276 4.78285 22.4358C4.71295 22.144 4.58139 21.8705 4.39702 21.6337C3.80267 20.5859 3.92649 20.5199 2.74605 20.5199C2.48189 20.5199 2.20949 20.5199 1.92057 20.5199C1.41189 20.5155 0.925655 20.31 0.56828 19.9482C0.210906 19.5863 0.0114986 19.0978 0.0137005 18.5894C0.0137005 17.5581 0.0137005 16.5268 0.0137005 15.4956C-0.0196086 15.2261 0.00800505 14.9526 0.0945069 14.6952C0.181009 14.4378 0.324195 14.203 0.513514 14.0083C0.702834 13.8135 0.933463 13.6637 1.18841 13.5699C1.44335 13.476 1.71612 13.4405 1.9866 13.466C3.57979 13.6558 4.24843 13.0123 4.71895 11.5685C4.99962 10.7435 4.99962 10.2402 4.31447 9.72872C4.10401 9.56099 3.91048 9.37309 3.73663 9.16771C3.55643 8.98969 3.41336 8.77771 3.31572 8.54404C3.21808 8.31037 3.1678 8.05966 3.1678 7.80643C3.1678 7.55321 3.21808 7.30249 3.31572 7.06883C3.41336 6.83516 3.55643 6.62317 3.73663 6.44516C4.47131 5.62014 5.23901 4.88588 6.03147 4.15162C6.2041 3.96375 6.41507 3.81511 6.65012 3.71574C6.88517 3.61638 7.13883 3.5686 7.39394 3.57564C7.64906 3.58268 7.89969 3.64437 8.1289 3.75655C8.35811 3.86872 8.56055 4.02877 8.72255 4.22587C9.68011 5.44689 10.5881 5.52939 11.9337 4.85288C12.7592 4.44862 13.1719 4.14337 13.0068 3.20285C12.9611 2.88825 12.9611 2.56869 13.0068 2.25408C13.036 1.77098 13.2472 1.31686 13.598 0.983156C13.9487 0.649449 14.4129 0.460931 14.8972 0.455553C15.9538 0.455553 17.0104 0.455553 18.067 0.455553C18.3349 0.438068 18.6034 0.479628 18.8535 0.577293C19.1035 0.674958 19.329 0.826342 19.5141 1.02074C19.6992 1.21513 19.8392 1.44779 19.9244 1.70226C20.0095 1.95673 20.0377 2.22679 20.0069 2.49334C19.8335 4.00312 20.3371 4.82813 21.823 5.09213C22.0382 5.13967 22.2408 5.23249 22.4173 5.36439C22.4769 5.41704 22.5473 5.45601 22.6236 5.47855C22.6999 5.5011 22.7802 5.50667 22.8589 5.49487C22.9376 5.48308 23.0127 5.4542 23.0791 5.41028C23.1454 5.36636 23.2013 5.30846 23.2428 5.24064C23.573 4.87763 23.9197 4.53112 24.2829 4.20112C24.461 4.02102 24.6731 3.87804 24.9069 3.78045C25.1407 3.68287 25.3916 3.63262 25.6449 3.63262C25.8983 3.63262 26.1492 3.68287 26.383 3.78045C26.6168 3.87804 26.8289 4.02102 27.007 4.20112C27.8325 4.92713 28.5672 5.6944 29.3018 6.48641C29.4955 6.65293 29.651 6.85929 29.7576 7.09138C29.8641 7.32347 29.9193 7.57582 29.9193 7.83118C29.9193 8.08655 29.8641 8.3389 29.7576 8.57099C29.651 8.80308 29.4955 9.00944 29.3018 9.17596C27.9976 10.0835 27.948 11.0405 28.6415 12.3935C29.0377 13.169 29.3514 13.5815 30.2264 13.433C30.5199 13.4001 30.8161 13.4001 31.1096 13.433C31.6068 13.4373 32.0827 13.6354 32.4358 13.9853C32.789 14.3351 32.9914 14.809 33 15.3058C33 16.4031 33 17.5086 33 18.6059C32.9822 19.0891 32.7844 19.5482 32.4453 19.8932C32.1063 20.2381 31.6505 20.444 31.1674 20.4704C30.4658 20.5529 29.6073 20.1817 29.1037 20.6354C28.6002 21.0892 28.6332 21.9059 28.2782 22.4834C28.1832 22.6002 28.1149 22.7363 28.0781 22.8822C28.0413 23.0281 28.037 23.1803 28.0653 23.3281C28.0936 23.476 28.1539 23.6158 28.2421 23.7378C28.3302 23.8598 28.444 23.9611 28.5754 24.0345C30.474 25.6432 30.1438 26.8725 28.5754 28.2173C28.0636 28.671 27.6179 29.1991 27.1143 29.6693C26.231 30.4943 25.0341 30.6098 24.3077 29.6693C23.3418 28.4153 22.4173 28.3658 21.113 29.0753C20.106 29.6198 20.0399 29.5043 20.0399 30.6758C20.0399 32.8456 19.4621 33.4396 17.3076 33.4396L16.5068 33.4479ZM31.704 17.0136C31.704 16.5186 31.704 16.0318 31.704 15.5368C31.704 15.0418 31.4481 14.7118 30.8785 14.7118C30.3089 14.7118 29.5495 14.7118 28.8891 14.7118C28.6441 14.7499 28.3939 14.6898 28.1929 14.5446C27.992 14.3994 27.8565 14.1808 27.816 13.9363C27.5661 12.9108 27.1566 11.9308 26.6025 11.0322C26.5323 10.9391 26.4814 10.8328 26.4529 10.7196C26.4244 10.6065 26.4188 10.4888 26.4365 10.3735C26.4542 10.2582 26.4948 10.1476 26.5559 10.0482C26.617 9.94876 26.6974 9.86259 26.7924 9.79472C27.2794 9.34921 27.7334 8.86245 28.2039 8.39219C28.2994 8.3234 28.3771 8.23292 28.4308 8.12821C28.4844 8.0235 28.5123 7.90756 28.5123 7.78993C28.5123 7.67231 28.4844 7.55637 28.4308 7.45166C28.3771 7.34695 28.2994 7.25647 28.2039 7.18767L26.2228 5.20764C26.1539 5.11223 26.0634 5.03453 25.9586 4.98095C25.8539 4.92736 25.7379 4.89941 25.6202 4.89941C25.5025 4.89941 25.3865 4.92736 25.2817 4.98095C25.1769 5.03453 25.0864 5.11223 25.0176 5.20764C24.5305 5.70265 24.0353 6.1729 23.5565 6.66791C23.4285 6.83398 23.2422 6.94516 23.0352 6.97887C22.8282 7.01258 22.6161 6.96629 22.4421 6.84942C21.4941 6.27973 20.4679 5.85169 19.396 5.57889C19.1915 5.52999 19.0118 5.40846 18.8903 5.23695C18.7688 5.06544 18.7139 4.85564 18.7357 4.64663C18.7357 3.97836 18.7357 3.31835 18.7357 2.65834C18.7357 1.99833 18.455 1.76733 17.8441 1.77558C16.9361 1.77558 16.0281 1.77558 15.12 1.77558C15.0084 1.76231 14.8953 1.77452 14.7891 1.81129C14.6829 1.84806 14.5864 1.90843 14.507 1.98786C14.4275 2.06728 14.3671 2.16369 14.3303 2.26982C14.2935 2.37596 14.2813 2.48905 14.2946 2.60059C14.2946 3.23585 14.2946 3.87936 14.2946 4.51462C14.3168 4.64184 14.3128 4.77226 14.2828 4.89788C14.2528 5.0235 14.1975 5.14167 14.1202 5.24517C14.0429 5.34867 13.9453 5.43532 13.8333 5.49979C13.7214 5.56427 13.5974 5.60522 13.4691 5.62014C12.4664 5.86584 11.5082 6.26668 10.6294 6.80816C10.5413 6.88717 10.4372 6.94631 10.3242 6.98156C10.2112 7.01682 10.0919 7.02737 9.97447 7.01251C9.85702 6.99764 9.74415 6.9577 9.64351 6.89539C9.54287 6.83309 9.45682 6.74988 9.39119 6.65141C8.93717 6.16465 8.45014 5.7109 7.99612 5.24064C7.92457 5.13851 7.82944 5.05513 7.71879 4.99757C7.60814 4.94 7.48524 4.90994 7.3605 4.90994C7.23576 4.90994 7.11285 4.94 7.0022 4.99757C6.89156 5.05513 6.79643 5.13851 6.72488 5.24064C6.08926 5.8924 5.44538 6.52766 4.8015 7.16292C4.70598 7.23261 4.62828 7.32385 4.57471 7.42922C4.52114 7.53459 4.49322 7.65111 4.49322 7.76931C4.49322 7.8875 4.52114 8.00402 4.57471 8.10939C4.62828 8.21476 4.70598 8.30601 4.8015 8.37569C5.28854 8.86245 5.75906 9.35746 6.26261 9.82772C6.3529 9.89285 6.42907 9.97557 6.48654 10.0709C6.544 10.1662 6.58158 10.2722 6.597 10.3824C6.61243 10.4926 6.60538 10.6048 6.57629 10.7122C6.54719 10.8197 6.49665 10.9201 6.4277 11.0075C5.86711 11.9322 5.44965 12.9363 5.18948 13.9858C5.15283 14.2055 5.03289 14.4027 4.85457 14.5364C4.67625 14.6701 4.45325 14.7299 4.23192 14.7036C3.54677 14.7036 2.86162 14.7036 2.17647 14.7036C2.06453 14.6886 1.95066 14.6997 1.8437 14.7358C1.73673 14.772 1.63955 14.8323 1.5597 14.9122C1.47985 14.992 1.41948 15.0891 1.38328 15.196C1.34708 15.3029 1.33603 15.4167 1.35098 15.5286V18.3996C1.35098 18.9441 1.62339 19.2246 2.17647 19.2246C2.86162 19.2246 3.54677 19.2246 4.24017 19.2246C4.35057 19.206 4.46361 19.21 4.57243 19.2363C4.68124 19.2627 4.78354 19.3109 4.87311 19.3781C4.96269 19.4452 5.03766 19.5299 5.09346 19.6269C5.14927 19.7239 5.18475 19.8312 5.19773 19.9424C5.46315 20.9901 5.88029 21.9935 6.43596 22.9207C6.50533 23.0076 6.55643 23.1076 6.58617 23.2147C6.61591 23.3218 6.6237 23.4338 6.60905 23.544C6.5944 23.6542 6.55762 23.7603 6.50093 23.8559C6.44423 23.9515 6.36878 24.0347 6.27912 24.1005C5.78383 24.5707 5.30505 25.0657 4.81801 25.5525C4.72249 25.6222 4.64479 25.7134 4.59122 25.8188C4.53765 25.9242 4.50973 26.0407 4.50973 26.1589C4.50973 26.2771 4.53765 26.3936 4.59122 26.499C4.64479 26.6043 4.72249 26.6956 4.81801 26.7653C5.4784 27.417 6.13878 28.077 6.79092 28.7371C6.85768 28.8275 6.94474 28.9009 7.04511 28.9516C7.14547 29.0022 7.25633 29.0286 7.36875 29.0286C7.48118 29.0286 7.59204 29.0022 7.6924 28.9516C7.79276 28.9009 7.87983 28.8275 7.94659 28.7371C8.44188 28.2585 8.93717 27.7883 9.4077 27.285C9.47549 27.1898 9.56186 27.1093 9.6616 27.0484C9.76134 26.9874 9.87239 26.9472 9.98806 26.9303C10.1037 26.9133 10.2217 26.9199 10.3347 26.9497C10.4478 26.9795 10.5536 27.0318 10.6459 27.1035C11.5475 27.6525 12.5272 28.0614 13.5516 28.3163C13.7849 28.3491 13.9959 28.4721 14.1394 28.6587C14.283 28.8454 14.3476 29.0809 14.3193 29.3146C14.3193 29.9746 14.3193 30.6428 14.3193 31.3028C14.3193 31.9629 14.6 32.1939 15.2108 32.1856C16.1189 32.1856 17.0269 32.1856 17.9349 32.1856C18.0469 32.2006 18.1607 32.1895 18.2677 32.1533C18.3747 32.1172 18.4719 32.0568 18.5517 31.977C18.6316 31.8972 18.6919 31.8001 18.7281 31.6932C18.7643 31.5863 18.7754 31.4725 18.7604 31.3606C18.7604 30.6923 18.7604 30.0323 18.7604 29.3723C18.7248 29.1394 18.783 28.9018 18.9222 28.7116C19.0615 28.5214 19.2704 28.3941 19.5034 28.3575C20.5545 28.0966 21.5594 27.6765 22.4833 27.1118C22.5716 27.045 22.6723 26.9967 22.7796 26.9696C22.8869 26.9426 22.9986 26.9374 23.1079 26.9543C23.2173 26.9712 23.3221 27.01 23.4162 27.0682C23.5102 27.1264 23.5916 27.203 23.6555 27.2933C24.1095 27.78 24.5966 28.2338 25.0589 28.704C25.1295 28.8062 25.2238 28.8896 25.3338 28.9473C25.4438 29.0049 25.5662 29.035 25.6903 29.035C25.8145 29.035 25.9369 29.0049 26.0469 28.9473C26.1569 28.8896 26.2512 28.8062 26.3218 28.704C26.9575 28.0605 27.6013 27.417 28.2452 26.7818C28.3474 26.7112 28.4309 26.6169 28.4886 26.507C28.5462 26.397 28.5764 26.2748 28.5764 26.1506C28.5764 26.0265 28.5462 25.9042 28.4886 25.7943C28.4309 25.6844 28.3474 25.5901 28.2452 25.5195C27.7499 25.041 27.2712 24.546 26.7759 24.0675C26.6176 23.9463 26.5128 23.7683 26.4835 23.5712C26.4543 23.3741 26.5029 23.1734 26.619 23.0114C27.1975 22.039 27.6339 20.9888 27.915 19.8929C27.9552 19.6871 28.0723 19.5043 28.2425 19.3818C28.4127 19.2592 28.6233 19.2059 28.8313 19.2329C29.079 19.2329 29.3266 19.2329 29.566 19.2329C31.9434 19.1586 31.704 19.4061 31.704 17.0136Z" fill="#DDDDDD"/>
<path d="M16.4159 25.5938C15.1487 25.58 13.9001 25.2872 12.7589 24.7365C11.6177 24.1857 10.6119 23.3904 9.81315 22.4071C9.01435 21.4238 8.44215 20.2767 8.13722 19.0473C7.83229 17.818 7.80214 16.5365 8.04889 15.2942C8.29565 14.0519 8.81326 12.8791 9.56491 11.8594C10.3166 10.8397 11.2838 9.99797 12.3978 9.39418C13.5118 8.79039 14.7453 8.43933 16.0105 8.36597C17.2756 8.29262 18.5414 8.49876 19.7178 8.96975C19.8499 9.0275 19.9903 9.077 20.1223 9.143C20.2027 9.17051 20.2767 9.21404 20.3397 9.27097C20.4028 9.3279 20.4536 9.39703 20.4891 9.47418C20.5246 9.55133 20.5441 9.63488 20.5463 9.71977C20.5485 9.80466 20.5335 9.88911 20.5021 9.96802C20.4715 10.0454 20.4255 10.1158 20.3668 10.1748C20.3081 10.2338 20.2379 10.2802 20.1606 10.3111C20.0833 10.342 20.0005 10.3568 19.9172 10.3545C19.834 10.3523 19.7521 10.3331 19.6766 10.298C18.9899 10.0312 18.2796 9.82958 17.5551 9.69576C15.6351 9.38177 13.6689 9.84294 12.089 10.9778C10.5092 12.1127 9.4452 13.8283 9.13103 15.7472C8.81687 17.6662 9.2783 19.6313 10.4138 21.2102C11.5493 22.7891 13.2659 23.8525 15.1859 24.1665C16.4824 24.4343 17.8282 24.3317 19.0691 23.8707C20.31 23.4096 21.3959 22.6086 22.2026 21.5595C23.0709 20.5425 23.6314 19.2995 23.8185 17.9757C24.0056 16.652 23.8116 15.3024 23.2592 14.0848C23.0693 13.5981 22.6318 13.0041 23.3912 12.7153C24.1507 12.4266 24.2663 13.1691 24.4644 13.6311C25.0189 14.9492 25.2368 16.3844 25.0983 17.8075C24.9598 19.2307 24.4693 20.5971 23.671 21.7836C22.8727 22.9702 21.7916 23.9397 20.5251 24.6048C19.2586 25.2699 17.8465 25.6098 16.4159 25.5938Z" fill="#DDDDDD"/>
<path d="M16.8868 11.1725C17.9373 11.2072 18.9555 11.544 19.8193 12.1425C20.6832 12.741 21.356 13.5758 21.7571 14.5468C22.2539 15.5195 22.4456 16.6193 22.3072 17.7026C22.1687 18.7858 21.7066 19.8022 20.9812 20.6189C20.3046 21.4892 19.3856 22.14 18.3397 22.4894C17.2939 22.8388 16.1679 22.8712 15.1037 22.5824L14.8148 22.5082C14.4268 22.3762 14.1462 22.1452 14.27 21.6831C14.2919 21.5919 14.3338 21.5066 14.3926 21.4335C14.4514 21.3603 14.5258 21.3011 14.6102 21.2601C14.6947 21.2191 14.7872 21.1973 14.8811 21.1962C14.975 21.1952 15.0679 21.215 15.1533 21.2541C16.245 21.5976 17.4269 21.509 18.4552 21.0066C19.2126 20.6445 19.8535 20.0778 20.3054 19.3706C20.7573 18.6634 21.0022 17.8439 21.0123 17.0049C21.0225 16.1658 20.7975 15.3407 20.3628 14.6227C19.9282 13.9048 19.3011 13.3228 18.5527 12.9425C17.8043 12.5622 16.9643 12.3988 16.1278 12.4708C15.2913 12.5428 14.4917 12.8472 13.8193 13.3498C13.147 13.8524 12.6287 14.5329 12.3232 15.3146C12.0178 16.0962 11.9372 16.9476 12.0907 17.7726C12.0907 17.8881 12.0907 18.0118 12.165 18.1273C12.2971 18.5728 12.3053 19.0101 11.777 19.1504C11.2487 19.2906 11.0258 18.8451 10.9516 18.3913C10.639 17.1932 10.72 15.9264 11.1827 14.7778C11.6565 13.6703 12.4555 12.7327 13.474 12.089C14.4925 11.4452 15.6826 11.1256 16.8868 11.1725Z" fill="#DDDDDD"/>
<path d="M22.1861 11.981C21.7733 11.915 21.5257 11.7005 21.5339 11.3045C21.5316 11.2237 21.5459 11.1433 21.5758 11.0682C21.6057 10.9931 21.6506 10.9249 21.7078 10.8678C21.765 10.8106 21.8332 10.7657 21.9084 10.7359C21.9835 10.706 22.0639 10.6917 22.1448 10.694C22.3156 10.694 22.4793 10.7618 22.6001 10.8825C22.7208 11.0032 22.7887 11.1669 22.7887 11.3375C22.7887 11.5082 22.7208 11.6719 22.6001 11.7926C22.4793 11.9132 22.3156 11.981 22.1448 11.981H22.1861Z" fill="#DDDDDD"/>
<path d="M13.5267 20.6354C13.4524 21.0149 13.246 21.2707 12.8333 21.2377C12.7472 21.2389 12.662 21.2212 12.5835 21.1858C12.5051 21.1504 12.4354 21.0981 12.3795 21.0328C12.3235 20.9674 12.2827 20.8905 12.2598 20.8076C12.237 20.7246 12.2327 20.6377 12.2472 20.5529C12.248 20.4727 12.2654 20.3934 12.2985 20.3203C12.3316 20.2472 12.3796 20.1818 12.4394 20.1282C12.4992 20.0746 12.5695 20.0341 12.6459 20.0092C12.7222 19.9843 12.8029 19.9756 12.8828 19.9837C12.9684 19.9825 13.0533 19.9987 13.1325 20.0311C13.2117 20.0636 13.2835 20.1117 13.3436 20.1725C13.4037 20.2334 13.4509 20.3058 13.4824 20.3853C13.5139 20.4649 13.5289 20.5499 13.5267 20.6354Z" fill="#DDDDDD"/>
</svg>
