<svg width="33" height="34" viewBox="0 0 33 34" fill="none" xmlns="http://www.w3.org/2000/svg">
<path d="M16.5068 33.1898C15.995 33.1898 15.475 33.1898 14.9632 33.1898C14.7059 33.2063 14.448 33.1684 14.2063 33.0785C13.9647 32.9886 13.7448 32.8488 13.5609 32.6681C13.377 32.4875 13.2334 32.2701 13.1393 32.0301C13.0452 31.7902 13.0029 31.5331 13.0151 31.2757C13.2132 29.7082 12.6271 28.9987 11.1495 28.5284C10.324 28.2562 9.77091 28.2479 9.25086 28.9574C9.08434 29.1692 8.89313 29.3603 8.68127 29.5267C8.32497 29.8749 7.84644 30.0699 7.34812 30.0699C6.84979 30.0699 6.37126 29.8749 6.01496 29.5267C5.18948 28.8007 4.4548 28.0334 3.72012 27.2414C3.52581 27.0657 3.37184 26.8501 3.26878 26.6093C3.16573 26.3685 3.11602 26.1083 3.12308 25.8466C3.13014 25.5848 3.19379 25.3276 3.30967 25.0927C3.42555 24.8579 3.59092 24.6508 3.79441 24.4859C4.05391 24.335 4.2781 24.1303 4.45194 23.8857C4.62578 23.641 4.74525 23.362 4.80232 23.0675C4.85939 22.7729 4.85276 22.4695 4.78285 22.1777C4.71295 21.8859 4.58139 21.6124 4.39702 21.3756C3.80267 20.3278 3.92649 20.2618 2.74605 20.2618C2.48189 20.2618 2.20949 20.2618 1.92057 20.2618C1.41189 20.2574 0.925655 20.0518 0.56828 19.69C0.210906 19.3282 0.0114986 18.8397 0.0137005 18.3313C0.0137005 17.3 0.0137005 16.2687 0.0137005 15.2374C-0.0196086 14.968 0.00800505 14.6944 0.0945069 14.437C0.181009 14.1796 0.324195 13.9449 0.513514 13.7502C0.702834 13.5554 0.933463 13.4056 1.18841 13.3117C1.44335 13.2179 1.71612 13.1824 1.9866 13.2079C3.57979 13.3977 4.24843 12.7542 4.71895 11.3104C4.99962 10.4854 4.99962 9.98211 4.31447 9.4706C4.10401 9.30287 3.91048 9.11498 3.73663 8.90959C3.55643 8.73157 3.41336 8.51959 3.31572 8.28592C3.21808 8.05225 3.1678 7.80154 3.1678 7.54832C3.1678 7.29509 3.21808 7.04438 3.31572 6.81071C3.41336 6.57704 3.55643 6.36506 3.73663 6.18704C4.47131 5.36203 5.23901 4.62776 6.03147 3.8935C6.2041 3.70563 6.41507 3.55699 6.65012 3.45763C6.88517 3.35826 7.13883 3.31048 7.39394 3.31752C7.64906 3.32456 7.89969 3.38625 8.1289 3.49843C8.35811 3.61061 8.56055 3.77065 8.72255 3.96775C9.68011 5.18877 10.5881 5.27127 11.9337 4.59476C12.7592 4.19051 13.1719 3.88525 13.0068 2.94473C12.9611 2.63013 12.9611 2.31057 13.0068 1.99597C13.036 1.51286 13.2472 1.05875 13.598 0.725039C13.9487 0.391332 14.4129 0.202814 14.8972 0.197435C15.9538 0.197435 17.0104 0.197435 18.067 0.197435C18.3349 0.179951 18.6034 0.221511 18.8535 0.319175C19.1035 0.41684 19.329 0.568224 19.5141 0.76262C19.6992 0.957016 19.8392 1.18968 19.9244 1.44414C20.0095 1.69861 20.0377 1.96867 20.0069 2.23522C19.8335 3.745 20.3371 4.57001 21.823 4.83402C22.0382 4.88156 22.2408 4.97437 22.4173 5.10627C22.4769 5.15893 22.5473 5.1979 22.6236 5.22044C22.6999 5.24298 22.7802 5.24855 22.8589 5.23675C22.9376 5.22496 23.0127 5.19609 23.0791 5.15216C23.1454 5.10824 23.2013 5.05034 23.2428 4.98252C23.573 4.61951 23.9197 4.27301 24.2829 3.943C24.461 3.7629 24.6731 3.61992 24.9069 3.52233C25.1407 3.42475 25.3916 3.3745 25.6449 3.3745C25.8983 3.3745 26.1492 3.42475 26.383 3.52233C26.6168 3.61992 26.8289 3.7629 27.007 3.943C27.8325 4.66901 28.5672 5.43628 29.3018 6.22829C29.4955 6.39481 29.651 6.60117 29.7576 6.83326C29.8641 7.06535 29.9193 7.3177 29.9193 7.57307C29.9193 7.82843 29.8641 8.08078 29.7576 8.31287C29.651 8.54496 29.4955 8.75132 29.3018 8.91784C27.9976 9.82535 27.948 10.7824 28.6415 12.1354C29.0377 12.9109 29.3514 13.3234 30.2264 13.1749C30.5199 13.1419 30.8161 13.1419 31.1096 13.1749C31.6068 13.1791 32.0827 13.3773 32.4358 13.7271C32.789 14.077 32.9914 14.5508 33 15.0477C33 16.145 33 17.2505 33 18.3478C32.9822 18.831 32.7844 19.2901 32.4453 19.635C32.1063 19.98 31.6505 20.1859 31.1674 20.2123C30.4658 20.2948 29.6073 19.9235 29.1037 20.3773C28.6002 20.831 28.6332 21.6478 28.2782 22.2253C28.1832 22.3421 28.1149 22.4782 28.0781 22.6241C28.0413 22.77 28.037 22.9222 28.0653 23.07C28.0936 23.2178 28.1539 23.3576 28.2421 23.4797C28.3302 23.6017 28.444 23.7029 28.5754 23.7764C30.474 25.3851 30.1438 26.6144 28.5754 27.9592C28.0636 28.4129 27.6179 28.9409 27.1143 29.4112C26.231 30.2362 25.0341 30.3517 24.3077 29.4112C23.3418 28.1572 22.4173 28.1077 21.113 28.8172C20.106 29.3617 20.0399 29.2462 20.0399 30.4177C20.0399 32.5875 19.4621 33.1815 17.3076 33.1815L16.5068 33.1898ZM31.704 16.7555C31.704 16.2605 31.704 15.7737 31.704 15.2787C31.704 14.7837 31.4481 14.4537 30.8785 14.4537C30.3089 14.4537 29.5495 14.4537 28.8891 14.4537C28.6441 14.4918 28.3939 14.4317 28.1929 14.2865C27.992 14.1413 27.8565 13.9227 27.816 13.6782C27.5661 12.6526 27.1566 11.6727 26.6025 10.7741C26.5323 10.6809 26.4814 10.5747 26.4529 10.4615C26.4244 10.3484 26.4188 10.2307 26.4365 10.1154C26.4542 10.0001 26.4948 9.88944 26.5559 9.79004C26.617 9.69064 26.6974 9.60447 26.7924 9.5366C27.2794 9.09109 27.7334 8.60433 28.2039 8.13408C28.2994 8.06528 28.3771 7.9748 28.4308 7.87009C28.4844 7.76538 28.5123 7.64944 28.5123 7.53182C28.5123 7.41419 28.4844 7.29825 28.4308 7.19354C28.3771 7.08883 28.2994 6.99835 28.2039 6.92955L26.2228 4.94952C26.1539 4.85411 26.0634 4.77641 25.9586 4.72283C25.8539 4.66924 25.7379 4.6413 25.6202 4.6413C25.5025 4.6413 25.3865 4.66924 25.2817 4.72283C25.1769 4.77641 25.0864 4.85411 25.0176 4.94952C24.5305 5.44453 24.0353 5.91479 23.5565 6.40979C23.4285 6.57586 23.2422 6.68704 23.0352 6.72075C22.8282 6.75446 22.6161 6.70818 22.4421 6.5913C21.4941 6.02161 20.4679 5.59357 19.396 5.32078C19.1915 5.27187 19.0118 5.15035 18.8903 4.97884C18.7688 4.80732 18.7139 4.59752 18.7357 4.38851C18.7357 3.72025 18.7357 3.06024 18.7357 2.40022C18.7357 1.74021 18.455 1.50921 17.8441 1.51746C16.9361 1.51746 16.0281 1.51746 15.12 1.51746C15.0084 1.50419 14.8953 1.5164 14.7891 1.55317C14.6829 1.58994 14.5864 1.65031 14.507 1.72974C14.4275 1.80916 14.3671 1.90557 14.3303 2.01171C14.2935 2.11784 14.2813 2.23094 14.2946 2.34247C14.2946 2.97773 14.2946 3.62125 14.2946 4.25651C14.3168 4.38373 14.3128 4.51414 14.2828 4.63976C14.2528 4.76538 14.1975 4.88356 14.1202 4.98706C14.0429 5.09056 13.9453 5.1772 13.8333 5.24167C13.7214 5.30615 13.5974 5.3471 13.4691 5.36203C12.4664 5.60772 11.5082 6.00856 10.6294 6.55005C10.5413 6.62905 10.4372 6.68819 10.3242 6.72345C10.2112 6.7587 10.0919 6.76926 9.97447 6.75439C9.85702 6.73952 9.74415 6.69958 9.64351 6.63728C9.54287 6.57497 9.45682 6.49176 9.39119 6.39329C8.93717 5.90654 8.45014 5.45278 7.99612 4.98252C7.92457 4.88039 7.82944 4.79702 7.71879 4.73945C7.60814 4.68188 7.48524 4.65183 7.3605 4.65183C7.23576 4.65183 7.11285 4.68188 7.0022 4.73945C6.89156 4.79702 6.79643 4.88039 6.72488 4.98252C6.08926 5.63428 5.44538 6.26954 4.8015 6.9048C4.70598 6.97449 4.62828 7.06573 4.57471 7.1711C4.52114 7.27647 4.49322 7.393 4.49322 7.51119C4.49322 7.62938 4.52114 7.7459 4.57471 7.85128C4.62828 7.95665 4.70598 8.04789 4.8015 8.11758C5.28854 8.60433 5.75906 9.09934 6.26261 9.5696C6.3529 9.63474 6.42907 9.71745 6.48654 9.81278C6.544 9.9081 6.58158 10.0141 6.597 10.1243C6.61243 10.2345 6.60538 10.3467 6.57629 10.4541C6.54719 10.5615 6.49665 10.662 6.4277 10.7494C5.86711 11.6741 5.44965 12.6782 5.18948 13.7277C5.15283 13.9474 5.03289 14.1446 4.85457 14.2783C4.67625 14.4119 4.45325 14.4718 4.23192 14.4454C3.54677 14.4454 2.86162 14.4454 2.17647 14.4454C2.06453 14.4305 1.95066 14.4415 1.8437 14.4777C1.73673 14.5139 1.63955 14.5742 1.5597 14.654C1.47985 14.7338 1.41948 14.831 1.38328 14.9379C1.34708 15.0448 1.33603 15.1586 1.35098 15.2705V18.1415C1.35098 18.686 1.62339 18.9665 2.17647 18.9665C2.86162 18.9665 3.54677 18.9665 4.24017 18.9665C4.35057 18.9479 4.46361 18.9518 4.57243 18.9782C4.68124 19.0046 4.78354 19.0528 4.87311 19.12C4.96269 19.1871 5.03766 19.2718 5.09346 19.3688C5.14927 19.4658 5.18475 19.5731 5.19773 19.6843C5.46315 20.732 5.88029 21.7354 6.43596 22.6626C6.50533 22.7495 6.55643 22.8495 6.58617 22.9566C6.61591 23.0637 6.6237 23.1757 6.60905 23.2859C6.5944 23.3961 6.55762 23.5021 6.50093 23.5978C6.44423 23.6934 6.36878 23.7766 6.27912 23.8424C5.78383 24.3126 5.30505 24.8076 4.81801 25.2944C4.72249 25.3641 4.64479 25.4553 4.59122 25.5607C4.53765 25.666 4.50973 25.7826 4.50973 25.9008C4.50973 26.019 4.53765 26.1355 4.59122 26.2409C4.64479 26.3462 4.72249 26.4375 4.81801 26.5072C5.4784 27.1589 6.13878 27.8189 6.79092 28.4789C6.85768 28.5693 6.94474 28.6428 7.04511 28.6935C7.14547 28.7441 7.25633 28.7705 7.36875 28.7705C7.48118 28.7705 7.59204 28.7441 7.6924 28.6935C7.79276 28.6428 7.87983 28.5693 7.94659 28.4789C8.44188 28.0004 8.93717 27.5302 9.4077 27.0269C9.47549 26.9317 9.56186 26.8512 9.6616 26.7902C9.76134 26.7293 9.87239 26.6891 9.98806 26.6721C10.1037 26.6552 10.2217 26.6618 10.3347 26.6916C10.4478 26.7213 10.5536 26.7737 10.6459 26.8454C11.5475 27.3944 12.5272 27.8033 13.5516 28.0582C13.7849 28.091 13.9959 28.214 14.1394 28.4006C14.283 28.5873 14.3476 28.8227 14.3193 29.0564C14.3193 29.7165 14.3193 30.3847 14.3193 31.0447C14.3193 31.7047 14.6 31.9357 15.2108 31.9275C16.1189 31.9275 17.0269 31.9275 17.9349 31.9275C18.0469 31.9424 18.1607 31.9314 18.2677 31.8952C18.3747 31.859 18.4719 31.7987 18.5517 31.7189C18.6316 31.6391 18.6919 31.542 18.7281 31.4351C18.7643 31.3282 18.7754 31.2143 18.7604 31.1025C18.7604 30.4342 18.7604 29.7742 18.7604 29.1142C18.7248 28.8812 18.783 28.6437 18.9222 28.4535C19.0615 28.2633 19.2704 28.136 19.5034 28.0994C20.5545 27.8385 21.5594 27.4184 22.4833 26.8537C22.5716 26.7869 22.6723 26.7386 22.7796 26.7115C22.8869 26.6845 22.9986 26.6793 23.1079 26.6962C23.2173 26.7131 23.3221 26.7519 23.4162 26.8101C23.5102 26.8683 23.5916 26.9449 23.6555 27.0352C24.1095 27.5219 24.5966 27.9757 25.0589 28.4459C25.1295 28.548 25.2238 28.6315 25.3338 28.6891C25.4438 28.7468 25.5662 28.7769 25.6903 28.7769C25.8145 28.7769 25.9369 28.7468 26.0469 28.6891C26.1569 28.6315 26.2512 28.548 26.3218 28.4459C26.9575 27.8024 27.6013 27.1589 28.2452 26.5237C28.3474 26.4531 28.4309 26.3588 28.4886 26.2488C28.5462 26.1389 28.5764 26.0166 28.5764 25.8925C28.5764 25.7684 28.5462 25.6461 28.4886 25.5362C28.4309 25.4263 28.3474 25.332 28.2452 25.2614C27.7499 24.7829 27.2712 24.2879 26.7759 23.8094C26.6176 23.6881 26.5128 23.5102 26.4835 23.3131C26.4543 23.116 26.5029 22.9153 26.619 22.7533C27.1975 21.7808 27.6339 20.7307 27.915 19.6348C27.9552 19.429 28.0723 19.2462 28.2425 19.1236C28.4127 19.001 28.6233 18.9478 28.8313 18.9748C29.079 18.9748 29.3266 18.9748 29.566 18.9748C31.9434 18.9005 31.704 19.148 31.704 16.7555Z" fill="#DDDDDD"/>
<path d="M16.4161 25.3357C15.1489 25.3218 13.9003 25.0291 12.7591 24.4783C11.6179 23.9276 10.6122 23.1323 9.81338 22.149C9.01458 21.1657 8.44238 20.0186 8.13745 18.7892C7.83252 17.5598 7.80236 16.2784 8.04912 15.0361C8.29588 13.7938 8.81349 12.621 9.56514 11.6013C10.3168 10.5815 11.284 9.73985 12.3981 9.13606C13.5121 8.53227 14.7455 8.18121 16.0107 8.10786C17.2759 8.0345 18.5417 8.24064 19.7181 8.71163C19.8502 8.76938 19.9905 8.81888 20.1226 8.88488C20.203 8.91239 20.2769 8.95593 20.34 9.01285C20.403 9.06978 20.4538 9.13892 20.4893 9.21606C20.5248 9.29321 20.5443 9.37676 20.5465 9.46165C20.5487 9.54654 20.5337 9.631 20.5023 9.7099C20.4718 9.78732 20.4257 9.85769 20.367 9.91669C20.3083 9.97568 20.2381 10.0221 20.1608 10.053C20.0835 10.0839 20.0007 10.0987 19.9175 10.0964C19.8342 10.0942 19.7523 10.0749 19.6768 10.0399C18.9901 9.7731 18.2798 9.57146 17.5553 9.43764C15.6353 9.12366 13.6691 9.58482 12.0893 10.7197C10.5095 11.8546 9.44543 13.5702 9.13126 15.4891C8.81709 17.4081 9.27852 19.3731 10.414 20.9521C11.5496 22.531 13.2661 23.5944 15.1862 23.9084C16.4827 24.1761 17.8284 24.0736 19.0693 23.6126C20.3102 23.1515 21.3962 22.3505 22.2028 21.3013C23.0711 20.2844 23.6316 19.0413 23.8187 17.7176C24.0059 16.3939 23.8118 15.0443 23.2594 13.8267C23.0695 13.34 22.632 12.7459 23.3915 12.4572C24.1509 12.1684 24.2665 12.911 24.4646 13.373C25.0192 14.691 25.237 16.1263 25.0985 17.5494C24.96 18.9726 24.4695 20.339 23.6712 21.5255C22.8729 22.7121 21.7918 23.6816 20.5253 24.3467C19.2589 25.0118 17.8467 25.3517 16.4161 25.3357Z" fill="#DDDDDD"/>
<path d="M16.8867 10.9144C17.9372 10.9491 18.9554 11.2859 19.8193 11.8844C20.6831 12.4829 21.3559 13.3177 21.757 14.2887C22.2538 15.2614 22.4455 16.3612 22.3071 17.4445C22.1686 18.5278 21.7065 19.5441 20.9811 20.3608C20.3045 21.2311 19.3855 21.8819 18.3396 22.2313C17.2938 22.5807 16.1679 22.6131 15.1036 22.3243L14.8147 22.2501C14.4267 22.1181 14.1461 21.8871 14.2699 21.4251C14.2918 21.3338 14.3337 21.2485 14.3925 21.1754C14.4514 21.1022 14.5257 21.043 14.6101 21.002C14.6946 20.961 14.7871 20.9392 14.881 20.9382C14.9749 20.9371 15.0678 20.9569 15.1532 20.9961C16.2449 21.3395 17.4268 21.2509 18.4551 20.7485C19.2125 20.3864 19.8534 19.8197 20.3053 19.1125C20.7572 18.4053 21.0021 17.5858 21.0122 16.7468C21.0224 15.9077 20.7974 15.0826 20.3627 14.3647C19.9281 13.6467 19.3011 13.0647 18.5526 12.6844C17.8042 12.3041 16.9643 12.1407 16.1277 12.2127C15.2912 12.2847 14.4916 12.5892 13.8192 13.0917C13.1469 13.5943 12.6286 14.2749 12.3232 15.0565C12.0177 15.8381 11.9371 16.6895 12.0906 17.5145C12.0906 17.63 12.0906 17.7537 12.1649 17.8693C12.297 18.3148 12.3053 18.752 11.7769 18.8923C11.2486 19.0325 11.0258 18.587 10.9515 18.1333C10.6389 16.9351 10.7199 15.6683 11.1826 14.5197C11.6564 13.4123 12.4554 12.4746 13.4739 11.8309C14.4924 11.1871 15.6825 10.8675 16.8867 10.9144Z" fill="#DDDDDD"/>
<path d="M22.1863 11.7229C21.7735 11.6569 21.5259 11.4424 21.5341 11.0464C21.5319 10.9656 21.5461 10.8852 21.576 10.8101C21.6059 10.735 21.6508 10.6668 21.708 10.6096C21.7652 10.5525 21.8334 10.5076 21.9086 10.4777C21.9837 10.4478 22.0642 10.4336 22.145 10.4359C22.3158 10.4359 22.4795 10.5037 22.6003 10.6244C22.721 10.745 22.7889 10.9087 22.7889 11.0794C22.7889 11.25 22.721 11.4137 22.6003 11.5344C22.4795 11.6551 22.3158 11.7229 22.145 11.7229H22.1863Z" fill="#DDDDDD"/>
<path d="M13.5269 20.3773C13.4526 20.7568 13.2462 21.0126 12.8335 20.9796C12.7474 20.9808 12.6622 20.9631 12.5837 20.9277C12.5053 20.8922 12.4356 20.84 12.3797 20.7746C12.3237 20.7093 12.2829 20.6324 12.26 20.5495C12.2371 20.4665 12.2328 20.3796 12.2474 20.2948C12.2481 20.2146 12.2656 20.1353 12.2987 20.0622C12.3318 19.9891 12.3798 19.9236 12.4396 19.8701C12.4994 19.8165 12.5697 19.776 12.6461 19.7511C12.7224 19.7262 12.8031 19.7175 12.883 19.7256C12.9686 19.7244 13.0535 19.7406 13.1327 19.773C13.2119 19.8055 13.2837 19.8536 13.3438 19.9144C13.4039 19.9753 13.4511 20.0477 13.4826 20.1272C13.5141 20.2067 13.5291 20.2918 13.5269 20.3773Z" fill="#DDDDDD"/>
</svg>
