<svg id="Capa_1" enable-background="new 0 0 512 512" height="512" viewBox="0 0 512 512" width="512" xmlns="http://www.w3.org/2000/svg"><g><path d="m484.828 141.154c11.079-10.569 18.004-25.457 18.004-41.942 0-31.979-26.017-57.996-57.996-57.996-12.649 0-24.357 4.083-33.899 10.983-44.846-34.148-98.409-52.199-154.937-52.199-67.198 0-130.687 25.841-178.774 72.762-2.965 2.893-3.023 7.642-.13 10.606 1.47 1.506 3.418 2.262 5.369 2.262 1.889 0 3.779-.709 5.237-2.132 45.268-44.171 105.038-68.498 168.298-68.498 52.386 0 102.059 16.471 143.863 47.645-8.134 9.985-13.022 22.714-13.022 36.567 0 31.979 26.017 57.996 57.996 57.996 10.03 0 19.471-2.561 27.71-7.061 16.213 33.067 24.453 68.65 24.453 105.853 0 64.374-25.068 124.894-70.587 170.413s-106.039 70.587-170.413 70.587-124.894-25.068-170.413-70.587-70.587-106.039-70.587-170.413c0-55.551 18.365-107.746 53.11-150.94 2.596-3.228 2.084-7.948-1.143-10.544-3.228-2.597-7.949-2.084-10.544 1.143-17.9 22.252-31.844 47.104-41.447 73.866-9.937 27.693-14.976 56.788-14.976 86.475 0 68.38 26.629 132.668 74.98 181.019 48.352 48.353 112.64 74.981 181.02 74.981s132.667-26.628 181.02-74.981c48.351-48.351 74.98-112.639 74.98-181.019 0-40.414-9.155-79.037-27.172-114.846zm-82.988-41.942c0-23.708 19.288-42.996 42.996-42.996s42.996 19.288 42.996 42.996-19.288 42.996-42.996 42.996-42.996-19.288-42.996-42.996z"/><path d="m459.964 91.712h-7.628v-7.628c0-4.142-3.358-7.5-7.5-7.5s-7.5 3.358-7.5 7.5v7.628h-7.628c-4.142 0-7.5 3.358-7.5 7.5s3.358 7.5 7.5 7.5h7.628v7.628c0 4.142 3.358 7.5 7.5 7.5s7.5-3.358 7.5-7.5v-7.628h7.628c4.142 0 7.5-3.358 7.5-7.5s-3.358-7.5-7.5-7.5z"/><path d="m255.847 169.656c0-27.875-22.677-50.552-50.552-50.552s-50.552 22.677-50.552 50.552 22.677 50.552 50.552 50.552 50.552-22.678 50.552-50.552zm-86.104 0c0-19.604 15.948-35.552 35.552-35.552s35.552 15.948 35.552 35.552c0 19.603-15.948 35.552-35.552 35.552s-35.552-15.949-35.552-35.552z"/><path d="m97.419 328.794c-.921 5.998.83 12.093 4.804 16.724 4.024 4.689 9.875 7.378 16.051 7.378h87.553c4.142 0 7.5-3.358 7.5-7.5s-3.358-7.5-7.5-7.5h-87.553c-1.795 0-3.497-.783-4.668-2.147-.659-.767-1.711-2.396-1.36-4.679 3.374-21.984 14.549-42.156 31.464-56.8 17.085-14.79 38.956-22.935 61.585-22.935 29.322 0 57.129 13.825 74.894 37.099-13.123 12.847-21.844 30.163-23.667 49.462h-20.695c-4.142 0-7.5 3.358-7.5 7.5s3.358 7.5 7.5 7.5h157.363c6.494 0 12.535-2.921 16.574-8.015 3.987-5.028 5.439-11.475 3.985-17.689-4.037-17.244-13.905-32.88-27.789-44.028-14.1-11.322-31.843-17.557-49.959-17.557-16.315 0-31.5 4.931-44.159 13.369-20.602-26.762-52.705-42.642-86.548-42.642-26.234 0-51.592 9.445-71.402 26.594-19.605 16.973-32.559 40.365-36.473 65.866zm301.725 1.817c.554 2.366-.472 4.117-1.133 4.951-1.177 1.483-2.934 2.335-4.821 2.335h-121.599c3.758-32.206 31.22-57.289 64.41-57.289 30.287-.001 56.252 20.561 63.143 50.003z"/><path d="m374.145 213.001c0-21.032-17.111-38.143-38.143-38.143s-38.144 17.111-38.144 38.143 17.111 38.143 38.144 38.143c21.032 0 38.143-17.111 38.143-38.143zm-61.287 0c0-12.761 10.382-23.143 23.144-23.143 12.761 0 23.143 10.382 23.143 23.143s-10.382 23.143-23.143 23.143c-12.762 0-23.144-10.382-23.144-23.143z"/></g></svg>