<svg width="16" height="16" viewBox="0 0 16 16" fill="none" xmlns="http://www.w3.org/2000/svg">
<g clip-path="url(#clip0)">
<path d="M11.5875 10.3929C11.5785 10.2913 11.5595 10.1914 11.5365 10.0919C11.5195 9.99112 11.4803 9.89587 11.4534 9.79727C11.4146 9.70316 11.381 9.60605 11.3343 9.51551C11.2876 9.42474 11.243 9.33269 11.1851 9.24755C11.1322 9.15792 11.0721 9.07689 11.0111 8.99753C10.8865 8.83414 10.7418 8.68961 10.5911 8.55253C10.4374 8.41921 10.2782 8.29297 10.1118 8.17719C9.94651 8.06033 9.77601 7.95011 9.60217 7.84671C9.42923 7.74167 9.25261 7.64278 9.07389 7.5481C8.90921 7.45699 8.73909 7.3764 8.57102 7.29117L8.60018 2.94128L8.80464 2.95585C8.90491 2.96387 9.00404 2.98106 9.10359 2.99313C9.20389 3.00387 9.3004 3.03072 9.39903 3.04857C9.49839 3.06503 9.59285 3.0989 9.68923 3.12411C9.78669 3.14745 9.87745 3.1889 9.97157 3.22141C10.0664 3.25224 10.1523 3.30291 10.2431 3.3425C10.3334 3.38379 10.4149 3.44037 10.5015 3.48814C10.5449 3.51224 10.5824 3.54462 10.6233 3.57226L10.7431 3.6587L10.7461 3.66104C10.7644 3.67402 10.7867 3.68167 10.8108 3.68186C10.872 3.68224 10.9222 3.63292 10.9224 3.57151L10.9321 2.12553V2.11927C10.9323 2.08174 10.9131 2.04541 10.8787 2.02535L10.7402 1.94466C10.6946 1.91563 10.6461 1.89686 10.5981 1.87557C10.5026 1.83027 10.4052 1.79704 10.3066 1.76642C10.2091 1.73066 10.109 1.71256 10.01 1.68631C9.91107 1.65952 9.81099 1.64729 9.71128 1.62723C9.61158 1.6066 9.5115 1.59836 9.41138 1.58363C9.31168 1.56879 9.2116 1.56029 9.11152 1.55169C8.95558 1.53546 8.80006 1.52781 8.64412 1.51976L8.65328 0.152216C8.65385 0.0719105 8.58906 0.00629461 8.50875 0.00572596H8.50686L7.62217 -0.000118489C7.53861 -0.000687139 7.47053 0.0665399 7.4698 0.1501V0.152248L7.46064 1.54601L7.29042 1.57485C7.1881 1.59744 7.08679 1.62518 6.98465 1.65039C6.8839 1.67961 6.78502 1.71714 6.68523 1.75041C6.58653 1.78765 6.4911 1.83416 6.39439 1.87589C6.29953 1.92192 6.20832 1.9766 6.11525 2.02683C6.02496 2.08193 5.93897 2.14391 5.85058 2.20248C5.76496 2.26671 5.68194 2.33776 5.598 2.40574C5.52117 2.47531 5.45189 2.5455 5.37851 2.61545C5.29709 2.70173 5.23603 2.77688 5.16375 2.85848C5.09823 2.94185 5.03836 3.02999 4.97524 3.11605C4.91866 3.20634 4.86638 3.29979 4.81194 3.39159C4.76655 3.48848 4.72055 3.5855 4.67806 3.68372C4.64388 3.78513 4.60524 3.8855 4.57573 3.98839C4.5521 4.09296 4.52225 4.1949 4.5045 4.30238C4.49085 4.40919 4.46965 4.52339 4.46406 4.62458L4.45651 4.77537L4.4525 4.8509C4.45221 4.86743 4.45069 4.86708 4.45111 4.8976L4.45224 4.93718C4.45625 5.14866 4.46791 5.36209 4.51078 5.57217C4.54673 5.78336 4.61004 5.99064 4.6894 6.19099C4.768 6.38332 4.88539 6.60077 4.9948 6.75623C5.05792 6.8541 5.13184 6.93137 5.20049 7.01932C5.2764 7.09562 5.35191 7.17283 5.42978 7.24631L5.67205 7.45071L5.92368 7.63659C6.09519 7.75285 6.2667 7.87028 6.44456 7.97263C6.62008 8.08077 6.79962 8.17842 6.97937 8.27588C7.11626 8.35135 7.25564 8.42041 7.39468 8.49064L7.36808 12.4348C7.32969 12.4326 7.29106 12.4308 7.25258 12.4278C7.12969 12.4086 7.00572 12.3926 6.88359 12.3716L6.52544 12.2886L6.14741 12.1704C6.10072 12.1577 6.0334 12.1271 5.97739 12.1065L5.80148 12.0374C5.68292 11.9935 5.57684 11.931 5.46361 11.8789C5.34969 11.8271 5.25391 11.7537 5.14776 11.6931C5.09342 11.6639 5.05122 11.6221 5.00323 11.5868L4.86243 11.4772L4.85105 11.4679C4.8042 11.4317 4.74566 11.4098 4.68198 11.4094C4.52828 11.4083 4.40318 11.5321 4.40226 11.6852L4.39228 13.1652L4.39209 13.1742C4.39171 13.2661 4.43859 13.3559 4.52345 13.4065L4.70131 13.512C4.76118 13.5455 4.81829 13.5856 4.88084 13.6134C5.00528 13.6702 5.12603 13.7387 5.25432 13.7848C5.38242 13.8311 5.50778 13.8885 5.63917 13.9223C5.7698 13.9592 5.89872 14.0041 6.03122 14.0287C6.16314 14.0558 6.2945 14.0907 6.42738 14.1068C6.56015 14.1239 6.69281 14.1521 6.82568 14.16C6.95846 14.1703 7.09168 14.1867 7.22437 14.1918L7.31279 14.1945L7.30281 15.6746C7.30189 15.8499 7.44295 15.993 7.61793 15.9943H7.62214L8.50657 16.0001C8.68528 16.0012 8.83076 15.8576 8.83225 15.6791V15.6748L8.84419 13.8293L8.84479 13.7651C8.88605 13.7561 8.92544 13.7449 8.96598 13.735C9.01005 13.7266 9.05408 13.7173 9.09762 13.7053C9.19618 13.6841 9.29048 13.6486 9.38684 13.6183C9.48357 13.59 9.57677 13.5513 9.66955 13.5124C9.76404 13.4768 9.85496 13.4329 9.94421 13.3856L10.0787 13.3165L10.2075 13.2368C10.2503 13.2099 10.294 13.1844 10.3356 13.1562L10.4572 13.0648C10.5407 13.0066 10.6155 12.9393 10.6891 12.8706C10.7659 12.8058 10.834 12.7287 10.9014 12.6542C10.9733 12.5823 11.0297 12.4979 11.0915 12.4173C11.211 12.2536 11.3065 12.0735 11.3886 11.8877C11.4254 11.7932 11.4575 11.6966 11.4902 11.6006C11.5126 11.5015 11.5406 11.4039 11.5582 11.3036C11.5707 11.2029 11.591 11.1013 11.5966 11.0011C11.5998 10.8997 11.611 10.802 11.6075 10.6975C11.6032 10.5959 11.6032 10.4938 11.5875 10.3929ZM9.064 9.17732L9.19735 9.28002L9.32059 9.39489C9.402 9.47163 9.48638 9.5452 9.55402 9.63407C9.62456 9.71997 9.70152 9.80062 9.75418 9.89757L9.84172 10.0371C9.87142 10.083 9.88655 10.1364 9.90952 10.1851C9.93002 10.2354 9.95359 10.2846 9.97188 10.3345L10.0075 10.4873C10.04 10.5825 10.0361 10.7022 10.044 10.8139L10.046 10.8565L10.0471 10.8776C10.046 10.8665 10.046 10.8861 10.0454 10.889L10.0391 10.9696C10.0369 11.0238 10.0279 11.0764 10.0193 11.1293C10.0028 11.2348 9.97504 11.3369 9.93861 11.4348C9.90314 11.5332 9.85382 11.6243 9.79952 11.7111C9.73994 11.7948 9.67609 11.8745 9.60065 11.9438C9.52559 12.0135 9.4449 12.077 9.35566 12.13C9.31231 12.1578 9.26733 12.1836 9.21969 12.2058C9.17413 12.2302 9.12671 12.2521 9.07702 12.2709C8.98104 12.3126 8.87945 12.3451 8.77712 12.3736C8.75624 12.3798 8.73435 12.3843 8.7129 12.3897L8.83632 9.00931C8.91499 9.06157 8.98875 9.12055 9.064 9.17732ZM7.06312 6.47544C6.97302 6.40831 6.8834 6.34061 6.80609 6.26172C6.72598 6.18515 6.64223 6.1158 6.57548 6.02232L6.46942 5.8903C6.44172 5.85211 6.41705 5.79704 6.39063 5.75155C6.36653 5.7029 6.33462 5.65858 6.31658 5.60711L6.26541 5.45244C6.22314 5.35185 6.21799 5.24311 6.19771 5.13911C6.17259 5.03846 6.18428 4.91766 6.17746 4.80712L6.17512 4.72261C6.17401 4.70675 6.1784 4.67194 6.1797 4.64745C6.18371 4.59378 6.18662 4.53998 6.19669 4.4876C6.21183 4.38208 6.23536 4.27808 6.27093 4.17939C6.28664 4.12907 6.30632 4.08051 6.32891 4.03347C6.34878 3.9851 6.37455 3.94002 6.40081 3.8951C6.45262 3.80481 6.50762 3.73152 6.58549 3.64076C6.65187 3.57129 6.73675 3.5021 6.80957 3.43247C6.89509 3.37513 6.98342 3.32241 7.06988 3.26842C7.16643 3.23079 7.26063 3.18925 7.3567 3.15349L7.41805 3.13921L7.29181 6.63909C7.21344 6.58813 7.13752 6.53246 7.06312 6.47544Z" fill="#DDDDDD"/>
</g>
<defs>
<clipPath id="clip0">
<rect width="16" height="16" fill="white"/>
</clipPath>
</defs>
</svg>
