<svg width="33" height="34" viewBox="0 0 33 34" fill="none" xmlns="http://www.w3.org/2000/svg">
<path d="M32.8905 15.767L32.1025 13.0293C32.0396 12.8244 31.7709 12.5874 31.4417 12.711C30.4281 13.0028 29.3663 12.4155 29.0746 11.402C28.7829 10.3886 29.3701 9.32669 30.3839 9.03491C30.5998 8.98721 30.8584 8.76291 30.7741 8.41409L30.0907 6.03964C29.8858 5.32789 29.4162 4.73853 28.7681 4.38017C28.12 4.02174 27.3712 3.93731 26.6594 4.14208L2.00701 11.2378C1.29526 11.4427 0.705898 11.9124 0.347539 12.5604C-0.0108204 13.2085 -0.0953829 13.9574 0.109514 14.6691C0.494105 15.7282 0.99265 17.8116 0.81708 18.9303C0.81708 19.1966 1.02965 19.4141 1.29577 19.4203C2.1055 19.4391 2.81184 19.9736 3.06372 20.725C2.88435 20.8693 2.67675 20.9833 2.44581 21.0556C2.19174 21.1351 2.04768 21.403 2.12135 21.6588L2.45451 22.8163C2.12722 23.083 1.72445 23.233 1.29577 23.243C1.02958 23.2492 0.81708 23.4667 0.81708 23.733V26.5819C0.81708 28.1108 2.0609 29.3546 3.58972 29.3546H9.79508C10.0658 29.3546 10.2852 29.1352 10.2852 28.8645C10.2852 28.5939 10.0658 28.3744 9.79508 28.3744H3.58972C2.60134 28.3744 1.79722 27.5703 1.79722 26.5819V24.1724C2.13237 24.1088 2.45097 23.9867 2.74094 23.8116L2.90942 24.3967C3.11425 25.1084 3.58392 25.6978 4.232 26.0561C4.81769 26.3617 5.5355 26.5312 6.34065 26.2942L29.0405 19.7605C28.7465 20.2131 28.5756 20.7529 28.5756 21.3317C28.5756 22.7795 29.6449 23.9824 31.0353 24.1921V26.5819C31.0353 27.5703 30.2312 28.3744 29.2428 28.3744H12.1443C11.8736 28.3744 11.6542 28.5938 11.6542 28.8645C11.6542 29.1351 11.8736 29.3546 12.1443 29.3546H29.2429C30.7717 29.3546 32.0155 28.1108 32.0155 26.5819V23.733C32.0114 23.5187 31.8195 23.2165 31.4685 23.2443C30.4138 23.2443 29.5558 22.3863 29.5558 21.3317C29.5558 20.2771 30.4138 19.4191 31.4685 19.4191C31.6892 19.4334 31.9998 19.2889 32.0155 18.9305V18.653C32.2701 18.4378 32.4864 18.1764 32.6525 17.8759C33.0109 17.2277 33.0954 16.4789 32.8905 15.767ZM1.79722 18.4919V17.3219C3.09182 17.2733 4.08389 18.5554 3.69762 19.7927C3.27481 19.1249 2.58728 18.6453 1.79722 18.4919ZM17.596 19.0324L19.3554 18.526L20.1533 21.2985L18.394 21.8049L17.596 19.0324ZM31.7947 17.4014C31.5539 17.8371 31.178 18.0986 30.7219 18.2565L23.3914 20.3664L23.3372 20.178C23.2623 19.9179 22.9903 19.7678 22.7308 19.8426C22.4707 19.9175 22.3204 20.189 22.3953 20.4491L22.4495 20.6374L21.0953 21.0272L20.1618 17.7839C20.1259 17.659 20.0418 17.5535 19.928 17.4906C19.8142 17.4277 19.6802 17.4125 19.5553 17.4485L16.8539 18.226C16.7289 18.262 16.6235 18.3461 16.5606 18.4598C16.4977 18.5736 16.4825 18.7076 16.5186 18.8326L17.4521 22.0759L6.06956 25.3522C5.6093 25.4847 5.12519 25.43 4.70625 25.1983C4.2873 24.9667 3.98373 24.5856 3.85121 24.1254L3.1847 21.8098C4.36149 21.2141 4.99841 19.8347 4.68259 18.5505C4.33493 17.1371 3.03369 16.2709 1.61327 16.3503L1.05137 14.398C0.91898 13.9379 0.973572 13.4537 1.20528 13.0347C1.43693 12.6158 1.81797 12.3122 2.2781 12.1797L18.6581 7.46502L18.7124 7.65342C18.7742 7.86824 18.9702 8.00804 19.1831 8.00804C19.228 8.00804 19.2736 8.00179 19.3189 7.98877C19.579 7.91387 19.7292 7.64233 19.6543 7.38226L19.6001 7.19393L26.9305 5.08399C27.3906 4.95154 27.8748 5.0062 28.2938 5.23791C28.7127 5.46955 29.0163 5.8506 29.1488 6.31073L29.7052 8.244C28.4271 8.83007 27.7323 10.2818 28.1328 11.6732C28.5333 13.0645 29.8926 13.9249 31.2876 13.7416L31.9486 16.0382C32.081 16.4984 32.0264 16.9825 31.7947 17.4014Z" fill="#28DE70"/>
<path d="M20.6648 10.8938L20.3051 9.64396C20.2302 9.38382 19.9582 9.23371 19.6986 9.30854C19.4385 9.38344 19.2883 9.65498 19.3632 9.91505L19.7229 11.1649C19.7948 11.353 20.0193 11.5892 20.3294 11.5003C20.5895 11.4254 20.7397 11.1538 20.6648 10.8938Z" fill="#28DE70"/>
<path d="M21.6756 14.4051L21.3158 13.1553C21.2409 12.8951 20.9691 12.7451 20.7093 12.8198C20.4492 12.8947 20.299 13.1663 20.3739 13.4264L20.7337 14.6762C20.8056 14.8644 21.0301 15.1005 21.3402 15.0116C21.6003 14.9367 21.7505 14.6652 21.6756 14.4051Z" fill="#28DE70"/>
<path d="M22.3265 16.6667C22.2516 16.4065 21.9795 16.2564 21.72 16.3313C21.4599 16.4061 21.3097 16.6777 21.3846 16.9378L21.7443 18.1876C21.8162 18.3757 22.0407 18.6119 22.3508 18.523C22.6109 18.4481 22.7611 18.1765 22.6862 17.9165L22.3265 16.6667Z" fill="#28DE70"/>
<path d="M27.5538 8.92351C27.6167 8.80975 27.6318 8.67568 27.5958 8.55077L27.0474 6.64554C26.9725 6.38547 26.7007 6.23529 26.4408 6.31012L21.511 7.72906C21.2509 7.80395 21.1006 8.0755 21.1755 8.33556L21.7239 10.2408C21.8237 10.4284 21.9281 10.6526 22.3304 10.5762L27.2604 9.15721C27.3853 9.12131 27.4909 9.03727 27.5538 8.92351ZM22.5303 9.49881L22.253 8.5355L26.241 7.38765L26.5183 8.35097L22.5303 9.49881Z" fill="#28DE70"/>
<path d="M26.7823 16.3883L29.4161 15.6302C29.6762 15.5553 29.8264 15.2838 29.7515 15.0237C29.6766 14.7635 29.4046 14.6134 29.1451 14.6882L26.5113 15.4463C26.2512 15.5212 26.1009 15.7928 26.1758 16.0529C26.2377 16.2677 26.4337 16.4075 26.6465 16.4075C26.6914 16.4076 26.737 16.4014 26.7823 16.3883Z" fill="#28DE70"/>
<path d="M29.6309 16.3767L26.9971 17.1347C26.737 17.2096 26.5868 17.4811 26.6617 17.7412C26.7235 17.9561 26.9195 18.0959 27.1324 18.0959C27.1772 18.0959 27.2229 18.0896 27.2682 18.0767L29.902 17.3186C30.1621 17.2438 30.3123 16.9722 30.2374 16.7121C30.1625 16.4519 29.8905 16.3018 29.6309 16.3767Z" fill="#28DE70"/>
<path d="M9.37914 21.4745L5.66483 22.5436C5.40477 22.6185 5.25452 22.89 5.32942 23.1501C5.39123 23.3649 5.58723 23.5047 5.80012 23.5047C5.84504 23.5047 5.89068 23.4985 5.93592 23.4855L9.65023 22.4164C9.9103 22.3415 10.0605 22.07 9.98565 21.8099C9.91075 21.5497 9.63876 21.3997 9.37914 21.4745Z" fill="#28DE70"/>
<path d="M28.2927 27.3165C28.5634 27.3165 28.7828 27.0971 28.7828 26.8264V24.9289C28.7828 24.6583 28.5634 24.4388 28.2927 24.4388H22.8816C22.6109 24.4388 22.3915 24.6582 22.3915 24.9289V26.8264C22.3915 27.097 22.6109 27.3165 22.8816 27.3165H28.2927ZM23.3716 25.4191H27.8026V26.3364H23.3716V25.4191Z" fill="#28DE70"/>
<path d="M20.482 26.2696C20.7527 26.2696 20.9721 26.0502 20.9721 25.7795C20.9721 25.5088 20.7527 25.2894 20.482 25.2894H15.272C15.0013 25.2894 14.7819 25.5088 14.7819 25.7795C14.7819 26.0502 15.0013 26.2696 15.272 26.2696H20.482Z" fill="#28DE70"/>
<path d="M15.2814 13.7791C15.0878 13.8349 14.593 13.9977 13.936 14.2188L11.1352 11.5672C11.0092 11.448 10.8296 11.4041 10.6627 11.4521L9.17702 11.8798C8.94183 11.9526 8.69923 12.2724 8.91302 12.6346L10.799 15.2893C9.16941 15.8497 7.61719 16.388 7.13895 16.554L5.51814 16.1331C5.18266 16.0397 4.75057 16.4166 4.97184 16.8548L6.21211 18.9768C6.36345 19.1295 6.44891 19.2759 6.79425 19.1931L7.68306 18.8881C7.95138 18.8263 9.71585 18.4198 11.5753 17.9859L11.3891 21.2371C11.4282 21.4733 11.4948 21.8088 12.0139 21.7361L13.4996 21.3084C13.6664 21.2604 13.7953 21.1278 13.8387 20.9598L14.8013 17.2249C15.4751 17.063 15.9808 16.9378 16.1744 16.8821C17.2815 16.5634 17.7075 15.1754 17.7524 15.0182C17.8039 14.838 17.7481 14.6442 17.6087 14.519C17.4871 14.4097 16.3876 13.4607 15.2814 13.7791ZM10.1124 12.6304L10.6647 12.4715L12.886 14.5745C12.5281 14.6964 12.1503 14.8255 11.7656 14.9574L10.1124 12.6304ZM12.9594 20.444L12.4072 20.6029L12.5703 17.7532C12.9662 17.6603 13.3549 17.5688 13.7228 17.4818L12.9594 20.444ZM15.9034 15.9402C14.142 16.4071 7.72927 17.8616 7.38922 17.9527L6.85587 18.1357L6.41307 17.3782L7.03634 17.54C7.49988 17.5571 7.64187 17.3804 8.53726 17.107C10.0721 16.5752 12.6924 15.6729 13.971 15.2414C14.7498 14.9781 15.3437 14.7812 15.5525 14.7211C15.9168 14.6162 16.3882 14.8494 16.6952 15.0534C16.5448 15.3887 16.2709 15.8344 15.9034 15.9402Z" fill="#28DE70"/>
</svg>
