<svg width="33" height="26" viewBox="0 0 33 26" fill="none" xmlns="http://www.w3.org/2000/svg">
<path d="M32.8905 12.0252L32.1025 9.28738C32.0396 9.08248 31.7709 8.84555 31.4417 8.96911C30.428 9.26095 29.3663 8.67366 29.0746 7.66013C28.7829 6.64667 29.3701 5.5848 30.3839 5.29303C30.5998 5.24533 30.8583 5.02103 30.7741 4.67221L30.0906 2.29776C29.8858 1.586 29.4161 0.996644 28.768 0.638284C28.12 0.279861 27.3712 0.195427 26.6594 0.400195L2.00698 7.4959C1.29523 7.7008 0.705868 8.17047 0.347508 8.81855C-0.0108509 9.46662 -0.0954134 10.2155 0.109483 10.9272C0.494075 11.9863 0.99262 14.0697 0.817049 15.1884C0.817049 15.4547 1.02962 15.6722 1.29574 15.6784C2.10547 15.6972 2.81181 16.2318 3.06369 16.9831C2.88432 17.1274 2.67671 17.2414 2.44578 17.3137C2.19171 17.3933 2.04765 17.6611 2.12132 17.9169L2.45448 19.0744C2.12719 19.3412 1.72442 19.4911 1.29574 19.5011C1.02955 19.5073 0.817049 19.7249 0.817049 19.9911V22.8401C0.817049 24.3689 2.06087 25.6127 3.58969 25.6127H9.79505C10.0658 25.6127 10.2851 25.3933 10.2851 25.1226C10.2851 24.852 10.0658 24.6325 9.79505 24.6325H3.58969C2.60131 24.6325 1.79719 23.8284 1.79719 22.8401V20.4305C2.13234 20.3669 2.45094 20.2448 2.74091 20.0697L2.90939 20.6548C3.11422 21.3665 3.58389 21.9559 4.23197 22.3143C4.81765 22.6198 5.53547 22.7893 6.34062 22.5523L29.0405 16.0186C28.7465 16.4713 28.5756 17.011 28.5756 17.5898C28.5756 19.0377 29.6449 20.2405 31.0352 20.4502V22.8401C31.0352 23.8285 30.2311 24.6325 29.2428 24.6325H12.1442C11.8735 24.6325 11.6541 24.8519 11.6541 25.1226C11.6541 25.3932 11.8735 25.6127 12.1442 25.6127H29.2429C30.7717 25.6127 32.0155 24.3689 32.0155 22.8401V19.9911C32.0114 19.7769 31.8195 19.4746 31.4684 19.5024C30.4138 19.5024 29.5558 18.6444 29.5558 17.5898C29.5558 16.5353 30.4138 15.6773 31.4684 15.6773C31.6892 15.6915 31.9997 15.5471 32.0155 15.1886V14.9111C32.27 14.696 32.4863 14.4345 32.6525 14.1341C33.0109 13.4858 33.0954 12.737 32.8905 12.0252ZM1.79719 14.75V13.58C3.09179 13.5314 4.08386 14.8135 3.69759 16.0508C3.27478 15.383 2.58725 14.9034 1.79719 14.75ZM17.5959 15.2905L19.3554 14.7841L20.1533 17.5566L18.3939 18.063L17.5959 15.2905ZM31.7947 13.6596C31.5538 14.0953 31.1779 14.3567 30.7219 14.5146L23.3914 16.6245L23.3372 16.4361C23.2623 16.176 22.9903 16.026 22.7307 16.1007C22.4707 16.1756 22.3204 16.4472 22.3953 16.7072L22.4495 16.8956L21.0952 17.2854L20.1617 14.042C20.1258 13.9171 20.0417 13.8116 19.928 13.7487C19.8142 13.6858 19.6802 13.6706 19.5552 13.7066L16.8539 14.4841C16.7289 14.5201 16.6235 14.6042 16.5606 14.7179C16.4977 14.8317 16.4825 14.9658 16.5185 15.0907L17.4521 18.334L6.06953 21.6103C5.60927 21.7428 5.12516 21.6881 4.70621 21.4564C4.28727 21.2248 3.9837 20.8438 3.85118 20.3836L3.18467 18.0679C4.36145 17.4722 4.99838 16.0928 4.68256 14.8086C4.3349 13.3952 3.03366 12.529 1.61324 12.6085L1.05134 10.6561C0.91895 10.196 0.973542 9.7118 1.20525 9.29286C1.4369 8.87391 1.81794 8.57027 2.27807 8.43782L18.6581 3.72314L18.7123 3.91154C18.7741 4.12636 18.9701 4.26616 19.183 4.26616C19.228 4.26616 19.2736 4.25991 19.3189 4.24689C19.579 4.17199 19.7291 3.90045 19.6542 3.64038L19.6 3.45205L26.9304 1.34211C27.3906 1.20966 27.8747 1.26432 28.2937 1.49603C28.7127 1.72767 29.0163 2.10872 29.1488 2.56885L29.7052 4.50212C28.4271 5.08819 27.7322 6.53987 28.1327 7.93128C28.5332 9.32257 29.8926 10.183 31.2876 9.99971L31.9486 12.2963C32.081 12.7565 32.0264 13.2406 31.7947 13.6596Z" fill="#28DE70"/>
<path d="M20.6646 7.15189L20.3049 5.90207C20.23 5.64194 19.958 5.49183 19.6984 5.56666C19.4384 5.64155 19.2881 5.9131 19.363 6.17316L19.7227 7.42298C19.7946 7.61111 20.0191 7.84734 20.3292 7.75839C20.5894 7.6835 20.7395 7.41195 20.6646 7.15189Z" fill="#28DE70"/>
<path d="M21.6754 10.6632L21.3157 9.41338C21.2408 9.15325 20.9689 9.00327 20.7091 9.07797C20.449 9.15286 20.2989 9.4244 20.3738 9.68453L20.7335 10.9343C20.8055 11.1225 21.0299 11.3586 21.34 11.2698C21.6002 11.1949 21.7503 10.9233 21.6754 10.6632Z" fill="#28DE70"/>
<path d="M22.3264 12.9248C22.2515 12.6646 21.9795 12.5145 21.7199 12.5894C21.4598 12.6642 21.3096 12.9358 21.3845 13.1959L21.7442 14.4457C21.8161 14.6338 22.0406 14.87 22.3507 14.7811C22.6108 14.7063 22.761 14.4347 22.6861 14.1746L22.3264 12.9248Z" fill="#28DE70"/>
<path d="M27.5537 5.18162C27.6166 5.06786 27.6318 4.9338 27.5957 4.80889L27.0473 2.90366C26.9725 2.64359 26.7006 2.49341 26.4408 2.56824L21.5109 3.98718C21.2509 4.06207 21.1006 4.33361 21.1755 4.59368L21.7239 6.49892C21.8236 6.68647 21.9281 6.91071 22.3304 6.83433L27.2603 5.41533C27.3853 5.37943 27.4908 5.29538 27.5537 5.18162ZM22.5302 5.75693L22.253 4.79362L26.241 3.64577L26.5183 4.60909L22.5302 5.75693Z" fill="#28DE70"/>
<path d="M26.7824 12.6465L29.4162 11.8884C29.6763 11.8135 29.8266 11.5419 29.7517 11.2818C29.6768 11.0216 29.4048 10.8715 29.1452 10.9464L26.5114 11.7045C26.2513 11.7794 26.1011 12.0509 26.176 12.311C26.2378 12.5258 26.4338 12.6656 26.6467 12.6656C26.6916 12.6657 26.7372 12.6595 26.7824 12.6465Z" fill="#28DE70"/>
<path d="M29.6311 12.6348L26.9972 13.3929C26.7372 13.4678 26.5869 13.7393 26.6618 13.9994C26.7236 14.2143 26.9196 14.3541 27.1325 14.3541C27.1774 14.3541 27.2231 14.3478 27.2683 14.3349L29.9022 13.5768C30.1622 13.5019 30.3125 13.2304 30.2376 12.9703C30.1626 12.7101 29.8907 12.56 29.6311 12.6348Z" fill="#28DE70"/>
<path d="M9.37903 17.7326L5.66473 18.8017C5.40466 18.8766 5.25442 19.1481 5.32931 19.4082C5.39112 19.623 5.58713 19.7628 5.80001 19.7628C5.84494 19.7628 5.89057 19.7566 5.93582 19.7436L9.65013 18.6745C9.91019 18.5996 10.0604 18.3281 9.98554 18.068C9.91064 17.8078 9.63865 17.6578 9.37903 17.7326Z" fill="#28DE70"/>
<path d="M28.2929 23.5746C28.5636 23.5746 28.783 23.3552 28.783 23.0845V21.1871C28.783 20.9164 28.5636 20.697 28.2929 20.697H22.8817C22.611 20.697 22.3916 20.9164 22.3916 21.1871V23.0845C22.3916 23.3551 22.611 23.5746 22.8817 23.5746H28.2929ZM23.3717 21.6772H27.8028V22.5945H23.3717V21.6772Z" fill="#28DE70"/>
<path d="M20.4818 22.5277C20.7525 22.5277 20.9719 22.3083 20.9719 22.0376C20.9719 21.7669 20.7525 21.5475 20.4818 21.5475H15.2718C15.0011 21.5475 14.7817 21.7669 14.7817 22.0376C14.7817 22.3083 15.0011 22.5277 15.2718 22.5277H20.4818Z" fill="#28DE70"/>
<path d="M15.2812 10.0372C15.0876 10.093 14.5928 10.2558 13.9358 10.4769L11.135 7.82534C11.009 7.7061 10.8294 7.6622 10.6625 7.71022L9.17682 8.13787C8.94163 8.21077 8.69903 8.53052 8.91282 8.89268L10.7988 11.5474C9.16921 12.1079 7.61699 12.6461 7.13875 12.8121L5.51794 12.3913C5.18247 12.2979 4.75037 12.6747 4.97164 13.1129L6.21191 15.2349C6.36325 15.3876 6.44871 15.534 6.79405 15.4512L7.68286 15.1462C7.95118 15.0844 9.71565 14.6779 11.5751 14.244L11.3889 17.4952C11.428 17.7315 11.4946 18.0669 12.0137 17.9942L13.4994 17.5665C13.6662 17.5185 13.7951 17.3859 13.8385 17.2179L14.8011 13.483C15.4749 13.3211 15.9806 13.196 16.1742 13.1402C17.2813 12.8215 17.7073 11.4335 17.7522 11.2763C17.8037 11.0961 17.7479 10.9023 17.6085 10.7771C17.4869 10.6678 16.3874 9.71877 15.2812 10.0372ZM10.1122 8.88855L10.6645 8.72961L12.8858 10.8327C12.5279 10.9545 12.1501 11.0836 11.7654 11.2155L10.1122 8.88855ZM12.9592 16.7021L12.407 16.861L12.5701 14.0113C12.966 13.9184 13.3547 13.827 13.7226 13.7399L12.9592 16.7021ZM15.9032 12.1984C14.1418 12.6652 7.72907 14.1198 7.38902 14.2108L6.85567 14.3938L6.41288 13.6363L7.03614 13.7981C7.49968 13.8152 7.64167 13.6385 8.53706 13.3651C10.0719 12.8333 12.6922 11.9311 13.9708 11.4995C14.7496 11.2362 15.3435 11.0394 15.5523 10.9792C15.9166 10.8743 16.388 11.1075 16.695 11.3115C16.5446 11.6468 16.2707 12.0925 15.9032 12.1984Z" fill="#28DE70"/>
</svg>
