<svg width="16" height="16" viewBox="0 0 16 16" fill="none" xmlns="http://www.w3.org/2000/svg">
<path d="M13.8408 12.6678C12.8957 13.662 11.6857 14.2096 10.4335 14.2096C8.38127 14.2096 6.6043 12.7684 5.768 10.6851H11.4685C11.9628 10.6851 12.3636 10.2843 12.3636 9.78999C12.3636 9.29568 11.9628 8.8949 11.4685 8.8949H5.31313C5.27794 8.60227 5.25871 8.30376 5.25871 7.99978C5.25871 7.6569 5.28285 7.32079 5.32788 6.99278H11.4685C11.9628 6.99278 12.3636 6.592 12.3636 6.09769C12.3636 5.60338 11.9628 5.20256 11.4685 5.20256H5.81562C6.66985 3.18028 8.41843 1.78999 10.4335 1.78999C11.6857 1.78999 12.8957 2.33762 13.8408 3.33164C14.1811 3.68971 14.7473 3.70443 15.1062 3.36388C15.4645 3.02319 15.4787 2.45663 15.1385 2.09837C13.8522 0.745204 12.1814 0 10.4338 0C7.44969 0 4.8989 2.16729 3.90906 5.20282H1.51044C1.01613 5.20282 0.615356 5.6036 0.615356 6.09791C0.615356 6.59222 1.01613 6.993 1.51044 6.993H3.52551C3.48924 7.3233 3.4685 7.65875 3.4685 8C3.4685 8.30287 3.48433 8.60098 3.51328 8.89512H1.51044C1.01613 8.89512 0.615356 9.2959 0.615356 9.79021C0.615356 10.2845 1.01613 10.6853 1.51044 10.6853H3.87353C4.83638 13.7795 7.41294 16 10.4335 16C12.1813 16 13.8518 15.2546 15.1381 13.9017C15.4785 13.5433 15.4645 12.9768 15.1059 12.6362C14.7478 12.2955 14.1811 12.3097 13.8408 12.6678Z" fill="#DDDDDD"/>
</svg>
