<svg width="34" height="30" viewBox="0 0 34 30" fill="none" xmlns="http://www.w3.org/2000/svg">
<path d="M19.8621 6.62069C19.8621 2.96996 16.8921 0 13.2414 0C9.59069 0 6.62073 2.96996 6.62073 6.62069C6.62073 10.2714 9.59069 13.2414 13.2414 13.2414C16.8921 13.2414 19.8621 10.2713 19.8621 6.62069ZM8.58525 6.62069C8.58525 4.0532 10.6739 1.96452 13.2414 1.96452C15.8089 1.96452 17.8976 4.0532 17.8976 6.62069C17.8976 9.18806 15.8089 11.2769 13.2414 11.2769C10.6739 11.2769 8.58525 9.18806 8.58525 6.62069Z" fill="#D30000"/>
<path d="M0.643597 28.8851C0.136573 28.3152 -0.0868293 27.5651 0.0306768 26.8269C0.530046 23.6886 2.18279 20.8099 4.6841 18.7211C7.21156 16.6106 10.4469 15.4482 13.7939 15.4482C18.1118 15.4482 22.2077 18.4255 24.8362 21.719C26.3601 23.6284 26.6081 29.7931 28.6897 29.7931H17.6895C17.161 29.7931 16.7326 29.3798 16.7326 28.8701C16.7326 28.3603 17.161 27.9471 17.6895 27.9471L21.9456 27.9471L24.8362 27.9471C25.0688 25.572 24.2222 24.5514 23.2325 22.642C20.9659 19.7778 17.5351 17.2944 13.7941 17.2944C10.9069 17.2944 8.11652 18.2967 5.93673 20.1169C3.77862 21.9191 2.35286 24.4015 1.92238 27.107C1.8776 27.388 2.01182 27.5885 2.0959 27.6829C2.2453 27.8507 2.46245 27.9471 2.69147 27.9471H13.8619C14.3904 27.9471 14.8188 28.3603 14.8188 28.8701C14.8188 29.3798 14.3904 29.7931 13.8619 29.7931H2.69147C1.9035 29.7931 1.157 29.4621 0.643597 28.8851Z" fill="#D30000"/>
<path d="M28.3252 5.26891L27.2686 6.37088L26.212 5.26891C25.6383 4.67054 24.708 4.67054 24.1343 5.26891C23.5606 5.86728 23.5606 6.8375 24.1343 7.43587L25.1909 8.53784L24.1343 9.63981C23.5606 10.2382 23.5606 11.2084 24.1343 11.8068C24.708 12.4051 25.6383 12.4051 26.212 11.8068L27.2686 10.7048L28.3252 11.8068C28.8989 12.4051 29.8291 12.4051 30.4029 11.8068C30.9766 11.2084 30.9766 10.2382 30.4029 9.63981L29.3463 8.53784L30.4029 7.43587C30.9766 6.8375 30.9766 5.86728 30.4029 5.26891C29.8291 4.67054 28.8989 4.67054 28.3252 5.26891Z" fill="#D30000"/>
</svg>
