<svg width="47" height="73" viewBox="0 0 47 73" fill="none" xmlns="http://www.w3.org/2000/svg">
<circle cx="23.5" cy="39.5001" r="23.5" fill="#E84242"/>
<path d="M15.9673 45.7227C16.8377 44.6129 17.723 43.5332 18.6233 42.4834C19.5236 41.4037 20.4089 40.3239 21.2792 39.2442C20.1396 37.8039 19.03 36.4235 17.9504 35.1032C16.9007 33.7829 15.8061 32.4326 14.6665 31.0523C14.8167 30.3023 15.1019 29.7024 15.522 29.2525C15.9722 28.8027 16.5272 28.5778 17.1872 28.578C17.8172 28.5782 18.3122 28.7433 18.6721 29.0734C19.032 29.4035 19.4219 29.8387 19.8417 30.3788C20.5315 31.309 21.2362 32.2992 21.9559 33.3494C22.7056 34.3696 23.4703 35.3898 24.25 36.41C25.2704 35.0903 26.2457 33.8306 27.1761 32.6309C28.1064 31.4011 29.0668 30.0664 30.0572 28.6267C30.2072 28.5967 30.4022 28.5818 30.6422 28.5819C31.4822 28.5821 32.1422 28.7773 32.6221 29.1674C33.102 29.5576 33.3418 30.0526 33.3416 30.6526C33.3415 31.1026 33.2364 31.5226 33.0263 31.9126C32.8462 32.2725 32.516 32.7524 32.0359 33.3523C31.2256 34.342 30.3853 35.3318 29.515 36.3215C28.6747 37.3113 27.8495 38.3011 27.0392 39.2908L33.7867 47.9778C33.6965 48.6977 33.4263 49.2677 32.9762 49.6875C32.5261 50.1074 31.956 50.3172 31.266 50.3171C30.606 50.3169 30.0661 50.1367 29.6462 49.7766C29.2563 49.4165 28.8064 48.9213 28.2966 48.2912C27.6069 47.331 26.8872 46.3408 26.1374 45.3206C25.4177 44.2704 24.713 43.2502 24.0233 42.26C23.0329 43.5797 22.0426 44.9144 21.0522 46.2641C20.0618 47.5838 19.1014 48.9186 18.171 50.2683L17.451 50.2681C16.521 50.2678 15.8161 50.0726 15.3362 49.6825C14.8863 49.2924 14.6614 48.8123 14.6616 48.2423C14.6617 47.8523 14.7518 47.4923 14.9319 47.1624C15.112 46.8024 15.4572 46.3225 15.9673 45.7227Z" fill="white"/>
</svg>
