<svg id="Camada_1" data-name="Camada 1" xmlns="http://www.w3.org/2000/svg" viewBox="0 0 50 50"><title>eye</title><path d="M25.16,13.11A22.47,22.47,0,0,1,40,18.69a18.94,18.94,0,0,1,4.57,5.93,1.1,1.1,0,0,1,0,1.12,20.31,20.31,0,0,1-7.91,8.39c-.35.2-.67.28-.92-.09s0-.71.34-.92a20,20,0,0,0,4.85-4,18.6,18.6,0,0,0,2.36-3.4.9.9,0,0,0,0-1,18.92,18.92,0,0,0-9.54-8.6,21.55,21.55,0,0,0-19.46,1A18.5,18.5,0,0,0,6.8,24.71a.9.9,0,0,0,0,1,19.17,19.17,0,0,0,9.8,8.71,21.65,21.65,0,0,0,16.67.13l.26-.11c.37-.12.77-.24,1,.24s-.13.67-.51.84a20.51,20.51,0,0,1-6.66,1.66,22.43,22.43,0,0,1-16.13-4.57,19.31,19.31,0,0,1-5.68-6.9,1,1,0,0,1,0-1.05,20.32,20.32,0,0,1,10.63-9.72A22.84,22.84,0,0,1,25.16,13.11Z"/><path d="M24.59,15.69a9.6,9.6,0,0,1,10,9.49,9.51,9.51,0,1,1-18.11-4c.14-.31.35-.61.52-.92s.45-.75.92-.48.28.73,0,1.09a7.58,7.58,0,0,0-1,2.54,8.36,8.36,0,0,0,15,6.59,8.53,8.53,0,0,0,.19-9.25A8.39,8.39,0,0,0,20,18.52l-.16.13c-.37.26-.76.76-1.18.18s.13-.85.49-1.12A9.11,9.11,0,0,1,24.59,15.69Z"/><path d="M24.59,29.58a4.09,4.09,0,0,1-3.48-2.5,4.09,4.09,0,0,1,.45-4.51,4.19,4.19,0,0,1,4.55-1.63,1.43,1.43,0,0,0,.89,0,1.81,1.81,0,0,1,2.35,2.32,1.43,1.43,0,0,0,0,.89C30,26.94,27.93,29.6,24.59,29.58Zm3.12-5.1a1.77,1.77,0,0,1-1.91-1.92c.05-.48-.14-.55-.51-.59a3.2,3.2,0,0,0-3.41,2.7A3.22,3.22,0,0,0,26.62,28a3,3,0,0,0,1.66-2.82C28.28,24.9,28.45,24.31,27.71,24.48Zm.6-1.86a.68.68,0,0,0-.67-.65.68.68,0,1,0,0,1.35C28,23.32,28.25,23.07,28.31,22.62Z"/></svg>