<svg width="19" height="19" viewBox="0 0 19 19" fill="none" xmlns="http://www.w3.org/2000/svg">
<path d="M1.008 15.696C1.008 15.12 1.14 14.616 1.404 14.184C1.692 13.728 2.172 13.116 2.844 12.348L5.688 9.036L0.9 3.348C1.092 2.436 1.464 1.692 2.016 1.116C2.592 0.539999 3.3 0.251999 4.14 0.251999C4.932 0.251999 5.544 0.443999 5.976 0.827999C6.408 1.212 6.888 1.752 7.416 2.448L9.684 5.472C10.332 4.608 10.98 3.756 11.628 2.916C12.276 2.052 12.924 1.176 13.572 0.288C13.692 0.263999 13.8 0.251999 13.896 0.251999C13.992 0.251999 14.088 0.251999 14.184 0.251999C15.312 0.251999 16.2 0.491999 16.848 0.971999C17.52 1.452 17.856 2.076 17.856 2.844C17.856 3.156 17.82 3.444 17.748 3.708C17.676 3.972 17.556 4.248 17.388 4.536C17.244 4.8 17.028 5.1 16.74 5.436C16.476 5.748 16.152 6.12 15.768 6.552L13.356 9.216L18.108 15.444C17.988 16.356 17.628 17.076 17.028 17.604C16.428 18.132 15.708 18.396 14.868 18.396C13.956 18.372 13.224 18.108 12.672 17.604C12.144 17.1 11.628 16.488 11.124 15.768L9.18 12.996L5.508 18.288C5.388 18.288 5.256 18.288 5.112 18.288C4.968 18.312 4.848 18.324 4.752 18.324C3.528 18.324 2.592 18.072 1.944 17.568C1.32 17.064 1.008 16.44 1.008 15.696Z" fill="#006478"/>
</svg>
