<svg width="804" height="539" viewBox="0 0 804 539" fill="none" xmlns="http://www.w3.org/2000/svg">
<path d="M568.97 514.389C568.97 514.389 576.016 491.102 549.214 477.844L568.97 514.389Z" fill="#92EB9B"/>
<path d="M569.483 513.64C569.483 513.64 572.278 490.658 603.495 489.217L569.483 513.64Z" fill="#92EB9B"/>
<path d="M756.142 524.588C751.185 544.615 490.907 542.934 491.301 524.588C496.258 504.56 756.536 506.242 756.142 524.588Z" fill="#92EB9B"/>
<path d="M89.8701 57.3368C92.1911 57.3368 94.0727 55.4892 94.0727 53.2102C94.0727 50.9311 92.1911 49.0836 89.8701 49.0836C87.549 49.0836 85.6675 50.9311 85.6675 53.2102C85.6675 55.4892 87.549 57.3368 89.8701 57.3368Z" fill="white"/>
<path d="M105.821 57.3368C108.142 57.3368 110.023 55.4892 110.023 53.2102C110.023 50.9311 108.142 49.0836 105.821 49.0836C103.5 49.0836 101.618 50.9311 101.618 53.2102C101.618 55.4892 103.5 57.3368 105.821 57.3368Z" fill="white"/>
<path d="M121.771 57.3368C124.092 57.3368 125.974 55.4892 125.974 53.2102C125.974 50.9311 124.092 49.0836 121.771 49.0836C119.45 49.0836 117.568 50.9311 117.568 53.2102C117.568 55.4892 119.45 57.3368 121.771 57.3368Z" fill="white"/>
<path d="M700.602 422.649C700.602 422.649 697.514 412.37 702.546 415.723C707.579 419.077 722.228 424.112 716.95 432.177C711.672 440.241 680.084 484.817 674.976 475.984C672.14 471.081 682.022 429.486 682.022 429.486C682.022 429.486 689.051 427.891 690.058 429.486C691.065 431.081 700.602 422.649 700.602 422.649Z" fill="#2F2E41"/>
<path d="M655.281 160.32L654.337 177.001L642.065 201.101L682.657 199.247L679.825 174.22L681.713 164.024L655.281 160.32Z" fill="#FFB8B8"/>
<path d="M650.562 189.051C650.562 189.051 657.17 196.466 674.162 188.124L687.378 251.151L689.266 307.692L632.626 305.839L633.57 248.37L650.562 189.051Z" fill="#EFE05A"/>
<path d="M618.899 309.044C618.899 309.044 624.998 338.462 636.399 331.334C647.8 324.207 633.942 303.554 633.942 303.554L618.899 309.044Z" fill="#FFB8B8"/>
<path d="M675.105 467.129L674.161 482.887L689.265 487.522V466.202L675.105 467.129Z" fill="#FFB8B8"/>
<path d="M625.074 302.138V394.83L678.882 440.25L692.096 418.003L654.337 387.415L663.777 364.243L703.424 339.215V303.065L625.074 302.138Z" fill="#2F2E41"/>
<path d="M664.721 359.606L670.385 406.879L672.273 469.905H696.817C696.817 469.905 705.311 414.29 695.873 400.387L703.425 339.219L695.873 315.119L664.721 359.606Z" fill="#2F2E41"/>
<path d="M686.434 481.96C686.434 481.96 687.378 478.252 680.77 478.252C674.162 478.252 671.33 479.179 671.33 480.106C671.108 481.668 670.793 483.215 670.386 484.741C670.386 484.741 653.398 526.452 670.386 524.598C687.374 522.744 690.21 514.404 690.21 514.404L692.098 487.523C692.098 487.523 690.21 485.253 689.266 485.462C688.322 485.67 686.434 481.96 686.434 481.96Z" fill="#2F2E41"/>
<path d="M668.435 174.589C679.904 174.589 689.202 165.459 689.202 154.197C689.202 142.934 679.904 133.804 668.435 133.804C656.965 133.804 647.667 142.934 647.667 154.197C647.667 165.459 656.965 174.589 668.435 174.589Z" fill="#FFB8B8"/>
<path d="M674.162 194.616L667.554 187.201L680.329 171.5L685.489 176.997L715.701 189.974L707.207 271.543C707.207 271.543 706.263 295.642 711.927 312.327C711.927 312.327 699.655 327.157 680.775 323.45L656.232 328.084C656.232 328.084 653.394 208.52 674.162 194.616Z" fill="#C4C4C4"/>
<path d="M653.394 189.982L654.479 174.533L649.619 180.711L624.131 199.25L626.963 302.137L635.457 306.773L649.618 196.475L653.394 189.982Z" fill="#C4C4C4"/>
<path d="M630.738 198.324L624.13 199.251C624.13 199.251 619.41 207.591 619.41 208.52C619.41 209.449 617.522 257.646 617.522 257.646C617.522 257.646 614.218 306.309 619.882 315.579L636.594 297.924L630.738 281.746V198.324Z" fill="#C4C4C4"/>
<path opacity="0.3" d="M669.889 402.73L671.191 433.757L667.265 430.439L669.889 402.73Z" fill="black"/>
<path opacity="0.3" d="M701.272 415.108L699.894 415.778L698.417 457.343L701.83 453.03L701.272 415.108Z" fill="black"/>
<path d="M728.913 313.261C728.913 313.261 724.193 342.926 737.407 340.142C750.621 337.357 744.959 313.261 744.959 313.261H728.913Z" fill="#FFB8B8"/>
<path d="M707.2 189.982H715.694C715.694 189.982 721.358 192.762 722.302 201.105C723.246 209.447 736.462 246.523 736.462 246.523C736.462 246.523 751.566 307.7 750.622 316.042H727.022L728.91 299.361L703.422 232.623L707.2 189.982Z" fill="#C4C4C4"/>
<path d="M652.72 129.608L648.763 128.052C648.763 128.052 657.041 119.103 668.558 119.881L665.318 116.379C665.318 116.379 673.233 113.266 680.435 121.437C684.219 125.732 688.597 130.781 691.326 136.468H695.567L693.797 140.294L699.991 144.12L693.634 143.433C694.014 145.529 694.072 147.67 693.807 149.783C693.534 151.895 692.437 153.821 690.745 155.154C690.745 155.154 685.835 145.175 685.835 143.619V147.509C685.835 147.509 681.878 144.007 681.878 141.673L679.719 144.397L678.639 140.117L665.318 144.397L667.478 140.895L659.2 142.062L662.439 137.782C662.439 137.782 653.081 142.841 652.721 147.12C652.319 150.087 651.261 152.932 649.622 155.455C649.622 155.455 642.282 135.444 652.72 129.608Z" fill="#2F2E41"/>
<path d="M533.77 0.169434H0V476.896H533.77V0.169434Z" fill="#E6E6E6"/>
<path d="M521.222 333.783H17.374V461.732H521.222V333.783Z" fill="white"/>
<path d="M166.984 397.279C166.999 405.929 164.407 414.395 159.529 421.631C158.507 423.157 157.387 424.618 156.175 426.007C153.334 429.277 150.025 432.135 146.348 434.491C145.348 435.135 144.32 435.738 143.265 436.299C137.77 439.252 131.705 441.067 125.452 441.63C124.031 441.764 122.587 441.829 121.129 441.829C117.134 441.832 113.156 441.327 109.297 440.325C107.109 439.767 104.969 439.045 102.896 438.166C101.836 437.721 100.8 437.238 99.7885 436.715C97.3549 435.474 95.043 434.018 92.8817 432.368C91.8762 431.608 90.9067 430.806 89.9734 429.963C84.389 424.935 80.1811 418.635 77.7296 411.632C75.2781 404.628 74.66 397.142 75.9313 389.848C77.2026 382.555 80.3231 375.683 85.0112 369.855C89.6994 364.026 95.8075 359.424 102.784 356.463C109.761 353.502 117.387 352.276 124.974 352.895C132.56 353.514 139.869 355.959 146.239 360.01C152.61 364.06 157.842 369.588 161.464 376.095C165.086 382.602 166.983 389.883 166.984 397.28V397.279Z" fill="#656363"/>
<path d="M123.124 378.642H117.543V420.358H123.124V378.642Z" fill="white"/>
<path d="M141.575 402.24V396.761H99.0904V402.24H141.575Z" fill="white"/>
<path d="M452.783 362.423H180.427V374.342H452.783V362.423Z" fill="#E6E6E6"/>
<path d="M277.534 392.22H180.427V404.139H277.534V392.22Z" fill="#E6E6E6"/>
<path d="M373.884 422.017H180.427V433.936H373.884V422.017Z" fill="#E6E6E6"/>
<path d="M533.77 0.169434H0V21.9681H533.77V0.169434Z" fill="#656363"/>
<path d="M519.292 39.9756H16.4087V167.924H519.292V39.9756Z" fill="white"/>
<path d="M519.292 189.723H16.4087V317.671H519.292V189.723Z" fill="white"/>
<path d="M458.226 68.7026H185.87V80.6216H458.226V68.7026Z" fill="#E6E6E6"/>
<path d="M282.978 98.4996H185.87V110.419H282.978V98.4996Z" fill="#E6E6E6"/>
<path d="M379.327 128.297H185.87V140.216H379.327V128.297Z" fill="#E6E6E6"/>
<path d="M167.599 104.434C167.613 113.106 165.042 121.592 160.203 128.847C159.189 130.376 158.078 131.842 156.876 133.234C154.057 136.513 150.774 139.377 147.127 141.74C146.136 142.385 145.116 142.99 144.069 143.554C138.618 146.514 132.602 148.333 126.399 148.897C124.989 149.032 123.556 149.096 122.109 149.096C118.147 149.1 114.2 148.593 110.371 147.589C108.201 147.029 106.078 146.305 104.021 145.424C102.97 144.979 101.942 144.494 100.939 143.97C98.5245 142.725 96.2311 141.266 94.0871 139.612C93.0895 138.85 92.1277 138.046 91.2017 137.201C85.6596 132.161 81.4833 125.844 79.0496 118.822C76.616 111.8 76.0017 104.294 77.2623 96.9804C78.5229 89.6669 81.6186 82.7768 86.27 76.9322C90.9213 71.0876 96.9819 66.4725 103.904 63.5036C110.827 60.5346 118.394 59.3053 125.921 59.9266C133.449 60.5479 140.7 63.0003 147.021 67.0623C153.342 71.1244 158.533 76.6682 162.125 83.1932C165.717 89.7182 167.598 97.019 167.598 104.436L167.599 104.434Z" fill="#E6E6E6"/>
<path d="M111.086 108.469C111.086 108.469 115.227 119.765 112.01 126.088C108.793 132.41 117.071 139.641 117.071 139.641C117.071 139.641 138.696 128.798 135.935 123.377C133.174 117.955 128.574 110.727 129.493 106.209L111.086 108.469Z" fill="#FFB8B8"/>
<path d="M119.139 112.76C127.27 112.76 133.862 106.288 133.862 98.3034C133.862 90.319 127.27 83.8464 119.139 83.8464C111.007 83.8464 104.416 90.319 104.416 98.3034C104.416 106.288 111.007 112.76 119.139 112.76Z" fill="#FFB8B8"/>
<path d="M110.372 147.586C108.201 147.026 106.078 146.303 104.021 145.422L104.416 134.447L108.556 125.408C109.487 126.124 110.483 126.754 111.531 127.291C111.783 127.426 112.035 127.555 112.314 127.684C116.197 129.526 122.54 131.147 128.689 126.629C130.948 124.902 132.866 122.782 134.346 120.376L145.828 126.764L146.43 133.685L147.129 141.739C146.138 142.384 145.118 142.989 144.071 143.553C138.62 146.513 132.603 148.332 126.401 148.896C124.991 149.031 123.557 149.095 122.111 149.095C118.148 149.099 114.201 148.591 110.372 147.586Z" fill="#026F81"/>
<path d="M113.197 118.646V118.663L112.618 124.564L112.313 127.684L111.865 132.324L110.372 147.586C108.202 147.027 106.079 146.303 104.022 145.422C102.971 144.976 101.943 144.491 100.939 143.967C98.5252 142.723 96.2319 141.264 94.0878 139.61L92.4512 132.189L92.5763 132.106L113.197 118.646Z" fill="#026F81"/>
<path d="M144.068 143.551C138.617 146.511 132.601 148.331 126.398 148.894C126.734 143.404 127.223 138.101 127.778 133.38C128.064 130.957 128.365 128.693 128.685 126.629C129.683 119.995 130.758 115.49 131.529 114.88L136.619 118.178L157.323 125.405L156.875 133.23C154.056 136.508 150.773 139.373 147.126 141.735C146.135 142.383 145.115 142.988 144.068 143.551Z" fill="#026F81"/>
<path d="M94.087 139.61C93.0894 138.847 92.1276 138.044 91.2017 137.199L91.9902 132.19L92.578 132.107L95.2123 131.738L100.941 143.968C98.5269 142.723 96.2336 141.264 94.0896 139.61H94.087Z" fill="#026F81"/>
<path d="M160.204 128.846C159.19 130.376 158.078 131.841 156.877 133.233C154.058 136.512 150.775 139.376 147.128 141.739C146.137 142.384 145.117 142.989 144.07 143.553L143.526 141.224L146.429 133.687L149.966 124.507L157.325 125.414C158.345 126.508 159.306 127.653 160.204 128.846Z" fill="#026F81"/>
<path d="M133.178 85.2283C130.952 81.6787 127.468 79.0628 123.396 77.884L120.405 80.234L121.568 77.4931C120.59 77.3476 119.6 77.2924 118.611 77.3282L115.92 80.7262L117.034 77.4445C114.699 77.7295 112.449 78.4866 110.426 79.6681C108.403 80.8495 106.652 82.4297 105.282 84.3089C101.857 89.159 101.278 95.9039 104.648 100.792C105.572 98.0007 106.695 95.3819 107.621 92.5908C108.348 92.6882 109.084 92.6918 109.812 92.6015L110.938 90.0231L111.252 92.4919C114.739 92.1934 119.913 91.5387 123.219 90.9384L122.897 89.0419L124.821 90.616C125.834 90.3868 126.436 90.179 126.386 90.0207C128.844 93.9134 131.281 96.3994 133.74 100.292C134.671 94.8039 136.319 90.2375 133.178 85.2283Z" fill="#2F2E41"/>
<path d="M132.363 99.8073C132.913 99.8073 133.36 98.9309 133.36 97.8498C133.36 96.7687 132.913 95.8923 132.363 95.8923C131.812 95.8923 131.366 96.7687 131.366 97.8498C131.366 98.9309 131.812 99.8073 132.363 99.8073Z" fill="#FFB8B8"/>
<path d="M140.986 266.46H134.572V314.409H140.986V266.46Z" fill="white"/>
<path d="M162.195 293.584V287.286H113.362V293.584H162.195Z" fill="white"/>
<path d="M451.398 217.689H179.042V229.608H451.398V217.689Z" fill="#E6E6E6"/>
<path d="M276.15 247.486H179.042V259.405H276.15V247.486Z" fill="#E6E6E6"/>
<path d="M372.499 277.283H179.042V289.202H372.499V277.283Z" fill="#E6E6E6"/>
<path d="M168.3 251.421C168.303 258.506 166.635 265.496 163.427 271.842C160.22 278.188 155.559 283.719 149.811 288.001C148.978 288.624 148.125 289.22 147.251 289.79C147.027 289.936 146.803 290.077 146.579 290.211C145.765 290.724 144.938 291.201 144.099 291.652C143.763 291.835 143.428 292.012 143.092 292.183C143.024 292.219 142.961 292.249 142.893 292.28C142.463 292.499 142.035 292.714 141.6 292.915C139.698 293.808 137.736 294.57 135.727 295.197C132.543 296.192 129.259 296.847 125.932 297.15C124.477 297.284 123.006 297.351 121.519 297.351C117.444 297.355 113.386 296.834 109.45 295.801C107.429 295.28 105.448 294.621 103.52 293.829C103.321 293.747 103.116 293.664 102.917 293.582C101.973 293.179 101.047 292.746 100.139 292.282L99.748 292.081C98.7599 291.575 97.7945 291.034 96.8517 290.458C95.4163 289.58 94.0304 288.626 92.7 287.601C92.0226 287.089 91.3637 286.552 90.7232 285.99C90.3873 285.71 90.0582 285.413 89.7348 285.124C88.478 283.978 87.285 282.767 86.1609 281.496C85.7133 280.989 85.2783 280.476 84.8559 279.951C80.219 274.206 77.0496 267.455 75.6126 260.262C74.1756 253.069 74.5127 245.642 76.5958 238.603C78.6788 231.563 82.4473 225.116 87.5863 219.799C92.7254 214.482 99.0857 210.45 106.136 208.039C113.186 205.629 120.722 204.91 128.113 205.943C135.503 206.976 142.535 209.731 148.62 213.978C154.705 218.224 159.667 223.839 163.091 230.353C166.515 236.867 168.301 244.091 168.301 251.421H168.3Z" fill="#E6E6E6"/>
<path d="M136.118 272.001C139.991 272.001 143.13 268.919 143.13 265.117C143.13 261.314 139.991 258.232 136.118 258.232C132.246 258.232 129.107 261.314 129.107 265.117C129.107 268.919 132.246 272.001 136.118 272.001Z" fill="#2F2E41"/>
<path d="M138.072 258.422C139.285 258.422 140.478 258.731 141.533 259.319C142.588 259.908 143.47 260.755 144.092 261.778C144.714 262.801 145.055 263.965 145.082 265.156C145.108 266.347 144.82 267.525 144.244 268.574C144.851 267.827 145.294 266.964 145.543 266.04C145.793 265.116 145.843 264.151 145.692 263.207C145.54 262.263 145.19 261.36 144.664 260.556C144.138 259.752 143.446 259.064 142.634 258.537C141.823 258.01 140.908 257.654 139.948 257.493C138.988 257.332 138.005 257.369 137.061 257.602C136.117 257.835 135.232 258.258 134.464 258.845C133.696 259.432 133.06 260.17 132.598 261.011C133.254 260.203 134.086 259.551 135.034 259.102C135.982 258.654 137.02 258.421 138.072 258.422H138.072Z" fill="#2F2E41"/>
<path d="M123.017 265.102C134.391 265.102 143.612 256.048 143.612 244.879C143.612 233.71 134.391 224.656 123.017 224.656C111.642 224.656 102.421 233.71 102.421 244.879C102.421 256.048 111.642 265.102 123.017 265.102Z" fill="#2F2E41"/>
<path d="M106.852 232.331C110.401 228.412 115.362 226.001 120.687 225.605C126.012 225.209 131.286 226.861 135.395 230.21C135.227 230.053 135.059 229.895 134.885 229.742C132.866 227.966 130.509 226.598 127.95 225.718C125.391 224.839 122.681 224.463 119.974 224.615C117.267 224.766 114.617 225.44 112.176 226.599C109.735 227.758 107.552 229.379 105.75 231.369C103.949 233.358 102.565 235.678 101.679 238.194C100.793 240.71 100.421 243.373 100.585 246.03C100.749 248.687 101.446 251.287 102.636 253.679C103.826 256.071 105.485 258.209 107.518 259.97C107.693 260.123 107.872 260.267 108.051 260.413C104.182 256.799 101.894 251.85 101.67 246.61C101.447 241.371 103.305 236.251 106.853 232.331H106.852Z" fill="#2F2E41"/>
<path d="M122.842 264.93C130.168 264.93 136.106 259.099 136.106 251.905C136.106 244.712 130.168 238.881 122.842 238.881C115.516 238.881 109.577 244.712 109.577 251.905C109.577 259.099 115.516 264.93 122.842 264.93Z" fill="#A0616A"/>
<path d="M113.417 256.019C113.417 256.019 115.162 271.786 112.37 273.5C109.577 275.213 128.427 277.613 128.427 277.613C128.427 277.613 125.634 260.474 132.616 256.018L113.417 256.019Z" fill="#A0616A"/>
<path d="M146.578 285.841V290.82C145.764 291.333 144.937 291.81 144.098 292.261C143.763 292.444 143.427 292.621 143.091 292.792V292.889H142.892C142.463 293.109 142.034 293.322 141.599 293.524C139.697 294.417 137.734 295.18 135.725 295.807C132.542 296.802 129.258 297.456 125.931 297.759C124.475 297.893 123.004 297.96 121.518 297.96C117.443 297.964 113.385 297.443 109.448 296.41C107.427 295.889 105.446 295.23 103.518 294.439C103.319 294.356 103.115 294.274 102.916 294.191C101.971 293.788 101.045 293.355 100.138 292.892L99.7463 292.691C98.7582 292.184 97.7928 291.643 96.85 291.067C95.4147 290.189 94.0287 289.236 92.6983 288.211C92.0209 287.698 91.362 287.161 90.7215 286.6C90.3856 286.318 90.0564 286.022 89.7331 285.733C88.4763 284.588 87.2832 283.377 86.1592 282.105C86.3071 281.07 86.5525 280.05 86.8923 279.06L86.899 279.054C86.9942 278.795 87.1064 278.542 87.2349 278.297C88.7389 275.532 91.4546 274.849 94.8363 274.703C96.7383 274.62 98.8452 274.709 101.076 274.685C102.252 274.679 103.463 274.636 104.687 274.526C112.369 273.843 110.971 269.388 111.321 266.989C111.663 264.664 113.795 266.678 113.938 266.812L113.944 266.818C118.292 268.817 123.102 269.647 127.884 269.222H127.89C128.708 269.119 129.532 269.058 130.357 269.039C132.52 269.014 132.047 269.624 131.307 270.125C130.943 270.359 130.563 270.569 130.17 270.753C130.17 270.753 129.823 272.81 129.474 275.898C129.138 278.851 134.9 280.237 135.379 280.34C135.388 280.347 135.398 280.352 135.41 280.353C137.514 279.816 139.731 279.871 141.805 280.511C142.989 280.939 144.046 281.65 144.879 282.581C145.713 283.511 146.297 284.631 146.578 285.839V285.841Z" fill="#EFE05A"/>
<path d="M103.601 292.889C103.582 293.445 103.551 293.961 103.517 294.439C103.318 294.357 103.113 294.275 102.914 294.192C101.969 293.789 101.043 293.356 100.136 292.893L99.7444 292.691C98.7563 292.185 97.7909 291.644 96.8481 291.068C96.8766 290.581 96.9305 290.097 97.0094 289.616C97.7639 284.544 97.0086 279.367 94.8344 274.707C94.6665 274.371 94.5674 274.188 94.5674 274.188C94.5674 274.188 97.0102 272.132 100.497 274.188C100.717 274.322 100.912 274.491 101.075 274.689C103.389 277.376 103.842 287.068 103.601 292.889Z" fill="#2F2E41"/>
<path d="M141.63 292.889C141.625 293.097 141.612 293.311 141.599 293.524C139.697 294.417 137.735 295.179 135.726 295.807L135.608 292.889L135.16 281.307C135.142 280.972 135.217 280.639 135.378 280.343C135.538 280.036 135.781 279.778 136.081 279.599C136.381 279.419 136.726 279.325 137.077 279.325H141.341C141.552 279.325 141.701 279.747 141.801 280.509C142.072 282.631 141.941 287.373 141.63 292.889Z" fill="#2F2E41"/>
<path d="M111.497 235.625V248.653H114.569L118.478 244.54L117.955 248.653H131.533L130.694 244.54L132.373 248.653H134.538V235.625H111.497Z" fill="#2F2E41"/>
<path d="M109.403 251.049C109.981 251.049 110.45 250.205 110.45 249.164C110.45 248.123 109.981 247.279 109.403 247.279C108.824 247.279 108.355 248.123 108.355 249.164C108.355 250.205 108.824 251.049 109.403 251.049Z" fill="#A0616A"/>
<path d="M136.282 251.049C136.86 251.049 137.329 250.205 137.329 249.164C137.329 248.123 136.86 247.279 136.282 247.279C135.704 247.279 135.235 248.123 135.235 249.164C135.235 250.205 135.704 251.049 136.282 251.049Z" fill="#A0616A"/>
<path d="M149.81 288.612C148.976 289.234 148.123 289.83 147.249 290.4C147.025 290.547 146.801 290.687 146.577 290.821C145.763 291.334 144.936 291.811 144.098 292.262C143.762 292.445 143.426 292.622 143.09 292.793V283.096C143.09 283.096 144.439 284.151 146.577 285.909C147.516 286.684 148.61 287.599 149.81 288.612Z" fill="#EFE05A"/>
<path d="M40.5773 17.1345C42.9586 17.1345 44.889 15.239 44.889 12.9008C44.889 10.5626 42.9586 8.66711 40.5773 8.66711C38.196 8.66711 36.2656 10.5626 36.2656 12.9008C36.2656 15.239 38.196 17.1345 40.5773 17.1345Z" fill="white"/>
<path d="M56.9435 17.1345C59.3248 17.1345 61.2552 15.239 61.2552 12.9008C61.2552 10.5626 59.3248 8.66711 56.9435 8.66711C54.5622 8.66711 52.6318 10.5626 52.6318 12.9008C52.6318 15.239 54.5622 17.1345 56.9435 17.1345Z" fill="white"/>
<path d="M24.1681 17.1345C26.5494 17.1345 28.4798 15.239 28.4798 12.9008C28.4798 10.5626 26.5494 8.66711 24.1681 8.66711C21.7868 8.66711 19.8564 10.5626 19.8564 12.9008C19.8564 15.239 21.7868 17.1345 24.1681 17.1345Z" fill="white"/>
<path d="M803.619 339.098H664.626V418.711H803.619V339.098Z" fill="#3F3D56"/>
<path d="M706.66 404.057C706.634 404.062 706.609 404.067 706.584 404.071C705.98 404.179 705.371 404.274 704.752 404.339C704.544 404.363 704.33 404.381 704.122 404.399C703.907 404.417 703.699 404.434 703.485 404.446C703.136 404.47 702.781 404.482 702.426 404.488C702.272 404.494 702.113 404.494 701.96 404.494H701.868C701.679 404.494 701.489 404.494 701.299 404.488C701.134 404.482 700.968 404.476 700.809 404.47C700.717 404.47 700.625 404.464 700.54 404.458C696.658 404.254 692.874 403.192 689.472 401.354C686.071 399.515 683.14 396.947 680.901 393.843C678.662 390.739 677.173 387.179 676.546 383.432C675.919 379.684 676.169 375.847 677.279 372.208C678.389 368.569 680.33 365.223 682.954 362.422C685.579 359.621 688.82 357.438 692.433 356.036C696.046 354.635 699.938 354.052 703.815 354.331C707.692 354.61 711.454 355.744 714.818 357.647C710.918 359.854 707.68 363.023 705.43 366.837C703.179 370.652 701.994 374.976 701.994 379.379C701.994 383.781 703.179 388.106 705.43 391.92C707.68 395.734 710.918 398.903 714.818 401.11C712.291 402.54 709.531 403.536 706.66 404.057Z" fill="#006478"/>
<path d="M744.603 399.035C745.561 399.801 746.574 400.495 747.636 401.11C743.828 403.327 739.503 404.495 735.099 404.494H734.777C730.942 404.45 727.168 403.525 723.746 401.791C720.323 400.056 717.344 397.558 715.036 394.489C712.729 391.42 711.155 387.862 710.436 384.088C709.717 380.314 709.872 376.425 710.889 372.721C711.906 369.016 713.757 365.594 716.302 362.719C718.846 359.844 722.014 357.592 725.564 356.136C729.113 354.68 732.948 354.059 736.775 354.321C740.601 354.583 744.317 355.721 747.636 357.647C744.094 359.69 741.106 362.571 738.932 366.038C736.759 369.505 735.466 373.453 735.166 377.536C734.867 381.619 735.571 385.713 737.216 389.461C738.861 393.208 741.397 396.495 744.603 399.035Z" fill="#006478"/>
<path d="M793.001 379.379C793.001 384.346 791.53 389.202 788.772 393.332C786.014 397.462 782.095 400.682 777.509 402.582C772.924 404.483 767.878 404.981 763.01 404.012C758.141 403.043 753.67 400.651 750.16 397.138C746.65 393.626 744.26 389.15 743.292 384.278C742.323 379.406 742.82 374.356 744.72 369.767C746.619 365.178 749.836 361.255 753.963 358.495C758.09 355.736 762.942 354.263 767.905 354.263C771.201 354.262 774.465 354.912 777.51 356.174C780.555 357.436 783.321 359.286 785.652 361.618C787.982 363.951 789.831 366.719 791.092 369.767C792.353 372.814 793.002 376.08 793.001 379.379Z" fill="#006478"/>
<path d="M777.558 399.066C777.559 400.213 777.445 401.357 777.218 402.48C774.119 403.809 770.788 404.494 767.423 404.494C764.057 404.494 760.726 403.809 757.628 402.48C757.401 401.357 757.287 400.213 757.288 399.066C757.288 393.108 760.287 388.072 764.418 386.39C762.769 385.688 761.41 384.43 760.573 382.83C759.736 381.23 759.472 379.387 759.826 377.612C760.179 375.838 761.129 374.242 762.514 373.095C763.899 371.949 765.633 371.322 767.423 371.322C769.212 371.322 770.946 371.949 772.331 373.095C773.716 374.242 774.666 375.838 775.02 377.612C775.374 379.387 775.11 381.23 774.273 382.83C773.436 384.43 772.077 385.688 770.427 386.39C774.559 388.072 777.558 393.108 777.558 399.066Z" fill="white"/>
<path d="M744.74 398.988V399.066C744.652 400.488 744.443 401.9 744.115 403.288C741.061 404.542 737.976 404.452 734.46 404.494H734.122C730.596 404.498 727.106 403.813 723.861 402.48C723.836 402.376 723.817 402.272 723.805 402.166C723.602 401.144 723.502 400.106 723.505 399.066C723.505 393.107 726.646 388.071 730.975 386.388C729.247 385.687 727.823 384.429 726.946 382.829C726.069 381.23 725.793 379.386 726.164 377.611C726.534 375.837 727.53 374.241 728.98 373.095C730.431 371.948 732.248 371.322 734.122 371.322C734.758 371.321 735.391 371.394 736.009 371.54C734.413 376.43 734.393 381.674 735.952 386.575C737.511 391.477 740.576 395.806 744.74 398.988H744.74Z" fill="white"/>
<path d="M711.922 399.416C711.909 400.445 711.799 401.471 711.594 402.48C709.365 403.439 707.01 404.064 704.603 404.337C704.4 404.362 704.191 404.38 703.989 404.398C703.78 404.416 703.577 404.434 703.368 404.446C703.028 404.47 702.682 404.482 702.336 404.488C702.265 404.494 702.187 404.494 702.116 404.494H701.793C701.609 404.494 701.424 404.494 701.239 404.488C701.078 404.482 700.917 404.476 700.761 404.47C700.672 404.47 700.583 404.464 700.499 404.458C697.57 404.312 694.69 403.642 691.993 402.48C691.988 402.466 691.986 402.452 691.987 402.438C691.965 402.348 691.949 402.258 691.939 402.166C691.746 401.145 691.65 400.106 691.653 399.066C691.653 393.107 694.653 388.071 698.787 386.388C697.137 385.687 695.777 384.429 694.94 382.829C694.102 381.229 693.838 379.386 694.192 377.611C694.546 375.837 695.497 374.241 696.882 373.095C698.268 371.948 700.003 371.322 701.793 371.322C702.223 371.322 702.652 371.358 703.076 371.431C701.487 376.446 701.485 381.838 703.071 386.854C704.657 391.871 707.751 396.262 711.922 399.416H711.922Z" fill="white"/>
</svg>
