<svg id="Camada_1" data-name="Camada 1" xmlns="http://www.w3.org/2000/svg" viewBox="0 0 42.2 42.73"><defs><style>.cls-1{fill:none;}.cls-2{fill:#c54940;}.cls-3{fill:#4b72b2;}.cls-4{fill:#e6b42d;}.cls-5{fill:#d4c04d;}.cls-6{fill:#c95b2b;}.cls-7{fill:#3c9953;}.cls-8{fill:#dbc251;}</style></defs><title>google</title><rect class="cls-1" x="8.75" y="8.04" width="25" height="25"/><path class="cls-2" d="M6.36,15.72l2.32-3.46A13.36,13.36,0,0,1,10,10.78,21.17,21.17,0,0,1,20.65,5,20.76,20.76,0,0,1,39,9.55c.39.33.46.55.06.95Q36.52,13,34,15.6c-.43.44-.69.28-1.07,0-4.21-3.57-11-3.66-15.09-.23a17.85,17.85,0,0,0-3.46,3.8,17.41,17.41,0,0,0-1.1,2,1.64,1.64,0,0,1-1.07-.35c-1.94-1.42-3.68-3.09-5.67-4.44a.73.73,0,0,1-.25-.32A.33.33,0,0,1,6.36,15.72Z" transform="translate(-3.75 -4.46)"/><path class="cls-3" d="M33,36.4a5.72,5.72,0,0,0,1.62-1.48c.25-.48.65-.87.89-1.36.13-.84.86-1.43.9-2.32s0-.91-.79-.92c-1.09,0-2.17-.12-3.26-.1-1.56,0-3.11,0-4.66,0a6,6,0,0,0-1.46.11,1,1,0,0,1-1-.26c0-2.49,0-5,0-7.47,0-.89.16-1.05,1-1.08,1.7-.07,3.39.09,5.09.08H44.36c1,0,1.22.19,1.35,1.21.17,1.3.07,2.61.25,3.91a3.63,3.63,0,0,1-.08,1,22.45,22.45,0,0,1-.2,2.46A23.8,23.8,0,0,1,44,35.85a21.22,21.22,0,0,1-1.67,3,14.78,14.78,0,0,1-2.21,2.77,1.26,1.26,0,0,1-.73.48,7.86,7.86,0,0,1-2.57-1.8c-1-.82-2.13-1.6-3.16-2.43-.37-.31-.8-.57-.94-1.09C32.72,36.57,32.86,36.48,33,36.4Z" transform="translate(-3.75 -4.46)"/><path class="cls-4" d="M13.22,21.49a17.19,17.19,0,0,0-.59,6.65c.48,1.45,0,2.39-1.33,3.17-1.49.9-2.74,2.17-4.14,3.21-.89.66-1,.73-1.6-.13a2.21,2.21,0,0,1-.37-.81A6.86,6.86,0,0,0,4.41,31a20.09,20.09,0,0,1-.55-7.41,23.22,23.22,0,0,1,1.88-6.86A.86.86,0,0,1,6,16.36c.34-.22.54,0,.78.21,1.84,1.31,3.57,2.74,5.35,4.12C12.46,21,12.88,21.18,13.22,21.49Z" transform="translate(-3.75 -4.46)"/><path class="cls-5" d="M6.18,35.52a3.34,3.34,0,0,1-.51-1.25c.63.74.56.64,1.44,0,1.56-1.09,2.89-2.48,4.52-3.47a1.68,1.68,0,0,0,1-1.85,3.76,3.76,0,0,1,0-.82c.37.56.32,1.26.64,1.84a.16.16,0,0,1,.05.14s0,.07,0,.07c-1.54,1-2.88,2.24-4.35,3.32C8,34.18,7.13,34.9,6.18,35.52Z" transform="translate(-3.75 -4.46)"/><path class="cls-6" d="M6.19,16.36c0-.14,0-.28.14-.36,2,1.3,3.74,2.89,5.59,4.36.42.34.93.51,1.37.81l-.07.32c-.77,0-1.15-.66-1.67-1C9.73,19.13,8,17.73,6.19,16.36Z" transform="translate(-3.75 -4.46)"/><path class="cls-7" d="M30.65,46.58a21.87,21.87,0,0,1-15.66-2c-.12-.07-.25-.11-.37-.17A42.33,42.33,0,0,1,11,41.78L8.37,39C7.66,37.9,7,36.81,6.26,35.72l-.08-.2a10.65,10.65,0,0,1,2.15-1.81c1.4-1.07,2.79-2.16,4.18-3.24.22-.16.41-.38.72-.3a9.23,9.23,0,0,0,1.33,2.64,12.07,12.07,0,0,0,9.06,5.87,7.76,7.76,0,0,0,3,.1,13.22,13.22,0,0,0,6.21-2.07,10,10,0,0,0,2.34,2C36.5,39.86,38,40.91,39.36,42a23.37,23.37,0,0,1-2.8,2.25" transform="translate(-3.75 -4.46)"/><path class="cls-8" d="M5.37,33.62A7.9,7.9,0,0,1,4.54,31c.22.08.46.24.45.43C4.92,32.19,5.49,32.85,5.37,33.62Z" transform="translate(-3.75 -4.46)"/></svg>