<svg width="39" height="25" viewBox="0 0 39 25" fill="none" xmlns="http://www.w3.org/2000/svg">
<path d="M33.449 10.8053C34.5815 10.0094 35.3315 8.68556 35.3315 7.19332C35.3315 4.75219 33.3571 2.77785 30.916 2.77785C28.4749 2.77785 26.5005 4.75219 26.5005 7.19332C26.5005 8.68556 27.2428 10.0094 28.383 10.8053C27.4112 11.142 26.5235 11.6624 25.7735 12.3358C24.7404 11.4558 23.5237 10.7823 22.1922 10.3844C23.8068 9.40489 24.8935 7.62186 24.8935 5.59396C24.8935 2.50236 22.3911 0 19.2995 0C16.2079 0 13.7056 2.51001 13.7056 5.59396C13.7056 7.62186 14.7846 9.40489 16.4069 10.3844C15.0907 10.7823 13.8892 11.4481 12.8638 12.3128C12.1139 11.6547 11.2415 11.142 10.2849 10.8129C11.4175 10.0171 12.1674 8.69321 12.1674 7.20098C12.1674 4.75984 10.1931 2.7855 7.75196 2.7855C5.31082 2.7855 3.33648 4.75984 3.33648 7.20098C3.33648 8.69321 4.07877 10.0171 5.21899 10.8129C2.18095 11.8613 0 14.7463 0 18.1364V18.6414C0 18.6567 0.0153049 18.672 0.0306099 18.672H9.38958C9.33602 19.0929 9.30541 19.5291 9.30541 19.9653V20.4857C9.30541 22.7355 11.1267 24.5568 13.3765 24.5568H25.2379C27.4877 24.5568 29.309 22.7355 29.309 20.4857V19.9653C29.309 19.5291 29.2784 19.0929 29.2248 18.672H38.645C38.6603 18.672 38.6756 18.6567 38.6756 18.6414V18.1364C38.6603 14.7387 36.487 11.8537 33.449 10.8053ZM27.7249 7.18567C27.7249 5.4256 29.1559 3.99459 30.916 3.99459C32.6761 3.99459 34.1071 5.4256 34.1071 7.18567C34.1071 8.92278 32.7067 10.3385 30.9772 10.3768C30.9543 10.3768 30.9389 10.3768 30.916 10.3768C30.893 10.3768 30.8777 10.3768 30.8548 10.3768C29.1177 10.3461 27.7249 8.93044 27.7249 7.18567ZM14.9147 5.59396C14.9147 3.18343 16.8737 1.2244 19.2842 1.2244C21.6948 1.2244 23.6538 3.18343 23.6538 5.59396C23.6538 7.92031 21.8249 9.82578 19.5368 9.95587C19.4526 9.95587 19.3684 9.95587 19.2842 9.95587C19.2001 9.95587 19.1159 9.95587 19.0317 9.95587C16.7436 9.82578 14.9147 7.92031 14.9147 5.59396ZM4.53792 7.18567C4.53792 5.4256 5.96893 3.99459 7.729 3.99459C9.48907 3.99459 10.9201 5.4256 10.9201 7.18567C10.9201 8.92278 9.51968 10.3385 7.79022 10.3768C7.76726 10.3768 7.75196 10.3768 7.729 10.3768C7.70604 10.3768 7.69073 10.3768 7.66778 10.3768C5.93832 10.3461 4.53792 8.93044 4.53792 7.18567ZM9.60385 17.44H1.2397C1.58406 14.18 4.33895 11.6241 7.68308 11.6011C7.69839 11.6011 7.71369 11.6011 7.729 11.6011C7.7443 11.6011 7.75961 11.6011 7.77491 11.6011C9.36663 11.6088 10.8206 12.198 11.9455 13.1546C10.8436 14.3484 10.0247 15.8177 9.60385 17.44ZM28.0693 20.4857C28.0693 22.0544 26.7913 23.3324 25.2226 23.3324H13.3612C11.7925 23.3324 10.5145 22.0544 10.5145 20.4857V19.9653C10.5145 15.2131 14.3101 11.3257 19.0317 11.1879C19.1159 11.1956 19.2077 11.1956 19.2919 11.1956C19.3761 11.1956 19.4679 11.1956 19.5521 11.1879C24.2736 11.3257 28.0693 15.2131 28.0693 19.9653V20.4857ZM28.9799 17.44C28.559 15.8253 27.7555 14.379 26.6612 13.1852C27.7938 12.2057 29.2631 11.6165 30.8701 11.6011C30.8854 11.6011 30.9007 11.6011 30.916 11.6011C30.9313 11.6011 30.9466 11.6011 30.9619 11.6011C34.306 11.6241 37.0609 14.18 37.4053 17.44H28.9799Z" fill="#006478"/>
</svg>
