<?xml version="1.0" encoding="utf-8"?>
<!-- Generator: Adobe Illustrator 23.0.3, SVG Export Plug-In . SVG Version: 6.00 Build 0)  -->
<svg version="1.1" id="Camada_1" xmlns="http://www.w3.org/2000/svg" xmlns:xlink="http://www.w3.org/1999/xlink" x="0px" y="0px"
	 viewBox="0 0 110 55" style="enable-background:new 0 0 110 55;" xml:space="preserve">
<style type="text/css">
	.st0{fill:#006478;}
	.st1{fill:#26DE6F;}
	.st2{fill:#036579;}
	.st3{fill:#026F81;}
	.st4{fill:#05667A;}
	.st5{fill:#2EDF74;}
	.st6{fill:#2FDF75;}
	.st7{fill:#30E075;}
	.st8{fill:#116E81;}
	.st9{fill:#27DE6F;}
	.st10{fill:#016478;}
	.st11{fill:#28DE70;}
</style>
<title>logo</title>
<path class="st0" d="M70,32.2c-3.9,1.5-7.4,3.2-11.2,4.2c-1.2,0.3-2.4,0.7-3.7,0.9c-2.1,0.4-3.3-0.4-4.7-2.2c-1.8-2.5-1.8-5.5-3.2-8
	c-0.3-0.5-0.7-1.1-0.1-1.6c0.5-0.4,1.3-0.5,1.9-0.2c1.3,0.7,2.6,1.5,3.7,2.5c1.7,1.3,3,1.5,5.2,0.5c9.1-4.1,18-8.6,27-12.9
	c2.6-1.3,4.7-0.3,6.8,1s1.9,2,0,3.2c-3.1,1.9-6.1,3.8-9.2,5.6c-1.9,1-3.4,2.7-4.3,4.7c-1.7,4-3.3,8-5,12.1c-0.7,1.8-1.8,3.4-3.1,4.8
	c-0.5,0.4-1,1.1-1.7,0.8s-0.4-1.2-0.4-1.8c0.6-4,1.2-7.9,1.8-11.9C69.8,33.4,69.9,32.9,70,32.2z"/>
<path class="st1" d="M15.4,15.7c-2.2,0.7-3.9,1.3-5.7,1.8c-0.9,0.3-1.7,0.3-2.1-0.7s0.3-1.8,1.3-2c2.8-0.8,5.7-1.5,8.5-2.1
	c1.5-0.3,2.2,0.2,2,2c-0.4,4.2-0.7,8.5,0.1,12.7c0.1,0.4-4.8,4.8-5.1,4.6c-0.9-0.5-2.3-1.2-0.8-2.3c3.5-2.5,2.9-6,2.7-9.9
	c-1.1,1.7-2,3-2.9,4.3c-0.7,1.1-1.7,2.1-2.8,2.9c-2,1.3-4.2,1.8-6.4,0.8s-2.7-3.2-2.7-5.3C1.3,16.3,4.1,10.5,8.9,6.8
	c1.5-1.4,3.5-2.1,5.6-1.8c1.3,0.1,2.3,1.2,2.2,2.6c0,0.3-0.1,0.6-0.2,0.8c-0.5,1.1-1.4,1.2-1.8,0.1c-0.5-1.8-1.5-1.2-2.5-0.8
	c-4.5,2-8.8,10.1-8,15c0.4,2.8,2.5,3.6,5,1.9C12.3,22.6,13.6,19.3,15.4,15.7z"/>
<path class="st2" d="M80.9,37c1.2-0.8,1.8-2.3,3.2-2.8c1.8-0.7,2.9-0.1,3.7,1.4c0.4,0.6,0.2,1.4-0.4,1.8c-0.5,0.4-1,0.8-1.5,0.2
	c-1.3-1.5-2-0.4-2.6,0.7c-1.4,2.4-2.9,4.7-2.2,7.7c0.3,1.1,0,2.2-1.2,2.3c-1.4,0.1-1.4-1.2-1.5-2.1c-0.1-2.9-0.2-5.8-0.2-8.8
	c0-1-0.7-2.6,1.1-2.9C81.2,34,80.4,35.9,80.9,37z"/>
<path class="st3" d="M71.4,20.4c-2.3,1.7-4.9,2.4-7.3,3.7c-0.5,0.3-1.2,0.2-1.6-0.3c-1.5-1.2-3-2.4-4.5-3.7c-0.5-0.5-1.3-1-0.8-1.9
	c0.3-0.7,1.1-0.6,1.8-0.6c2.8,0,5.4,1.1,8.1,1.6C68.5,19.5,69.8,20,71.4,20.4z"/>
<path class="st4" d="M91.6,40.4c0.1,2-0.1,4,0.5,6c0.3,0.7,0,1.6-0.7,1.9c-0.1,0-0.2,0.1-0.3,0.1c-1.1,0.3-1.5-0.6-1.5-1.5
	c-0.3-3.8-0.5-7.7-0.7-11.5c0-0.8,0.1-1.5,1.2-1.6s1.3,0.6,1.5,1.4C91.8,36.9,91.8,38.6,91.6,40.4z"/>
<path class="st5" d="M14.1,35.3c1.1,0.8,2.2,1.7,3.2,2.7c0.2,0.8-0.2,1.6-1,1.8c-0.1,0-0.1,0-0.2,0c-0.9,0-3.9-2.3-3.8-3.1
	C12.4,35.7,13.4,35.8,14.1,35.3z"/>
<path class="st6" d="M45,34.5c-1.1,1.7-2.8,1.5-4.2,1.9c-1.1,0.3-1.2-1-1.1-1.5c0.6-2,2.6-1.5,4-2C44.7,32.6,44.2,34.2,45,34.5z"/>
<path class="st7" d="M23.8,40.4c-1.2,0-2.6,0.5-2.5-1.2c0.2-2.5,2.4-1.1,3.6-1.6s1.4,0.6,1.4,1.3C26.3,41.3,24.3,39.6,23.8,40.4z"/>
<path class="st7" d="M34.1,35.7c1.6-0.3,1.6,1,1.5,1.5c-0.4,1.8-2.3,1.2-3.5,1.6s-1.7-0.4-1.5-1.4C31.1,35.4,33.1,36.4,34.1,35.7z"
	/>
<path class="st8" d="M90.1,31.9C89,31.8,88,31.5,88,30.1c0-0.7,0.5-1.3,1.2-1.4c0.1,0,0.2,0,0.3,0c1.1,0.2,2,1.1,2.1,2.2
	C91.7,32,90.8,31.9,90.1,31.9z"/>
<path class="st9" d="M53.9,21.2c-0.5-5.3-0.6-10.6-0.3-15.9c0-1-0.1-2-1.2-2s-1.5,1.1-1.4,2.1c0.1,2.3,0,4-2.6,5.3
	c-3.2,1.6-4.5,5.2-6,8.4v-0.1c0,0.3,0,0.7,0,1c0.1,1.8,0.3,3.7,2.4,4.3s3.3-0.8,4.3-2.3c0.7-1.1,1.3-2.2,2.2-3.6
	c0,1.2-0.1,2.1,0,2.9s-0.5,2.4,1.3,2.4C54.1,23.6,54,22.3,53.9,21.2z M50.2,14.3c-0.9,2.3-1.7,4.7-3.5,6.6c-0.3,0.3-0.8,0.8-1.3,0.4
	c-0.3-0.3-0.4-0.7-0.4-1.1c0.5-2.6,1.8-4.9,3.7-6.7c0.1-0.1,0.3-0.2,0.4-0.3C49.4,13.7,50.5,13.5,50.2,14.3L50.2,14.3z"/>
<path class="st10" d="M104.8,37.7c-2.9-1.8-6.1-2.9-9.4-3.2c-1.4,0-1.4,0-1.6,0.6c-0.2,0.6,0,1.4,0.5,1.8c2,1.7,2,4.2,0.1,6.3
	c-0.6,0.6-0.8,1.7-0.2,2c2,1,1.2,2.8,1.5,4.3c0.2,1.3-0.8,3.5,1.4,3.4s1.2-2.2,1.1-3.5c-0.2-2.4,0-4.2,3.2-4.1c1-0.1,2-0.4,2.9-0.9
	c1.4-0.4,2.4-1.6,2.6-3.1C107,39.7,106.2,38.3,104.8,37.7z M99.4,43c-2.2,0.2-0.5-1.8-1.3-2.6c0.8-0.8-0.9-2.8,1.2-2.6
	c1.9,0.2,4.8,0.8,4.8,2.8C104.1,42.8,101.1,42.9,99.4,43z"/>
<path class="st11" d="M38.9,12.8c-2.4-2.5-4.1-2.1-5.5,0.2c-1.2,2.1-2,4.5-2.1,6.9c-0.2,2.8,1.5,4.4,4.3,4.4c3.6,0,5.2-2.5,6.7-5.2
	v0.1C42.8,16.2,40.6,14.5,38.9,12.8z M39.1,19.3c-0.5,1.3-1.8,2.2-3.2,2.3c-1.1,0.1-1.7-0.4-1.7-1.6c0-2,0.6-3.9,1.8-5.4
	c0.7,0.5,1.3,1.1,2,1.5C39.1,16.9,39.8,17.9,39.1,19.3L39.1,19.3z"/>
<path class="st11" d="M27.2,13.8c-2.4-2.4-4.1-2.1-5.5,0.2c-1.2,2.1-2,4.4-2.1,6.8c-0.2,2.8,1.5,4.4,4.3,4.4c3.6,0,5.2-2.5,6.7-5.2
	l0,0C31.1,17.1,28.8,15.4,27.2,13.8z M27.4,20.2c-0.5,1.4-1.8,2.3-3.3,2.3c-1.1,0.1-1.7-0.4-1.7-1.6c0-2,0.7-3.9,1.8-5.4
	c0.7,0.5,1.3,1.1,2,1.5C27.4,17.8,28.1,18.8,27.4,20.2L27.4,20.2z"/>
</svg>
