<svg width="110" height="110" viewBox="0 0 110 110" fill="none" xmlns="http://www.w3.org/2000/svg">
<path d="M42.3799 44.1101C41.4799 41.7701 40.5999 39.4201 39.6799 37.1101C38.8799 35.1101 39.9199 34.67 41.5899 34.87C43.5899 35.11 44.9699 36.6001 46.3599 37.8001C49.2099 40.2701 51.8199 40.2801 55.1899 38.5801C65.9999 33.1201 76.9199 28.1301 87.6899 22.7301C91.6899 20.7301 95.2299 20.9101 98.6899 23.6601C100.57 25.1501 100.62 25.9901 98.5999 27.2401C94.2399 29.9401 89.8499 32.6067 85.4299 35.2401C83.4873 36.35 81.9124 38.0049 80.8999 40.0001C78.5299 44.6601 76.8999 49.63 74.8999 54.44C73.5799 57.61 72.1999 60.74 69.6599 63.19C68.9899 63.83 68.2499 64.5101 67.2999 64.0401C66.3499 63.5701 66.7799 62.6101 66.8899 61.8801C67.6199 56.8801 68.3999 51.8801 69.1899 46.9301C69.49 46.0189 69.5281 45.0418 69.2999 44.1101C65.8099 45.5001 62.3499 46.94 58.8499 48.26C56.1766 49.3312 53.4028 50.1319 50.5699 50.6501C46.1999 51.3401 45.8399 51.1501 43.9299 47.0901C43.6999 46.6001 43.5099 46.0901 43.3099 45.5901C42.6899 45.3201 42.1399 45.0001 42.3799 44.1101Z" fill="#7A7A7A"/>
<path d="M42.3799 44.1101L43.3799 45.6101C42.1699 47.8701 42.5299 50.3401 42.4999 52.7501C42.4599 57.3501 42.4399 61.9501 42.4399 66.5501C42.4144 67.3726 42.4883 68.1952 42.6599 69.0001C42.8599 69.8101 43.9099 70.5501 42.9599 71.4201C42.5676 71.723 42.0982 71.9098 41.605 71.9593C41.1118 72.0088 40.6146 71.919 40.1699 71.7001C39.6886 71.5563 39.2702 71.2535 38.9832 70.8412C38.6962 70.4289 38.5576 69.9314 38.5899 69.4301C38.5899 65.9101 38.5899 62.4301 38.6499 58.8701V53.9001C36.3499 57.8201 34.5199 61.3901 32.0199 64.5201C29.5199 67.6501 26.8199 69.7301 22.9399 70.4201C17.7899 71.3201 13.7999 68.7101 13.2599 63.5301C11.9999 51.3301 16.4199 41.4501 25.9999 33.9301C28.4861 31.9163 31.6363 30.9067 34.8299 31.1001C35.4658 31.1103 36.0804 31.3307 36.5778 31.7268C37.0753 32.123 37.4276 32.6726 37.5799 33.2901C37.8622 33.9589 37.9769 34.6865 37.9142 35.4097C37.8514 36.1329 37.6131 36.8299 37.2199 37.4401C36.4399 38.4901 35.4999 37.8901 35.3899 36.7501C35.0699 33.5101 33.1199 34.1701 31.1599 34.9101C30.3091 35.2111 29.5071 35.6356 28.7799 36.1701C25.0691 38.9165 22.0378 42.4776 19.9193 46.5794C17.8008 50.6812 16.6515 55.2144 16.5599 59.8301C16.4699 62.2201 16.5599 64.9801 19.1699 66.1901C22.0099 67.5001 24.6499 66.4101 26.9299 64.5301C31.9299 60.4301 34.0599 54.5301 37.2699 48.7601C34.1899 49.2101 31.7599 50.3601 29.2099 51.1301C28.3599 51.4001 27.4699 51.5801 26.6299 51.9001C25.1099 52.4701 23.6299 52.5801 23.0999 50.7501C22.5699 48.9201 24.2799 48.4601 25.5099 48.1001C29.2199 47.0301 33.0199 46.2301 36.7199 45.1001C38.5899 44.5301 40.5599 44.7701 42.3799 44.1101Z" fill="#BBBBBB"/>
<path d="M71.88 28.5901C69.88 29.5901 68.43 30.3301 66.95 30.9501C64.95 31.8201 62.68 34.0601 60.89 33.3601C57.97 32.2201 55.59 29.7001 53.36 27.3601C52.24 26.1801 52.45 25.3601 54.29 25.1201C56.6275 24.995 58.9685 25.2931 61.2 26.0001C64.59 26.8701 68 27.6601 71.88 28.5901Z" fill="#828282"/>
<path d="M36.52 83.1699C35.69 84.1699 35.34 85.5099 34.38 85.1099C32.7 84.3999 32.13 82.6799 31.85 80.9699C31.63 79.6199 32.69 79.8599 33.43 79.8799C35.86 79.9199 34.19 83.1199 36.52 83.1699Z" fill="#BBBBBB"/>
<path d="M58.92 79.4499C58.41 78.8599 57.99 78.4499 57.61 77.9199C57.23 77.3899 57.61 76.9199 58.03 76.6099C58.81 75.9999 59.62 75.4199 60.37 74.7799C61.12 74.1399 61.74 74.4699 62.37 75.1899C63.11 76.0599 62.83 76.5699 62.03 77.1299C61 77.8499 60 78.6199 58.92 79.4499Z" fill="#BBBBBB"/>
<path d="M78.2399 62.78C77.1099 64 76.0799 65.44 74.5199 66C73.8399 66.26 72.6399 64.92 72.9299 64.33C73.6506 62.8995 74.8401 61.7594 76.2999 61.1C77.0999 60.75 77.6699 62 78.2399 62.78Z" fill="#BBBBBB"/>
<path d="M70.5999 69.29C70.6499 69.96 67.5999 72.84 66.9599 72.79C66.0099 72.7 65.6899 71.87 65.3399 71.19C65.1299 70.79 68.3399 67.85 68.9499 67.9C69.8999 68 70.0699 68.93 70.5999 69.29Z" fill="#BBBBBB"/>
<path d="M55.09 82.17C53.6434 83.1134 52.1255 83.9426 50.55 84.65C49.64 84.98 48.99 83.58 49.15 83.1C49.71 81.37 51.56 80.89 52.99 80.24C54 79.81 53.94 81.5 55.09 82.17Z" fill="#BBBBBB"/>
<path d="M88.86 51.93C88.3453 51.5222 87.8607 51.0777 87.41 50.6C86.93 50.02 87.41 49.6 87.85 49.28C88.94 48.47 89.38 46.68 91.09 46.87C91.59 46.92 92.45 47.75 92.39 48.08C92.13 49.58 90.65 50.24 89.76 51.33C89.4868 51.5674 89.1843 51.769 88.86 51.93V51.93Z" fill="#BBBBBB"/>
<path d="M41.5901 88.0001C40.5001 88.0801 39.6701 88.0001 39.7601 86.8401C39.9801 84.0701 42.3901 85.4301 43.7601 84.8401C44.7601 84.4101 45.3301 85.3601 45.2001 86.2101C44.8201 88.5001 42.6401 87.3601 41.5901 88.0001Z" fill="#BBBBBB"/>
<path d="M79.8201 57.0999C80.7501 56.2499 81.8201 55.3899 82.7401 54.4299C83.6601 53.4699 84.1001 53.9999 84.7401 54.6299C85.3801 55.2599 85.4601 55.8099 84.7401 56.4299C84.3209 56.7723 83.9388 57.1577 83.6001 57.5799C82.2701 59.4099 81.0501 59.4099 79.8201 57.0999Z" fill="#BBBBBB"/>
<path d="M42.41 71.1499C41.08 72.4599 40.16 74.4299 38.15 74.9599C37.26 75.1999 36.28 74.2999 36.2 73.1299C36.15 72.2999 39.88 68.4599 40.54 68.6699C41.58 68.9999 42 69.9999 42.41 71.1499Z" fill="#BBBBBB"/>
<path d="M98.2101 42.2399C97.4001 43.0199 96.9301 44.3899 95.7501 44.4199C95.1401 44.4199 93.8901 43.4199 94.1901 42.6599C94.3989 42.1778 94.7007 41.7415 95.0782 41.3761C95.4556 41.0106 95.9014 40.7231 96.3901 40.5299C97.0001 40.3299 97.8601 41.3199 98.2101 42.2399Z" fill="#BBBBBB"/>
</svg>
