<svg width="29" height="8" viewBox="0 0 29 8" fill="none" xmlns="http://www.w3.org/2000/svg">
<path d="M4.09837 8.00003C6.36184 8.00003 8.19675 6.20917 8.19675 4.00002C8.19675 1.79087 6.36184 0 4.09837 0C1.8349 0 0 1.79087 0 4.00002C0 6.20917 1.8349 8.00003 4.09837 8.00003Z" fill="#026F81"/>
<path d="M14.3443 8.00003C16.6077 8.00003 18.4426 6.20917 18.4426 4.00002C18.4426 1.79087 16.6077 0 14.3443 0C12.0808 0 10.2459 1.79087 10.2459 4.00002C10.2459 6.20917 12.0808 8.00003 14.3443 8.00003Z" fill="#026F81"/>
<path d="M24.5901 8.00003C26.8536 8.00003 28.6885 6.20917 28.6885 4.00002C28.6885 1.79087 26.8536 0 24.5901 0C22.3267 0 20.4918 1.79087 20.4918 4.00002C20.4918 6.20917 22.3267 8.00003 24.5901 8.00003Z" fill="#026F81"/>
</svg>
