<svg id="Camada_1" data-name="Camada 1" xmlns="http://www.w3.org/2000/svg" viewBox="0 0 50 50"><title>mala</title><path d="M25,15.44H40.22c2,0,2.82.88,2.83,2.84v4.63A2.43,2.43,0,0,1,41,25.53q-6,1.37-11.93,2.66c-.61.13-.81.36-.76,1a11.63,11.63,0,0,1,0,1.67c0,.73-.27,1-1,1-1.53,0-3.05,0-4.57,0-.74,0-1-.25-1-1,0-.6,0-1.2,0-1.8s-.13-.66-.6-.77c-3.9-.84-7.78-1.72-11.68-2.58C7.61,25.23,7,24.46,7,22.55c0-1.48,0-3,0-4.44a2.42,2.42,0,0,1,2.67-2.67ZM25.09,17H9.83c-1,0-1.18.22-1.18,1.17,0,1.52,0,3,0,4.57,0,.89.1,1,1,1.22L21.2,26.61c.38.09.52.05.55-.39,0-.78.27-1,1.05-1,1.46,0,2.91,0,4.37,0,.87,0,1.06.16,1.12,1,0,.38.18.42.49.35L40.61,24a.9.9,0,0,0,.79-1c0-1.54,0-3.09,0-4.63,0-1.12-.18-1.3-1.31-1.3Zm1.58,11.52c0-1.65,0-1.65-1.66-1.65h-.13c-1.51,0-1.52,0-1.51,1.54,0,.55-.24,1.26.12,1.61s1.05.1,1.6.11C26.67,30.17,26.67,30.16,26.67,28.55Z"/><path d="M25,40.83H10.75c-2,0-3-.93-3-2.94q0-4.86,0-9.72a2.77,2.77,0,0,1,.08-.76.71.71,0,0,1,.87-.49.71.71,0,0,1,.69.65,5.56,5.56,0,0,1,0,.58v9.78c0,1.06.18,1.24,1.23,1.24H39.38c1,0,1.22-.19,1.22-1.25v-10c0-.41,0-.78.46-1a.81.81,0,0,1,1.18.82c0,.92,0,1.84,0,2.77,0,2.44,0,4.89,0,7.33,0,2-.94,2.93-2.91,2.93Z"/><path d="M25,9.66c1.31,0,2.62,0,3.92,0,2.14,0,2.88,1.61,2.62,3.49a.72.72,0,0,1-.79.62.71.71,0,0,1-.77-.63,7.73,7.73,0,0,1-.06-1c0-.54-.27-.86-.82-.86H21a.76.76,0,0,0-.84.84,7.62,7.62,0,0,1-.05,1,.72.72,0,0,1-.83.64.77.77,0,0,1-.77-.72,2.68,2.68,0,0,1,2.88-3.39Z"/></svg>