<svg width="33" height="34" viewBox="0 0 33 34" fill="none" xmlns="http://www.w3.org/2000/svg">
<path d="M16.4793 6.33601H30.4022C32.2317 6.33601 32.9819 7.26688 32.991 9.34016V14.2378C33.0418 14.8888 32.8762 15.5379 32.5278 16.0527C32.1794 16.5676 31.6745 16.9096 31.1157 17.0092C27.4566 17.9753 23.8188 18.9132 20.2024 19.8229C19.6444 19.9604 19.4614 20.2037 19.5072 20.8807C19.5438 21.4688 19.5438 22.0592 19.5072 22.6472C19.5072 23.4194 19.2602 23.705 18.5924 23.705C17.1928 23.705 15.8023 23.705 14.4119 23.705C13.7349 23.705 13.4971 23.4406 13.4971 22.6472C13.4971 22.0126 13.4971 21.3779 13.4971 20.7432C13.4971 20.1085 13.3782 20.0451 12.9482 19.9287C9.38059 19.0402 5.83125 18.1093 2.26362 17.1996C0.571277 16.6918 0.0132626 15.8773 0.0132626 13.857C0.0132626 12.2914 0.0132626 10.6836 0.0132626 9.16033C-0.0229771 8.77922 0.0152812 8.39356 0.125212 8.03183C0.235144 7.67011 0.41394 7.34156 0.648396 7.07045C0.882853 6.79934 1.16698 6.59259 1.4798 6.46547C1.79262 6.33835 2.12613 6.29411 2.45572 6.33601H16.4793ZM16.5616 7.98618H2.60208C1.68731 7.98618 1.52265 8.21889 1.52265 9.2238C1.52265 10.8317 1.52265 12.3972 1.52265 14.0579C1.52265 14.9994 1.61412 15.1157 2.43742 15.3484L13.0031 18.1516C13.3507 18.2468 13.4788 18.2045 13.5062 17.7391C13.5062 16.914 13.7532 16.6813 14.4668 16.6813C15.8023 16.6813 17.1288 16.6813 18.4643 16.6813C19.2602 16.6813 19.434 16.8505 19.4889 17.7391C19.4889 18.141 19.6535 18.1833 19.9371 18.1093L30.7589 15.3908C30.8665 15.3763 30.9706 15.3375 31.0651 15.2765C31.1597 15.2155 31.243 15.1335 31.3101 15.0352C31.3772 14.937 31.4269 14.8244 31.4564 14.7039C31.4858 14.5834 31.4944 14.4573 31.4816 14.333C31.4816 12.704 31.4816 11.0644 31.4816 9.43536C31.4816 8.25063 31.317 8.06022 30.2833 8.06022L16.5616 7.98618ZM18.0069 20.172C18.0069 18.4266 18.0069 18.4266 16.4884 18.4266H16.3695C14.9882 18.4266 14.979 18.4266 14.9882 20.0556C14.9882 20.6374 14.7686 21.3885 15.0979 21.7587C15.4273 22.1289 16.0585 21.8645 16.5616 21.8751C18.0069 21.9174 18.0069 21.9068 18.0069 20.2037V20.172Z" fill="#28DE70"/>
<path d="M16.4792 33.1935H3.44366C1.61411 33.1935 0.699329 32.2098 0.699329 30.0836C0.699329 26.6563 0.699329 23.2291 0.699329 19.8018C0.691485 19.5312 0.716113 19.2607 0.772511 18.9979C0.819444 18.8077 0.929335 18.6467 1.07833 18.5496C1.22733 18.4526 1.40342 18.4274 1.56837 18.4796C1.72835 18.4841 1.88125 18.5568 1.99773 18.6837C2.11422 18.8106 2.18609 18.9827 2.19956 19.1671C2.2088 19.3715 2.2088 19.5763 2.19956 19.7807V30.1259C2.19956 31.2472 2.36422 31.4376 3.32474 31.4376H29.6338C30.5485 31.4376 30.7498 31.2366 30.7498 30.1153V19.5374C30.7498 19.1037 30.7498 18.7123 31.1706 18.4796C31.2906 18.4067 31.4256 18.3733 31.5609 18.383C31.6962 18.3927 31.8266 18.4451 31.9379 18.5346C32.0492 18.624 32.1372 18.747 32.1922 18.8903C32.2472 19.0335 32.2672 19.1915 32.25 19.347C32.25 20.3201 32.25 21.2933 32.25 22.2771C32.25 24.8581 32.25 27.4497 32.25 30.0307C32.25 32.1463 31.3901 33.13 29.588 33.13L16.4792 33.1935Z" fill="#28DE70"/>
<path d="M16.4793 0.221994C17.6777 0.221994 18.876 0.221994 20.0652 0.221994C22.0229 0.221994 22.6998 1.92504 22.4619 3.91369C22.4391 4.11032 22.3508 4.28886 22.2158 4.41135C22.0808 4.53383 21.9099 4.59058 21.7393 4.56953C21.5698 4.58732 21.401 4.52747 21.2693 4.40284C21.1375 4.27821 21.0534 4.09876 21.0349 3.90312C20.9968 3.55226 20.9785 3.19892 20.98 2.84532C20.98 2.27411 20.733 1.93562 20.2299 1.93562H12.8202C12.7164 1.92216 12.6114 1.93589 12.5129 1.97578C12.4144 2.01568 12.3249 2.08072 12.2511 2.16607C12.1773 2.25143 12.121 2.35491 12.0865 2.46883C12.052 2.58276 12.0401 2.70421 12.0518 2.82417C12.0566 3.17754 12.0413 3.5309 12.006 3.88196C11.9972 3.98529 11.9701 4.08543 11.9266 4.17623C11.883 4.26704 11.8239 4.34659 11.7528 4.40999C11.6817 4.47339 11.6001 4.51932 11.5131 4.54493C11.4261 4.57055 11.3354 4.57532 11.2468 4.55895C11.0676 4.55938 10.8951 4.48087 10.7642 4.33938C10.6333 4.19789 10.554 4.00406 10.5424 3.79734C10.4334 3.34992 10.4211 2.87837 10.5068 2.42421C10.5925 1.97006 10.7734 1.54723 11.0337 1.19298C11.294 0.83872 11.6256 0.563906 11.9993 0.392739C12.3731 0.221571 12.7775 0.159302 13.177 0.211416L16.4793 0.221994Z" fill="#28DE70"/>
</svg>
