<svg width="39" height="28" viewBox="0 0 39 28" fill="none" xmlns="http://www.w3.org/2000/svg">
<path d="M33.0177 12.4258C34.1026 11.5616 34.8209 10.1239 34.8209 8.50338C34.8209 5.85241 32.9297 3.70836 30.5914 3.70836C28.2531 3.70836 26.3619 5.85241 26.3619 8.50338C26.3619 10.1239 27.073 11.5616 28.1651 12.4258C27.2342 12.7915 26.3839 13.3566 25.6656 14.0879C24.676 13.1322 23.5105 12.4009 22.2351 11.9688C23.7817 10.905 24.8226 8.96875 24.8226 6.76654C24.8226 3.4092 22.4256 0.691742 19.4643 0.691742C16.5029 0.691742 14.1059 3.41751 14.1059 6.76654C14.1059 8.96875 15.1395 10.905 16.6935 11.9688C15.4327 12.4009 14.2819 13.1239 13.2996 14.0629C12.5813 13.3483 11.7456 12.7915 10.8294 12.4341C11.9142 11.5699 12.6326 10.1322 12.6326 8.51169C12.6326 5.86072 10.7414 3.71667 8.40309 3.71667C6.06478 3.71667 4.1736 5.86072 4.1736 8.51169C4.1736 10.1322 4.88462 11.5699 5.97682 12.4341C3.06675 13.5726 0.977661 16.7056 0.977661 20.387V20.9355C0.977661 20.9521 0.992321 20.9688 1.00698 20.9688H9.97174C9.92043 21.4258 9.89111 21.8995 9.89111 22.3732V22.9383C9.89111 25.3815 11.6357 27.3593 13.7907 27.3593H25.1525C27.3075 27.3593 29.0521 25.3815 29.0521 22.9383V22.3732C29.0521 21.8995 29.0228 21.4258 28.9715 20.9688H37.9949C38.0095 20.9688 38.0242 20.9521 38.0242 20.9355V20.387C38.0095 16.6973 35.9278 13.5643 33.0177 12.4258ZM27.5348 8.49507C27.5348 6.58371 28.9055 5.02969 30.5914 5.02969C32.2774 5.02969 33.6481 6.58371 33.6481 8.49507C33.6481 10.3815 32.3067 11.9189 30.6501 11.9604C30.6281 11.9604 30.6134 11.9604 30.5914 11.9604C30.5694 11.9604 30.5548 11.9604 30.5328 11.9604C28.8688 11.9272 27.5348 10.3898 27.5348 8.49507ZM15.2641 6.76654C15.2641 4.14881 17.1406 2.02138 19.4496 2.02138C21.7586 2.02138 23.6351 4.14881 23.6351 6.76654C23.6351 9.29285 21.8832 11.3621 19.6915 11.5034C19.6109 11.5034 19.5302 11.5034 19.4496 11.5034C19.369 11.5034 19.2883 11.5034 19.2077 11.5034C17.016 11.3621 15.2641 9.29285 15.2641 6.76654ZM5.32443 8.49507C5.32443 6.58371 6.69517 5.02969 8.3811 5.02969C10.067 5.02969 11.4378 6.58371 11.4378 8.49507C11.4378 10.3815 10.0964 11.9189 8.43974 11.9604C8.41775 11.9604 8.40309 11.9604 8.3811 11.9604C8.35911 11.9604 8.34445 11.9604 8.32246 11.9604C6.66585 11.9272 5.32443 10.3898 5.32443 8.49507ZM10.177 19.6308H2.16514C2.495 16.0906 5.13385 13.315 8.33712 13.2901C8.35178 13.2901 8.36644 13.2901 8.3811 13.2901C8.39576 13.2901 8.41042 13.2901 8.42508 13.2901C9.94975 13.2984 11.3425 13.9383 12.42 14.9771C11.3645 16.2735 10.5801 17.869 10.177 19.6308ZM27.8646 22.9383C27.8646 24.6419 26.6405 26.0297 25.1378 26.0297H13.7761C12.2734 26.0297 11.0493 24.6419 11.0493 22.9383V22.3732C11.0493 17.2125 14.685 12.9909 19.2077 12.8413C19.2883 12.8496 19.3763 12.8496 19.4569 12.8496C19.5376 12.8496 19.6255 12.8496 19.7062 12.8413C24.2289 12.9909 27.8646 17.2125 27.8646 22.3732V22.9383ZM28.7369 19.6308C28.3337 17.8773 27.5641 16.3067 26.5159 15.0103C27.6007 13.9466 29.0081 13.3067 30.5474 13.2901C30.5621 13.2901 30.5768 13.2901 30.5914 13.2901C30.6061 13.2901 30.6207 13.2901 30.6354 13.2901C33.8387 13.315 36.4775 16.0906 36.8074 19.6308H28.7369Z" fill="#28DE70"/>
</svg>
