<svg id="Camada_1" data-name="Camada 1" xmlns="http://www.w3.org/2000/svg" viewBox="0 0 50 50"><defs><style>.cls-1{stroke:#000;stroke-miterlimit:10;stroke-width:0.75px;}</style></defs><title>svg</title><path class="cls-1" d="M45,24.91A19.79,19.79,0,1,1,25.32,5,19.78,19.78,0,0,1,45,24.91ZM43.6,25A18.41,18.41,0,1,0,24.93,43.21,18.42,18.42,0,0,0,43.6,25Z"/><path class="cls-1" d="M38.16,24.91a13,13,0,1,1-19.5-11.3A6,6,0,0,1,20.07,13a.87.87,0,0,1,.78.33c.09.2-.09.58-.23.83s-.33.2-.5.29a11.57,11.57,0,1,0,10.57.19c-.17-.09-.4-.13-.51-.27-.25-.31-.69-.74-.61-1,.18-.64.73-.42,1.2-.22A13,13,0,0,1,38.16,24.91Z"/><path class="cls-1" d="M24.51,18.62V13.08c0-.51-.08-1.17.66-1.18s.71.69.71,1.23q0,5.49,0,11c0,.56.14,1.33-.72,1.32s-.65-.74-.66-1.27C24.5,22.32,24.51,20.47,24.51,18.62Z"/></svg>