<svg width="31" height="18" viewBox="0 0 31 18" fill="none" xmlns="http://www.w3.org/2000/svg">
<path d="M30.4152 8.31562C27.5342 3.35578 21.8307 0 15.3 0C8.76933 0 3.06423 3.35813 0.184846 8.31609C0.0633183 8.52821 0 8.76256 0 9.00023C0 9.23791 0.0633183 9.47226 0.184846 9.68438C3.06582 14.6442 8.76933 18 15.3 18C21.8307 18 27.5358 14.6419 30.4152 9.68391C30.5367 9.47179 30.6 9.23744 30.6 8.99977C30.6 8.76209 30.5367 8.52774 30.4152 8.31562ZM15.3 15.75C13.787 15.75 12.3079 15.3541 11.0499 14.6124C9.79184 13.8707 8.81132 12.8165 8.23231 11.5831C7.6533 10.3497 7.5018 8.99251 7.79698 7.68314C8.09216 6.37377 8.82075 5.17103 9.89062 4.22703C10.9605 3.28302 12.3236 2.64015 13.8076 2.3797C15.2915 2.11925 16.8297 2.25292 18.2275 2.76381C19.6254 3.2747 20.8202 4.13987 21.6608 5.2499C22.5013 6.35993 22.95 7.66498 22.95 9C22.9505 9.88654 22.753 10.7645 22.3687 11.5836C21.9844 12.4028 21.4209 13.1471 20.7105 13.7739C20 14.4008 19.1565 14.898 18.2281 15.2371C17.2997 15.5761 16.3048 15.7504 15.3 15.75ZM15.3 4.5C14.8448 4.50561 14.3925 4.56537 13.9554 4.67766C14.3157 5.10969 14.4886 5.64135 14.4428 6.17622C14.3969 6.71109 14.1353 7.21376 13.7054 7.59305C13.2756 7.97234 12.7059 8.20314 12.0997 8.24361C11.4935 8.28407 10.891 8.13151 10.4013 7.81359C10.1225 8.71996 10.1728 9.68066 10.5452 10.5605C10.9176 11.4403 11.5933 12.1949 12.4773 12.7181C13.3612 13.2413 14.4088 13.5068 15.4726 13.4771C16.5365 13.4475 17.563 13.1242 18.4078 12.5528C19.2525 11.9814 19.8729 11.1907 20.1816 10.2919C20.4903 9.39308 20.4718 8.43149 20.1287 7.54246C19.7856 6.65342 19.1352 5.8817 18.269 5.33593C17.4028 4.79015 16.3644 4.49779 15.3 4.5Z" fill="#026F81"/>
</svg>
