<svg width="30" height="24" viewBox="0 0 30 24" fill="none" xmlns="http://www.w3.org/2000/svg">
<path d="M29.7 10.9999C26.9 6.1999 21.3 2.8999 14.9 2.8999C8.5 2.8999 3 6.1999 0.1 10.9999C0 11.1999 0 11.4999 0 11.6999C0 11.8999 0.1 12.1999 0.2 12.3999C3 17.1999 8.6 20.4999 15 20.4999C21.4 20.4999 27 17.1999 29.8 12.3999C29.9 12.1999 30 11.9999 30 11.6999C29.9 11.4999 29.8 11.1999 29.7 10.9999ZM14.9 18.2999C13.4 18.2999 12 17.8999 10.7 17.1999C9.5 16.4999 8.5 15.3999 7.9 14.1999C7.3 12.9999 7.2 11.6999 7.5 10.3999C7.8 9.0999 8.5 7.8999 9.5 6.9999C10.5 6.0999 11.9 5.3999 13.3 5.1999C14.8 4.8999 16.3 5.0999 17.6 5.5999C19 6.0999 20.1 6.8999 21 7.9999C21.8 9.0999 22.3 10.3999 22.3 11.6999C22.3 12.5999 22.1 13.3999 21.7 14.1999C21.3 14.9999 20.8 15.6999 20.1 16.2999C19.4 16.8999 18.6 17.3999 17.7 17.6999C16.9 18.0999 15.9 18.2999 14.9 18.2999ZM14.9 7.2999C14.5 7.2999 14 7.3999 13.6 7.4999C14 7.8999 14.1 8.3999 14.1 8.9999C14.1 9.4999 13.8 9.9999 13.4 10.3999C13 10.7999 12.4 10.9999 11.8 10.9999C11.2 10.9999 10.6 10.8999 10.1 10.5999C9.8 11.4999 9.9 12.3999 10.2 13.2999C10.6 14.1999 11.2 14.8999 12.1 15.3999C13 15.8999 14 16.1999 15 16.0999C16 16.0999 17 15.7999 17.9 15.1999C18.7 14.5999 19.3 13.8999 19.6 12.9999C19.9 12.0999 19.9 11.1999 19.5 10.2999C19.2 9.3999 18.5 8.6999 17.7 8.0999C17 7.5999 16 7.2999 14.9 7.2999Z" fill="#026F81"/>
</svg>
