<svg width="30" height="24" viewBox="0 0 30 24" fill="none" xmlns="http://www.w3.org/2000/svg">
<g clip-path="url(#clip0)">
<path d="M14.94 20.22C12.5359 20.2222 10.1557 19.7427 7.93998 18.81C7.88785 18.7783 7.82622 18.7659 7.76589 18.7751C7.70556 18.7842 7.65037 18.8143 7.60998 18.86C5.98998 20.38 4.35998 21.86 2.73998 23.39C2.52998 23.59 2.52998 23.59 2.32998 23.39L1.97998 23.02C1.88998 22.94 1.88998 22.87 1.97998 22.78L4.82998 20.13L7.07998 18.07L11.5 13.96L14.23 11.42L18.71 7.26L21.45 4.74L26.01 0.499996L26.45 0.0699959C26.53 -0.0100041 26.59 -0.0300041 26.68 0.0699959C26.77 0.169996 26.97 0.379996 27.12 0.529996C27.27 0.679996 27.21 0.679996 27.12 0.769996L24.95 2.77L23.14 4.44C22.99 4.58 23.14 4.6 23.23 4.63C24.1101 5.09567 24.9497 5.63422 25.74 6.24C27.3197 7.46424 28.6561 8.97361 29.68 10.69C29.8249 10.9059 29.9022 11.16 29.9022 11.42C29.9022 11.68 29.8249 11.9341 29.68 12.15C27.5882 15.6235 24.2811 18.1965 20.4 19.37C19.0882 19.7994 17.7274 20.0615 16.35 20.15L14.94 20.22ZM22.45 11.57C22.4568 10.7336 22.2957 9.90439 21.9762 9.13141C21.6567 8.35844 21.1853 7.65746 20.59 7.07C20.48 6.96 20.42 6.97 20.31 7.07C19.84 7.51 19.37 7.95 18.89 8.37C18.75 8.5 18.75 8.58 18.89 8.72C19.5533 9.45283 19.9111 10.4117 19.89 11.4C19.893 12.0388 19.7429 12.669 19.4523 13.2379C19.1618 13.8068 18.7392 14.2979 18.22 14.67C17.345 15.3344 16.29 15.7194 15.1928 15.7747C14.0956 15.83 13.0073 15.553 12.07 14.98C12.0503 14.955 12.0253 14.9349 11.9967 14.921C11.9681 14.9071 11.9367 14.8999 11.905 14.8999C11.8732 14.8999 11.8419 14.9071 11.8133 14.921C11.7847 14.9349 11.7596 14.955 11.74 14.98L10.29 16.31C10.14 16.45 10.18 16.51 10.29 16.6C11.9876 17.7464 14.0552 18.2107 16.08 17.9C17.6424 17.7425 19.1172 17.1029 20.3 16.07C20.9542 15.5129 21.4837 14.8243 21.8542 14.0489C22.2246 13.2736 22.4276 12.429 22.45 11.57Z" fill="#026F81"/>
<path d="M21.08 3.71001C20.36 4.39001 19.65 5.04001 18.94 5.71001C18.927 5.72331 18.9114 5.73388 18.8942 5.7411C18.8771 5.74831 18.8586 5.75203 18.84 5.75203C18.8214 5.75203 18.8029 5.74831 18.7858 5.7411C18.7686 5.73388 18.753 5.72331 18.74 5.71001C17.8454 5.23791 16.867 4.94573 15.86 4.85001C14.7788 4.71711 13.6818 4.80644 12.6363 5.11252C11.5908 5.4186 10.6188 5.93498 9.78 6.63001C8.73075 7.46554 7.98288 8.6207 7.65 9.92001C7.42922 10.7749 7.40449 11.6687 7.57766 12.5345C7.75082 13.4003 8.11739 14.2158 8.65 14.92C8.76 15.08 8.75 15.16 8.65 15.29L6.15 17.61C6.12844 17.6337 6.10219 17.6526 6.07292 17.6655C6.04365 17.6784 6.012 17.6851 5.98 17.6851C5.948 17.6851 5.91635 17.6784 5.88708 17.6655C5.8578 17.6526 5.83155 17.6337 5.81 17.61C3.54104 16.2987 1.63113 14.4472 0.249997 12.22C0.0913613 11.9852 0.0065918 11.7084 0.0065918 11.425C0.0065918 11.1417 0.0913613 10.8648 0.249997 10.63C2.19883 7.42082 5.1934 4.98068 8.73 3.72001C10.111 3.20354 11.5529 2.86743 13.02 2.72001C15.6736 2.4375 18.3568 2.74132 20.88 3.61001H21L21.08 3.71001Z" fill="#026F81"/>
<path d="M13.66 7.2C14.1732 7.07398 14.7031 7.0301 15.23 7.07C15.8007 7.09809 16.3638 7.21273 16.9 7.41C17.04 7.41 17.05 7.51 16.9 7.61L10.75 13.32C10.61 13.45 10.55 13.45 10.46 13.32C10.0028 12.4655 9.87131 11.4741 10.09 10.53C10.09 10.37 10.17 10.32 10.35 10.41C10.8522 10.6839 11.4289 10.7899 11.9957 10.7125C12.5624 10.6352 13.0896 10.3785 13.5 9.98C13.849 9.64799 14.0665 9.20118 14.1124 8.72168C14.1583 8.24219 14.0296 7.76222 13.75 7.37C13.7142 7.31663 13.684 7.25966 13.66 7.2V7.2Z" fill="#026F81"/>
</g>
<defs>
<clipPath id="clip0">
<rect width="29.89" height="23.54" fill="white"/>
</clipPath>
</defs>
</svg>
