<svg width="34" height="37" viewBox="0 0 34 37" fill="none" xmlns="http://www.w3.org/2000/svg">
<path d="M17.127 14.165H1.84369C0.767531 14.165 0.635371 14.0069 0.625931 12.6972C0.625931 10.6762 0.625931 8.65528 0.625931 6.62302C0.625931 4.36495 1.41889 3.39399 3.35409 3.3827C4.78897 3.3827 6.18609 3.3827 7.66817 3.3827C8.03633 3.3827 8.19681 3.28108 8.15905 2.80689C8.1354 2.35949 8.1354 1.91074 8.15905 1.46334C8.15905 0.932695 8.47057 0.729469 8.86705 0.718179C8.95609 0.702085 9.04699 0.708919 9.13364 0.738223C9.2203 0.767528 9.30073 0.818628 9.36954 0.888104C9.43836 0.957581 9.49397 1.04383 9.53267 1.14109C9.57137 1.23834 9.59225 1.34436 9.59393 1.45205C9.6269 1.87263 9.6269 2.29598 9.59393 2.71657C9.59393 3.23592 9.69777 3.39399 10.1415 3.39399C12.0295 3.39399 13.8419 3.39399 15.6922 3.39399C18.5242 3.39399 21.3562 3.39399 24.1315 3.39399C24.5752 3.39399 24.7262 3.24721 24.679 2.71657C24.6554 2.31814 24.6554 1.91822 24.679 1.51979C24.6994 1.30774 24.7842 1.11203 24.9174 0.969949C25.0505 0.827869 25.2228 0.749348 25.4012 0.749348C25.5797 0.749348 25.7519 0.827869 25.8851 0.969949C26.0182 1.11203 26.1031 1.30774 26.1234 1.51979C26.1283 1.59118 26.1283 1.66293 26.1234 1.73431C26.1234 2.24237 25.9818 2.93108 26.2083 3.22463C26.4349 3.51818 27.0957 3.34882 27.5583 3.36011C28.7571 3.36011 29.956 3.36011 31.1549 3.36011C31.4954 3.30786 31.8415 3.35004 32.1662 3.48341C32.491 3.61678 32.7857 3.83775 33.0275 4.12921C33.2694 4.42067 33.4519 4.7748 33.561 5.16418C33.6701 5.55355 33.7027 5.96773 33.6565 6.37463C33.6565 8.49721 33.6565 10.6198 33.6565 12.7311C33.6565 13.9504 33.5054 14.1311 32.5048 14.1311L17.127 14.165ZM17.127 12.3698H31.6458C31.9384 12.3698 32.1839 12.3698 32.1744 11.873C32.1744 9.96496 32.1744 8.06818 32.1744 6.16012C32.1892 6.0299 32.1792 5.89735 32.145 5.77245C32.1108 5.64755 32.0534 5.53354 31.9771 5.439C31.9008 5.34446 31.8075 5.27184 31.7043 5.22661C31.6012 5.18138 31.4908 5.16471 31.3815 5.17786H26.5387C26.3877 5.17786 26.1517 5.17786 26.1706 5.40366C26.2367 6.14883 25.8968 6.95044 26.5293 7.66173C26.6632 7.82048 26.7684 8.0104 26.8385 8.21975C26.9086 8.4291 26.942 8.65342 26.9367 8.87883C26.9314 9.10424 26.8875 9.32595 26.8077 9.53025C26.7278 9.73454 26.6138 9.91708 26.4727 10.0666C26.2169 10.3839 25.87 10.5733 25.5019 10.5963C25.1339 10.6194 24.7723 10.4744 24.4903 10.1908C24.3357 10.0626 24.205 9.8974 24.1066 9.70572C24.0081 9.51403 23.944 9.29999 23.9183 9.07714C23.8925 8.85429 23.9058 8.62747 23.9571 8.41105C24.0084 8.19462 24.0968 7.99329 24.2165 7.81979C24.3953 7.56883 24.5307 7.27798 24.615 6.96404C24.6993 6.6501 24.7306 6.3193 24.7074 5.99076C24.7074 5.27947 24.4997 5.18915 23.9994 5.18915C20.5727 5.18915 17.1554 5.18915 13.7287 5.18915H10.132C9.95265 5.18915 9.63169 5.08753 9.65057 5.40366C9.69777 6.14883 9.35793 6.95044 9.99985 7.66173C10.135 7.81964 10.2414 8.00931 10.3123 8.2188C10.3832 8.4283 10.417 8.65307 10.4117 8.87898C10.4064 9.10488 10.362 9.32702 10.2814 9.53141C10.2007 9.7358 10.0856 9.91801 9.94321 10.0666C9.69151 10.3872 9.34648 10.5801 8.97934 10.6053C8.6122 10.6305 8.25098 10.4861 7.97025 10.2021C7.81451 10.075 7.68275 9.91031 7.58346 9.71864C7.48416 9.52696 7.41954 9.31254 7.39375 9.08918C7.36796 8.86581 7.38158 8.63847 7.43372 8.42178C7.48586 8.2051 7.57537 8.00388 7.69649 7.83108C8.24401 7.19882 8.13073 6.51011 8.16849 5.78753C8.16849 5.29076 8.01745 5.20044 7.65873 5.21173H3.16529C2.32513 5.21173 2.15521 5.43753 2.14577 6.48753C2.14577 8.20366 2.14577 9.87463 2.14577 11.6359C2.14577 12.2682 2.28737 12.415 2.79713 12.415C7.58006 12.3773 12.3599 12.3623 17.1365 12.3698H17.127Z" fill="#28DE70"/>
<path d="M14.7198 36.6214C10.9438 36.6214 7.16784 36.5537 3.3352 36.6214C2.96896 36.6757 2.59719 36.6298 2.24798 36.487C1.89876 36.3443 1.58123 36.1085 1.31936 35.7975C1.0575 35.4865 0.858161 35.1084 0.736396 34.6917C0.614631 34.2751 0.573628 33.8308 0.616484 33.3924C0.616484 28.052 0.616484 22.7117 0.616484 17.3714C0.597658 17.1386 0.597658 16.9042 0.616484 16.6714C0.637801 16.4625 0.72697 16.2719 0.864735 16.141C1.0025 16.01 1.17781 15.9491 1.3528 15.9714C1.52116 15.945 1.69157 15.9971 1.82867 16.1169C1.96576 16.2367 2.05903 16.4151 2.08912 16.6149C2.13686 16.8896 2.15588 17.1702 2.14576 17.4504V33.3359C2.14576 34.6569 2.27792 34.8262 3.35408 34.8262H25.0094C26.3971 34.8262 26.8974 34.1827 26.8974 32.5682C26.8974 32.173 26.8974 31.7666 26.8974 31.3714C26.8801 31.0051 26.927 30.6385 27.0351 30.2951C27.1433 29.9517 27.3103 29.6392 27.5254 29.3777C27.7406 29.1161 27.9991 28.9112 28.2844 28.7763C28.5697 28.6413 28.8754 28.5792 29.1819 28.594C29.6162 28.594 30.0504 28.594 30.4846 28.594C30.7071 28.6228 30.9321 28.5914 31.143 28.5021C31.3538 28.4129 31.5453 28.268 31.703 28.0783C31.8607 27.8885 31.9808 27.6588 32.0542 27.406C32.1276 27.1533 32.1526 26.884 32.1272 26.6182C32.1272 23.5924 32.1272 20.5553 32.1272 17.5182C32.1129 17.2852 32.1129 17.0512 32.1272 16.8182C32.133 16.7052 32.158 16.5949 32.2005 16.4939C32.243 16.3928 32.3023 16.3031 32.3747 16.2303C32.4471 16.1574 32.5311 16.1029 32.6216 16.0701C32.7121 16.0372 32.8073 16.0267 32.9013 16.0391C33.3638 16.0391 33.5527 16.4004 33.6093 16.8972C33.6235 17.2018 33.6235 17.5071 33.6093 17.8117C33.6093 21.0069 33.6093 24.202 33.6093 27.4085C33.6286 28.1614 33.5131 28.9106 33.2705 29.6058C33.0279 30.3009 32.6639 30.926 32.2027 31.4391C31.1738 32.6698 30.1259 33.8779 29.1253 35.1424C28.7302 35.6507 28.2485 36.0519 27.7127 36.3187C27.1769 36.5855 26.5996 36.7118 26.0195 36.6891C22.3096 36.5988 18.5147 36.6214 14.7198 36.6214ZM30.8906 30.3553C30.3808 30.3553 29.8427 30.3553 29.3046 30.3553C28.7666 30.3553 28.4645 30.615 28.4362 31.3714C28.4079 32.1279 28.4362 32.715 28.4362 33.2682L30.8906 30.3553Z" fill="#28DE70"/>
<path d="M15.645 19.5392C15.6487 19.8914 15.565 20.2371 15.4046 20.5327C15.2443 20.8282 15.0143 21.0603 14.7438 21.1997C14.4732 21.3391 14.1742 21.3796 13.8845 21.316C13.5947 21.2525 13.3272 21.0877 13.1157 20.8425C12.9041 20.5974 12.758 20.2828 12.6957 19.9384C12.6335 19.5941 12.6579 19.2354 12.7659 18.9076C12.8738 18.5798 13.0605 18.2976 13.3024 18.0965C13.5443 17.8955 13.8306 17.7846 14.1251 17.7779C14.3225 17.7703 14.519 17.8103 14.7032 17.8954C14.8873 17.9805 15.0553 18.109 15.1971 18.2733C15.3389 18.4377 15.4516 18.6344 15.5285 18.8518C15.6055 19.0693 15.6451 19.303 15.645 19.5392Z" fill="#28DE70"/>
<path d="M21.6583 19.5843C21.671 19.8298 21.6412 20.0758 21.5707 20.3068C21.5001 20.5379 21.3904 20.749 21.2484 20.9269C21.1064 21.1048 20.9351 21.2457 20.7454 21.3406C20.5557 21.4356 20.3516 21.4826 20.1459 21.4787C19.9403 21.4748 19.7376 21.42 19.5505 21.3179C19.3634 21.2158 19.1959 21.0685 19.0587 20.8853C18.9215 20.7021 18.8174 20.487 18.753 20.2534C18.6887 20.0197 18.6654 19.7727 18.6847 19.5278C18.6909 19.0547 18.8541 18.604 19.1382 18.2747C19.4223 17.9455 19.8042 17.7647 20.1998 17.7722C20.5954 17.7797 20.9722 17.9748 21.2475 18.3146C21.5228 18.6545 21.674 19.1112 21.6677 19.5843H21.6583Z" fill="#28DE70"/>
<path d="M27.6715 19.573C27.6715 19.9286 27.5832 20.2761 27.4179 20.5715C27.2525 20.867 27.0176 21.0971 26.7427 21.2326C26.4679 21.3681 26.1656 21.403 25.8742 21.3328C25.5828 21.2626 25.3154 21.0905 25.1059 20.8384C24.8963 20.5862 24.7541 20.2652 24.6973 19.9163C24.6404 19.5673 24.6715 19.206 24.7866 18.8782C24.9016 18.5504 25.0955 18.2708 25.3435 18.0749C25.5916 17.879 25.8827 17.7756 26.18 17.7779C26.377 17.7763 26.5723 17.8218 26.7545 17.9116C26.9366 18.0015 27.102 18.1338 27.2408 18.301C27.3797 18.4681 27.4893 18.6667 27.5633 18.8851C27.6372 19.1035 27.674 19.3374 27.6715 19.573Z" fill="#28DE70"/>
<path d="M8.17793 29.4295C7.88045 29.4406 7.58693 29.3457 7.33465 29.1568C7.08237 28.968 6.88273 28.6937 6.76111 28.3688C6.63948 28.0439 6.60135 27.6831 6.65157 27.3323C6.70179 26.9814 6.83809 26.6563 7.04315 26.3983C7.24821 26.1404 7.51277 25.9611 7.8032 25.8834C8.09364 25.8056 8.39685 25.8329 8.67429 25.9617C8.95174 26.0906 9.19089 26.3152 9.36136 26.607C9.53183 26.8987 9.62593 27.2445 9.63169 27.6004C9.63927 27.8355 9.60741 28.07 9.53798 28.29C9.46856 28.5101 9.36298 28.7113 9.22748 28.8818C9.09198 29.0523 8.92929 29.1886 8.74903 29.2827C8.56877 29.3767 8.37459 29.4266 8.17793 29.4295Z" fill="#28DE70"/>
<path d="M15.6449 27.6456C15.6431 27.9979 15.554 28.3417 15.389 28.6336C15.224 28.9254 14.9904 29.1523 14.7177 29.2856C14.445 29.4189 14.1454 29.4526 13.8567 29.3825C13.568 29.3124 13.3031 29.1416 13.0955 28.8917C12.8878 28.6418 12.7467 28.3239 12.6899 27.9782C12.6331 27.6325 12.6632 27.2744 12.7764 26.9491C12.8895 26.6238 13.0807 26.3458 13.3258 26.1503C13.5708 25.9548 13.8588 25.8504 14.1534 25.8504C14.3512 25.8458 14.5476 25.8891 14.731 25.9778C14.9143 26.0665 15.0807 26.1988 15.2201 26.3666C15.3595 26.5344 15.4691 26.7342 15.5421 26.954C15.6151 27.1739 15.6501 27.4091 15.6449 27.6456Z" fill="#28DE70"/>
<path d="M21.6583 27.6682C21.6527 28.0204 21.56 28.3628 21.3919 28.6521C21.2238 28.9414 20.9878 29.1648 20.7137 29.2939C20.4396 29.423 20.1397 29.4522 19.8518 29.3777C19.5639 29.3033 19.3008 29.1285 19.0959 28.8755C18.8909 28.6225 18.7531 28.3025 18.7 27.956C18.6468 27.6095 18.6807 27.2519 18.7972 26.9283C18.9138 26.6047 19.1079 26.3297 19.355 26.1379C19.602 25.9461 19.8911 25.846 20.1856 25.8504C20.3831 25.8503 20.5785 25.8977 20.7603 25.9897C20.9421 26.0817 21.1066 26.2165 21.244 26.3861C21.3814 26.5557 21.4889 26.7566 21.56 26.9768C21.6312 27.1971 21.6646 27.4322 21.6583 27.6682Z" fill="#28DE70"/>
</svg>
