<svg width="34" height="34" viewBox="0 0 34 34" fill="none" xmlns="http://www.w3.org/2000/svg">
<path d="M17 0C26.3888 0 34 7.61118 34 17C34 26.3888 26.3888 34 17 34C7.61118 34 0 26.3888 0 17C0.0106239 7.61558 7.61558 0.010625 17 0ZM17 32.8667C25.7629 32.8667 32.8667 25.7629 32.8667 17C32.8667 8.23707 25.7629 1.13333 17 1.13333C8.23707 1.13333 1.13334 8.23707 1.13334 17C1.14318 25.7588 8.24117 32.8568 17 32.8667Z" fill="#006478"/>
<path d="M17 2.26666C20.1296 2.26666 22.6666 4.8037 22.6666 7.93333C22.663 11.0615 20.1281 13.5964 17 13.6C13.8703 13.6 11.3333 11.063 11.3333 7.93333C11.3333 4.8037 13.8703 2.26666 17 2.26666ZM15.3 12.1329C16.3896 12.5779 17.6103 12.5779 18.7 12.1329V10.2578C18.6994 9.60032 18.1666 9.06737 17.509 9.06666H16.4908C15.8333 9.06737 15.3005 9.60032 15.3 10.2578V12.1329ZM18.1333 6.8C18.1333 6.17404 17.6259 5.66666 17 5.66666C16.374 5.66666 15.8666 6.17404 15.8666 6.8C15.8666 7.42595 16.374 7.93333 17 7.93333C17.6256 7.93262 18.1326 7.4256 18.1333 6.8ZM14.1666 11.4665V10.2578C14.1689 9.4452 14.5965 8.69316 15.2937 8.27574C14.4696 7.33337 14.5655 5.90133 15.5079 5.07726C16.4502 4.25318 17.8823 4.34909 18.7063 5.29146C19.4536 6.14592 19.4536 7.42128 18.7063 8.27574C19.4035 8.69316 19.8311 9.44527 19.8334 10.2578V11.4665C21.7868 9.90377 22.1035 7.05337 20.5408 5.1C19.6803 4.02446 18.3773 3.39886 17 3.4C14.4983 3.39787 12.4688 5.42413 12.4666 7.92568C12.4655 9.30303 13.0911 10.6061 14.1666 11.4665Z" fill="#006478"/>
<path d="M17 20.4C20.1296 20.4 22.6666 22.937 22.6666 26.0667C22.6666 29.1963 20.1296 31.7333 17 31.7333C13.8703 31.7333 11.3333 29.1963 11.3333 26.0667C11.3369 22.9385 13.8718 20.4036 17 20.4ZM15.3 30.2662C16.3896 30.7113 17.6103 30.7113 18.7 30.2662V28.3911C18.6994 27.7337 18.1666 27.2007 17.509 27.2H16.4908C15.8333 27.2007 15.3005 27.7337 15.3 28.3911V30.2662ZM18.1333 24.9333C18.1333 24.3074 17.6259 23.8 17 23.8C16.374 23.8 15.8666 24.3074 15.8666 24.9333C15.8666 25.5593 16.374 26.0667 17 26.0667C17.6256 26.066 18.1326 25.5589 18.1333 24.9333ZM13.4611 28.8943C13.6696 29.1547 13.9062 29.3914 14.1666 29.5998V28.3911C14.1689 27.5785 14.5965 26.8265 15.2937 26.4091C14.4696 25.4667 14.5655 24.0347 15.5079 23.2106C16.4502 22.3865 17.8823 22.4824 18.7063 23.4248C19.4536 24.2793 19.4536 25.5546 18.7063 26.4091C19.4035 26.8265 19.8311 27.5786 19.8334 28.3911V29.5998C21.7878 28.035 22.1036 25.1821 20.5389 23.2277C18.9741 21.2732 16.1211 20.9574 14.1667 22.5222C12.2122 24.087 11.8963 26.9399 13.4611 28.8943Z" fill="#006478"/>
<path d="M7.93331 11.3333C11.0615 11.337 13.5964 13.8719 13.6 17C13.6 20.1296 11.0629 22.6667 7.93331 22.6667C4.80368 22.6667 2.26664 20.1296 2.26664 17C2.26664 13.8704 4.80368 11.3333 7.93331 11.3333ZM6.23331 21.1996C7.32294 21.6446 8.54368 21.6446 9.63331 21.1996V19.3245C9.63274 18.667 9.09993 18.1341 8.44239 18.1333H7.42416C6.76661 18.1341 6.23387 18.667 6.23324 19.3245V21.1996H6.23331ZM9.06664 15.8667C9.06664 15.2407 8.55926 14.7333 7.93331 14.7333C7.30735 14.7333 6.79997 15.2407 6.79997 15.8667C6.79997 16.4926 7.30735 17 7.93331 17C8.55891 16.9993 9.06593 16.4923 9.06664 15.8667ZM5.09997 20.5332V19.3245C5.10224 18.5119 5.52986 17.7598 6.22701 17.3424C5.40293 16.4001 5.49884 14.968 6.4412 14.1439C7.38357 13.3199 8.81561 13.4158 9.63968 14.3581C10.3869 15.2126 10.3869 16.488 9.63968 17.3424C10.3368 17.7598 10.7644 18.5119 10.7667 19.3245V20.5332C12.719 18.9673 13.0324 16.1153 11.4665 14.163C9.90071 12.2107 7.04867 11.8973 5.09636 13.4632C4.02345 14.3236 3.39941 15.6247 3.39997 17C3.4004 18.3749 4.02593 19.6749 5.09997 20.5332Z" fill="#006478"/>
<path d="M26.0666 11.3333C29.1962 11.3333 31.7333 13.8704 31.7333 17C31.7333 20.1296 29.1962 22.6667 26.0666 22.6667C22.9385 22.6631 20.4036 20.1282 20.3999 17C20.3999 13.8704 22.937 11.3333 26.0666 11.3333ZM24.3666 21.1996C25.4562 21.6446 26.677 21.6446 27.7666 21.1996V19.3245C27.766 18.667 27.2332 18.1341 26.5757 18.1333H25.5575C24.8999 18.1341 24.3672 18.667 24.3665 19.3245V21.1996H24.3666ZM27.1999 15.8667C27.1999 15.2407 26.6926 14.7333 26.0666 14.7333C25.4407 14.7333 24.9333 15.2407 24.9333 15.8667C24.9333 16.4926 25.4407 17 26.0666 17C26.6922 16.9993 27.1992 16.4923 27.1999 15.8667ZM22.5278 19.8277C22.7362 20.0881 22.9729 20.3247 23.2333 20.5332V19.3245C23.2355 18.5119 23.6632 17.7598 24.3603 17.3424C23.5362 16.4001 23.6321 14.968 24.5745 14.1439C25.5169 13.3199 26.9489 13.4158 27.773 14.3581C28.5202 15.2126 28.5202 16.488 27.773 17.3424C28.4701 17.7598 28.8977 18.5119 28.9 19.3245V20.5332C30.8544 18.9684 31.1703 16.1154 29.6055 14.161C28.0407 12.2066 25.1878 11.8907 23.2333 13.4555C21.2788 15.0204 20.963 17.8732 22.5278 19.8277Z" fill="#006478"/>
</svg>
