<svg width="16" height="18" viewBox="0 0 16 18" fill="none" xmlns="http://www.w3.org/2000/svg">
<g clip-path="url(#clip0)">
<path d="M5.81945 9.31557C6.88141 8.31329 7.27848 7.38457 7.27848 5.92934C7.27848 4.93337 6.95792 4.06718 6.37811 3.49143C5.67319 2.77408 4.67612 2.45405 3.14415 2.45405L0.461466 2.46391C0.379225 2.46416 0.312744 2.53919 0.312744 2.63172V14.8941C0.312744 14.9869 0.379443 15.0618 0.462118 15.0618H1.85964C1.94209 15.0618 2.00879 14.9869 2.00879 14.8941V9.78441H4.26564L5.92868 14.9515C5.95009 15.018 6.0061 15.0623 6.06896 15.0623H7.51499C7.56412 15.0623 7.60973 15.0353 7.63781 14.99C7.66545 14.945 7.67175 14.8874 7.65494 14.8359L5.81945 9.31557ZM3.28932 8.25582H2.0085V4.00213L3.2406 4.00054C4.30897 4.01391 5.58214 4.39059 5.58214 6.11006C5.58236 7.41359 4.68246 8.25582 3.28932 8.25582ZM15.4956 10.0899C15.3696 9.70587 15.1784 9.38013 14.9272 9.12128C14.6728 8.85904 14.3494 8.63283 13.9661 8.44852C13.6246 8.28467 13.223 8.12339 12.7759 7.96696V4.26331C13.5267 4.46881 13.9374 5.02361 13.9971 5.92257H13.9991L14.0042 6.02329C14.0181 6.44167 14.3207 6.76953 14.6942 6.76953C15.0928 6.76953 15.3966 6.43625 15.4009 5.99439L15.3868 5.85406C15.2865 4.01521 14.4291 2.99662 12.7763 2.75411V0.75635C12.7763 0.33919 12.4744 0 12.1039 0C11.733 0 11.4313 0.33919 11.4313 0.75635V2.73365C11.1362 2.77388 10.8576 2.8459 10.6024 2.9566C10.2045 3.12933 9.86038 3.36928 9.5809 3.67076C9.30168 3.97152 9.08496 4.33076 8.9374 4.7392C8.78943 5.14898 8.71404 5.60853 8.71404 6.10541C8.71404 6.65651 8.77121 7.12005 8.88254 7.48247C8.99243 7.83988 9.16756 8.14679 9.40251 8.39395C9.64065 8.64485 9.94624 8.86144 10.3111 9.03792C10.627 9.19101 11.0054 9.34182 11.4313 9.48806V13.6978C10.4679 13.4631 9.95972 12.7445 9.91965 11.5512L9.91922 11.4493C9.91922 11.0226 9.60873 10.6753 9.22669 10.6753C8.82153 10.6753 8.52449 11.0015 8.52047 11.4506C8.62024 13.7436 9.57532 14.99 11.4311 15.2507V17.2435C11.4311 17.6608 11.7328 18 12.1035 18C12.4744 18 12.7759 17.6608 12.7759 17.2435V15.2599C13.0967 15.2139 13.3968 15.1317 13.6683 15.005C14.0934 14.807 14.46 14.5347 14.7589 14.1967C15.0575 13.8592 15.2892 13.4584 15.4477 13.0049C15.607 12.5508 15.6873 12.0533 15.6873 11.5262C15.6872 10.9615 15.6228 10.4782 15.4956 10.0899ZM11.2309 7.41946C10.894 7.2883 10.6499 7.15759 10.4845 7.01966C10.3119 6.87583 10.2045 6.71393 10.1638 6.53831C10.1274 6.37845 10.1086 6.16851 10.1086 5.91544C10.1086 5.62451 10.1608 5.36459 10.2644 5.14177C10.3677 4.91951 10.5116 4.73451 10.6921 4.5919C10.8696 4.45157 11.0774 4.34495 11.3097 4.27545C11.3496 4.26331 11.3905 4.25365 11.4309 4.24391V7.49572C11.36 7.46886 11.2927 7.44346 11.2309 7.41946ZM13.7764 13.2302C13.5348 13.4901 13.1982 13.6568 12.7759 13.7339V9.9829C12.844 10.0099 12.9125 10.0369 12.9736 10.0617C13.3177 10.2012 13.5888 10.3462 13.78 10.4918C13.9801 10.644 14.118 10.8213 14.189 11.0181C14.2578 11.2087 14.2925 11.4429 14.2925 11.7156C14.2925 12.3525 14.119 12.8618 13.7764 13.2302Z" fill="#DDDDDD"/>
</g>
<defs>
<clipPath id="clip0">
<rect width="16" height="18" fill="white"/>
</clipPath>
</defs>
</svg>
