<svg width="35" height="35" viewBox="0 0 35 35" fill="none" xmlns="http://www.w3.org/2000/svg">
<path d="M34.7417 17.9416C34.7213 21.3356 33.7057 24.6473 31.8235 27.458C29.9412 30.2687 27.2767 32.4521 24.1668 33.7323C21.057 35.0125 17.6415 35.332 14.352 34.6502C11.0626 33.9685 8.04697 32.3163 5.68644 29.9024C3.3259 27.4886 1.72645 24.4214 1.09028 21.0888C0.454116 17.7562 0.809809 14.3078 2.11239 11.1795C3.41497 8.05115 5.60595 5.38347 8.40833 3.51367C11.2107 1.64388 14.4986 0.65593 17.8565 0.674732C20.0873 0.686084 22.2941 1.1419 24.3505 2.01612C26.4069 2.89033 28.2726 4.16578 29.8409 5.7695C31.4092 7.37323 32.6492 9.27375 33.4902 11.3624C34.3311 13.451 34.7564 15.6867 34.7417 17.9416ZM33.5405 18.0196C33.5741 14.8644 32.682 11.7698 30.9768 9.12667C29.2716 6.48356 26.8297 4.41044 23.9597 3.16912C21.0896 1.9278 17.92 1.57393 14.8511 2.15221C11.7822 2.73048 8.95162 4.21497 6.71683 6.4182C4.48204 8.62144 2.94325 11.4446 2.29478 14.5312C1.64631 17.6179 1.91724 20.8295 3.07335 23.7606C4.22946 26.6917 6.2189 29.2107 8.79047 30.9997C11.362 32.7887 14.4004 33.7674 17.5218 33.8121C19.6002 33.8408 21.6637 33.4548 23.5942 32.6762C25.5248 31.8976 27.2844 30.7417 28.7723 29.2748C30.2603 27.8078 31.4474 26.0586 32.2656 24.1273C33.0838 22.1959 33.517 20.1204 33.5405 18.0196Z" fill="#E84242"/>
<path d="M28.873 17.9416C28.8667 19.9191 28.3459 21.8601 27.363 23.5699C26.38 25.2797 24.9695 26.698 23.2728 27.6827C21.5762 28.6673 19.6532 29.1835 17.6968 29.1796C15.7404 29.1756 13.8195 28.6516 12.1268 27.6601C10.434 26.6686 9.02909 25.2445 8.05293 23.5308C7.07677 21.817 6.56372 19.8739 6.56528 17.8964C6.56684 15.9189 7.08295 13.9766 8.06182 12.2645C9.04069 10.5523 10.4479 9.13048 12.1422 8.14172C12.5213 7.91371 12.9279 7.73591 13.3519 7.6127C13.4784 7.59883 13.6062 7.61784 13.7233 7.66793C13.8404 7.71801 13.943 7.79752 14.0212 7.89889C14.0984 8.07234 13.9439 8.40189 13.8238 8.6187C13.7037 8.83552 13.5407 8.79215 13.3948 8.87021C11.3958 9.86247 9.78497 11.5053 8.82125 13.5347C7.85753 15.5641 7.59692 17.8621 8.08131 20.0593C8.5657 22.2564 9.76695 24.2251 11.492 25.6489C13.217 27.0727 15.3655 27.8688 17.5922 27.9092C19.8189 27.9497 21.9943 27.2321 23.7688 25.872C25.5434 24.5118 26.8138 22.588 27.376 20.4098C27.9382 18.2317 27.7595 15.9257 26.8685 13.8626C25.9776 11.7996 24.4262 10.0992 22.4638 9.03498C22.3179 8.95693 22.1206 8.92224 22.0262 8.80083C21.8117 8.53198 21.4342 8.15907 21.5028 7.93358C21.6573 7.37854 22.1292 7.56934 22.5324 7.74279C24.4352 8.66283 26.0409 10.1094 27.1631 11.9145C28.2854 13.7197 28.8783 15.8096 28.873 17.9416Z" fill="#E84242"/>
<path d="M17.1614 12.4866V7.68207C17.1614 7.23978 17.0928 6.66739 17.7277 6.65872C18.3626 6.65005 18.3369 7.25712 18.3369 7.72543C18.3369 10.8995 18.3369 14.0794 18.3369 17.2651C18.3369 17.7508 18.457 18.4185 17.7191 18.4099C16.9812 18.4012 17.1614 17.7681 17.1528 17.3085C17.1528 15.6954 17.1614 14.091 17.1614 12.4866Z" fill="#E84242"/>
</svg>
