<svg width="47" height="47" viewBox="0 0 47 47" fill="none" xmlns="http://www.w3.org/2000/svg">
<circle cx="23.5" cy="23.5" r="23.5" fill="#006478"/>
<path d="M24.0146 35.404H15.1921C12.7735 35.3977 11.3636 33.9565 11.3636 31.5254C11.3386 25.8234 11.3386 20.1109 11.3636 14.388C11.3636 12.0007 12.8048 10.5408 15.1859 10.5345C20.0294 10.5345 24.8793 10.5345 29.7228 10.5345C30.51 10.5533 31.2676 10.8382 31.872 11.3428C33.6042 12.6181 35.0618 14.2291 36.1579 16.0798C36.5305 16.6975 36.7216 17.4076 36.7093 18.1288C36.7093 22.6089 36.7093 27.0891 36.7093 31.5692C36.7093 33.9127 35.2682 35.3664 32.9122 35.3789C29.9484 35.3789 26.9846 35.3789 24.0208 35.3789L24.0146 35.404ZM23.7639 33.662H31.6966C32.6929 33.662 33.144 33.2109 33.1503 32.2271C33.1503 29.42 33.1503 26.6087 33.1503 23.7932C33.1503 22.7969 32.6991 22.3583 31.7091 22.352C30.5249 22.352 29.3406 22.352 28.1626 22.352C26.2828 22.2894 24.3717 22.3959 22.4731 22.3144C20.5746 22.233 18.5131 22.352 16.5268 22.3771C16.3182 22.3923 16.1088 22.3923 15.9002 22.3771C15.5453 22.3477 15.1924 22.4544 14.9132 22.6754C14.634 22.8965 14.4492 23.2154 14.3964 23.5676C14.3692 23.9958 14.3776 24.4254 14.4214 24.8521C14.4214 27.2583 14.4214 29.6706 14.4214 32.083C14.4214 33.261 14.8475 33.6746 16.038 33.6746L23.7639 33.662ZM23.2689 20.0148C25.1048 20.0148 26.9408 20.0148 28.7829 20.0148C29.7604 20.0148 30.2053 19.5637 30.2053 18.5737C30.2053 16.9028 30.2053 15.211 30.2053 13.4983C30.2053 12.4957 29.7416 12.032 28.7265 12.032C25.0672 12.032 21.41 12.032 17.7549 12.032C17.5581 11.9966 17.3557 12.0088 17.1646 12.0675C16.9735 12.1263 16.7992 12.2299 16.6563 12.3697C16.5134 12.5095 16.4061 12.6815 16.3432 12.8713C16.2803 13.0611 16.2638 13.2632 16.2949 13.4607C16.2949 15.1692 16.2949 16.8798 16.2949 18.5925C16.2949 19.57 16.7649 20.0148 17.7486 20.0211L23.2689 20.0148Z" fill="white"/>
<path d="M28.6262 15.9545C28.6262 16.65 28.6262 17.3518 28.6262 18.0474C28.6262 18.3732 28.5072 18.4985 28.1813 18.4922C27.5046 18.4922 26.8279 18.4922 26.1574 18.4922C25.8128 18.4922 25.7251 18.3293 25.7251 18.0223C25.7251 16.6313 25.7251 15.2339 25.7251 13.8429C25.7251 13.492 25.8567 13.3479 26.2076 13.3542C26.8342 13.3542 27.4608 13.3542 28.0435 13.3542C28.4758 13.3542 28.6701 13.4732 28.6325 13.9306C28.6012 14.6011 28.6262 15.2778 28.6262 15.9545Z" fill="white"/>
</svg>
