<svg id="Camada_1" data-name="Camada 1" xmlns="http://www.w3.org/2000/svg" viewBox="0 0 50 50"><title>save</title><path d="M7.38,25.76V9.46c0-1.07.13-1.2,1.17-1.2H34.63a1.64,1.64,0,0,1,1.22.48q3,2.87,6.1,5.68a1.54,1.54,0,0,1,.54,1.26q0,13.28,0,26.57c0,1-.15,1.12-1.13,1.12H8.51c-1,0-1.13-.15-1.13-1.12ZM12.12,42v-.8q0-7.47,0-14.92c0-1,.15-1.12,1.12-1.12q11.68,0,23.37,0c1,0,1.12.15,1.12,1.13V42h3.35c0-.13,0-.23,0-.33q0-12.89,0-25.76a1,1,0,0,0-.33-.68c-1.86-1.76-3.75-3.51-5.63-5.25a.9.9,0,0,0-.45-.3c-.77,0-1.53,0-2.35,0v8.47c0,.77-.2,1-1,1H13.09c-.78,0-1-.18-1-1q0-3.89,0-7.77V9.66H8.78V42Zm1.38,0H36.35V26.54H13.51V39.32h3c.49,0,.92.08.93.66s-.44.68-.91.68H13.5Zm0-24.29H31v-8H13.49Z"/><path d="M25,27.83h9c.88,0,1.07.19,1.08,1.06v6c0,.83-.22,1-1,1H15.85c-.84,0-1-.21-1-1,0-2,0-4.06,0-6.08,0-.79.22-1,1-1Zm8.7,5.4H31.9c-.46,0-.85-.11-.85-.67s.41-.67.86-.67,1.16,0,1.75,0V29.24H16.19v5.31H33.67Z"/><path d="M19.63,40.12c-.26.18-.51.47-.79.5a.54.54,0,0,1-.62-.66.91.91,0,0,1,.63-.59c.25,0,.52.3.78.47Z"/><path d="M27,16.35c-.61,0-1.21,0-1.82,0a.78.78,0,0,1-.91-.86V11.8A.74.74,0,0,1,25,11c1.27,0,2.55,0,3.82,0a.73.73,0,0,1,.81.82c0,1.26,0,2.51,0,3.76a.74.74,0,0,1-.82.81C28.22,16.34,27.59,16.34,27,16.35ZM28.28,15V12.33H25.67V15Z"/><path d="M30.42,32.74c-.27.16-.56.48-.79.44a1,1,0,0,1-.62-.66.54.54,0,0,1,.67-.6c.28.06.5.34.75.53Z"/></svg>