<svg id="Camada_1" data-name="Camada 1" xmlns="http://www.w3.org/2000/svg" viewBox="0 0 50 50"><title>savefull</title><path d="M6.14,25.25c0-4.9,0-9.79,0-14.68,0-2.41,1.28-3.7,3.7-3.7.88,0,1.76,0,2.63,0,.51,0,.67.11.66.64,0,2.72,0,5.44,0,8.17,0,2.36,1.25,3.64,3.6,3.64q6.42,0,12.84,0c2.33,0,3.57-1.27,3.58-3.59V7.63c0-.77.39-1,1.09-.64a2,2,0,0,1,.55.45C37.4,10,40,12.66,42.61,15.25a1.31,1.31,0,0,1,.41,1q0,12.08,0,24.16a3.21,3.21,0,0,1-3.38,3.34c-2,0-4,0-5.93,0-.48,0-.57-.15-.57-.6q0-7.14,0-14.28a3.28,3.28,0,0,0-2.33-3.36,4.06,4.06,0,0,0-1.3-.14q-6.35,0-12.7,0c-2.4,0-3.69,1.31-3.69,3.71,0,4.66,0,9.31,0,14,0,.6-.17.74-.73.71-.92-.05-1.85,0-2.77,0a3.27,3.27,0,0,1-3.5-3.5C6.13,35.26,6.14,30.25,6.14,25.25Z"/><path d="M23.2,32.16c2.39,0,4.78,0,7.17,0,.47,0,.65.08.64.6,0,3.47,0,6.93,0,10.4,0,.5-.13.62-.62.62q-7.25,0-14.48,0c-.47,0-.65-.09-.64-.61,0-3.46,0-6.93,0-10.39,0-.49.13-.63.62-.62C18.33,32.17,20.76,32.16,23.2,32.16Z"/><path d="M20.83,6.87c1.64,0,3.29,0,4.93,0,.47,0,.65.09.64.61q0,4.55,0,9.08c0,.5-.13.63-.63.63-3,0-6.05,0-9.08,0-1,0-1.4-.37-1.41-1.38,0-2.79,0-5.57,0-8.36,0-.42.11-.57.55-.56C17.49,6.89,19.16,6.87,20.83,6.87Z"/><path d="M23.16,30c-2.42,0-4.83,0-7.24,0-.54,0-.71-.17-.65-.67a4.69,4.69,0,0,0,0-.53,1.16,1.16,0,0,1,1.33-1.27c1.95,0,3.91,0,5.86,0h7.11a1.61,1.61,0,0,1,1.4,2.3c-.13.27-.38.15-.58.15C28,30,25.57,30,23.16,30Z"/><path d="M28.53,12c0-1.51,0-3,0-4.53,0-.44.08-.65.57-.59S30.55,6.6,30.9,7s.1,1.17.1,1.78v6.83a1.59,1.59,0,0,1-2.29,1.55c-.28-.11-.17-.33-.17-.5C28.53,15.11,28.53,13.55,28.53,12Z"/></svg>