<svg id="Camada_1" data-name="Camada 1" xmlns="http://www.w3.org/2000/svg" viewBox="0 0 50 50"><title>savefull</title><path d="M25.19,43.84H11.11C7.25,43.83,5,41.53,5,37.65Q4.94,24,5,10.3c0-3.81,2.3-6.14,6.1-6.15,7.73,0,15.47,0,23.2,0a5.56,5.56,0,0,1,3.43,1.29A25.57,25.57,0,0,1,44.57,13a6.13,6.13,0,0,1,.88,3.27c0,7.15,0,14.3,0,21.45,0,3.74-2.3,6.06-6.06,6.08-4.73,0-9.46,0-14.19,0Zm-.4-2.78H37.45c1.59,0,2.31-.72,2.32-2.29q0-6.72,0-13.46c0-1.59-.72-2.29-2.3-2.3-1.89,0-3.78,0-5.66,0-3-.1-6.05.07-9.08-.06s-6.32.06-9.49.1a6.88,6.88,0,0,1-1,0,2.24,2.24,0,0,0-2.4,1.9A12.38,12.38,0,0,0,9.88,27c0,3.84,0,7.69,0,11.54,0,1.88.68,2.54,2.58,2.54ZM24,19.28c2.93,0,5.86,0,8.8,0,1.56,0,2.27-.72,2.27-2.3q0-4,0-8.1c0-1.6-.74-2.34-2.36-2.34q-8.76,0-17.51,0a2,2,0,0,0-2.33,2.28q0,4.09,0,8.19c0,1.56.75,2.27,2.32,2.28Z"/><path d="M32.55,12.8c0,1.11,0,2.23,0,3.34,0,.52-.19.72-.71.71-1.08,0-2.16,0-3.23,0-.55,0-.69-.26-.69-.75,0-2.22,0-4.45,0-6.67,0-.56.21-.79.77-.78,1,0,2,0,2.93,0,.69,0,1,.19.94.92C32.51,10.64,32.55,11.72,32.55,12.8Z"/></svg>