<svg width="33" height="34" viewBox="0 0 33 34" fill="none" xmlns="http://www.w3.org/2000/svg">
<g clip-path="url(#clip0)">
<path d="M25.7812 33.1935H7.21875C5.51375 33.1935 4.125 31.8062 4.125 30.0998V15.6623C4.125 13.9559 5.51375 12.5685 7.21875 12.5685H25.7812C27.4862 12.5685 28.875 13.9559 28.875 15.6623V30.0998C28.875 31.8062 27.4862 33.1935 25.7812 33.1935ZM7.21875 14.631C6.65088 14.631 6.1875 15.093 6.1875 15.6623V30.0998C6.1875 30.669 6.65088 31.131 7.21875 31.131H25.7812C26.3491 31.131 26.8125 30.669 26.8125 30.0998V15.6623C26.8125 15.093 26.3491 14.631 25.7812 14.631H7.21875Z" fill="#DDDDDD"/>
<path d="M23.7188 14.631C23.1495 14.631 22.6875 14.169 22.6875 13.5998V8.44354C22.6875 5.03217 19.9114 2.25604 16.5 2.25604C13.0886 2.25604 10.3125 5.03217 10.3125 8.44354V13.5998C10.3125 14.169 9.8505 14.631 9.28125 14.631C8.712 14.631 8.25 14.169 8.25 13.5998V8.44354C8.25 3.89367 11.9501 0.193542 16.5 0.193542C21.0499 0.193542 24.75 3.89367 24.75 8.44354V13.5998C24.75 14.169 24.288 14.631 23.7188 14.631Z" fill="#DDDDDD"/>
<path d="M16.5 23.5685C14.9834 23.5685 13.75 22.3352 13.75 20.8185C13.75 19.3019 14.9834 18.0685 16.5 18.0685C18.0166 18.0685 19.25 19.3019 19.25 20.8185C19.25 22.3352 18.0166 23.5685 16.5 23.5685ZM16.5 20.131C16.1219 20.131 15.8125 20.439 15.8125 20.8185C15.8125 21.198 16.1219 21.506 16.5 21.506C16.8781 21.506 17.1875 21.198 17.1875 20.8185C17.1875 20.439 16.8781 20.131 16.5 20.131Z" fill="#DDDDDD"/>
<path d="M16.5 27.6935C15.9307 27.6935 15.4688 27.2315 15.4688 26.6623V22.881C15.4688 22.3118 15.9307 21.8498 16.5 21.8498C17.0692 21.8498 17.5312 22.3118 17.5312 22.881V26.6623C17.5312 27.2315 17.0692 27.6935 16.5 27.6935Z" fill="#DDDDDD"/>
</g>
<defs>
<clipPath id="clip0">
<rect width="33" height="33" fill="white" transform="translate(0 0.193542)"/>
</clipPath>
</defs>
</svg>
