<svg id="Camada_1" data-name="Camada 1" xmlns="http://www.w3.org/2000/svg" viewBox="0 0 50 50"><title>share</title><path d="M8.25,29.69a5.72,5.72,0,0,1,2.46-2.39c.36-.18.22-.33.08-.57a3.6,3.6,0,0,1,.43-4.34,2.85,2.85,0,0,1,3.22-.63,2.87,2.87,0,0,1,1.88,2.7,3.48,3.48,0,0,1-.55,2.37c-.17.22-.11.33.12.45a5.83,5.83,0,0,1,2.48,2.39c2.06-2.17,1.91-6.2-.27-8.49a6.7,6.7,0,0,0-1.75-1.33c-.45-.24-.73-.58-.44-1.09s.7-.44,1.16-.2a7.69,7.69,0,0,1,2.66,2.31c.24.33.41.36.76.18q4.32-2.3,8.67-4.55c.38-.19.36-.38.26-.72A6.92,6.92,0,1,1,30.58,18c-.22-.29-.37-.39-.74-.19q-4.32,2.3-8.67,4.54c-.32.17-.44.31-.3.71a7.71,7.71,0,0,1,0,5.19c-.13.35-.07.5.25.67q4.38,2.27,8.73,4.58c.38.2.52.07.74-.21a6.89,6.89,0,1,1,4,11,6.94,6.94,0,0,1-5.44-5.77,6.55,6.55,0,0,1,.25-3.05c.14-.42,0-.57-.36-.75q-4.29-2.23-8.54-4.49a.53.53,0,0,0-.82.18A8,8,0,1,1,9.48,18.61c.62-.33,1-.28,1.26.18s-.12.85-.56,1.11A6.48,6.48,0,0,0,8.25,29.69ZM40.32,17a5.37,5.37,0,0,0-.93-7.45,5.43,5.43,0,0,0-7.57.78c-1.62,2-1.67,5.32-.09,6.61a5.09,5.09,0,0,1,1.83-1.74c.23-.13.33-.24.15-.51a3,3,0,0,1-.37-1.8,2.66,2.66,0,0,1,5.31-.24,3.18,3.18,0,0,1-.34,2c-.13.23-.19.38.1.53A5.25,5.25,0,0,1,40.32,17ZM33.9,38.73a3.26,3.26,0,0,1-.55-2.33A2.67,2.67,0,0,1,36.63,34a2.94,2.94,0,0,1,1.72,4.28c-.18.35-.19.52.19.71a4.17,4.17,0,0,1,1.32,1.12c.56.69.56.69,1-.12,0-.1.1-.2.14-.3a5.25,5.25,0,0,0-1-5.86,5.09,5.09,0,0,0-5.69-1.44,5.18,5.18,0,0,0-3.67,4.67,4.92,4.92,0,0,0,1.09,3.7A5.55,5.55,0,0,1,33.9,38.73ZM13.31,28.14a4.3,4.3,0,0,0-3.69,2.12c-.23.37-.27.62.2.89a6.54,6.54,0,0,0,7,0c.46-.27.43-.52.2-.9A4.23,4.23,0,0,0,13.31,28.14Zm22.69-9a6,6,0,0,0,2.76-.75c.44-.24.43-.47.19-.84a3.51,3.51,0,0,0-5.91,0c-.23.35-.24.56.16.79A5.92,5.92,0,0,0,36,19.17ZM36,43a5.53,5.53,0,0,0,2.74-.75c.37-.2.47-.41.22-.78a3.5,3.5,0,0,0-6,0c-.24.35-.13.53.21.73A5.56,5.56,0,0,0,36,43ZM14.84,24.86c0-1.15-.58-1.86-1.54-1.84s-1.54.71-1.54,1.81a1.63,1.63,0,0,0,1.53,1.83A1.59,1.59,0,0,0,14.84,24.86Zm20,11.94c0,1,.4,1.47,1.17,1.47s1.18-.53,1.19-1.39-.43-1.46-1.18-1.46S34.83,35.92,34.83,36.8Zm0-23.8c0,.94.4,1.47,1.15,1.48s1.22-.52,1.21-1.43-.43-1.4-1.17-1.42S34.83,12.13,34.83,13Z"/><path d="M13.3,19.08a.68.68,0,0,1-.7-.74.72.72,0,0,1,1.43,0A.67.67,0,0,1,13.3,19.08Z"/></svg>