<svg width="33" height="34" viewBox="0 0 33 34" fill="none" xmlns="http://www.w3.org/2000/svg">
<path d="M26.5551 8.95917C26.5551 9.31492 26.8438 9.6037 27.1996 9.6037C27.5553 9.6037 27.8441 9.31492 27.8441 8.95917C27.8441 8.60342 27.5553 8.31464 27.1996 8.31464C26.8438 8.31464 26.5551 8.60342 26.5551 8.95917Z" fill="#026F81"/>
<path d="M29.1332 16.6935C29.1332 17.5191 29.0504 18.3431 28.8872 19.1428C28.816 19.4915 29.0411 19.8319 29.3898 19.9031C29.4333 19.9122 29.4766 19.9164 29.5194 19.9164C29.8193 19.9164 30.0879 19.7057 30.1504 19.4006C30.3309 18.5161 30.4223 17.6055 30.4223 16.6935C30.4223 14.664 29.9822 12.711 29.1138 10.8887C28.9608 10.5675 28.5763 10.431 28.2548 10.5841C27.9333 10.7372 27.7971 11.1219 27.9502 11.4434C28.7352 13.091 29.1332 14.8574 29.1332 16.6935Z" fill="#026F81"/>
<path d="M19.723 22.4943H19.0785V14.1154C19.0785 13.7594 18.79 13.4709 18.434 13.4709H13.2777C12.9217 13.4709 12.6332 13.7594 12.6332 14.1154V16.6935C12.6332 17.0495 12.9217 17.3381 13.2777 17.3381H13.9222V22.4943H13.2777C12.9217 22.4943 12.6332 22.7829 12.6332 23.1389V25.717C12.6332 26.073 12.9217 26.3615 13.2777 26.3615H19.723C20.079 26.3615 20.3675 26.073 20.3675 25.717V23.1389C20.3675 22.7829 20.079 22.4943 19.723 22.4943ZM19.0785 25.0724H13.9222V23.7834H14.5668C14.9228 23.7834 15.2113 23.4949 15.2113 23.1389V16.6935C15.2113 16.3375 14.9228 16.049 14.5668 16.049H13.9222V14.7599H17.7894V23.1389C17.7894 23.4949 18.0782 23.7834 18.434 23.7834H19.0785V25.0724Z" fill="#026F81"/>
<path d="M16.5004 12.1818C17.9219 12.1818 19.0785 11.0252 19.0785 9.6037C19.0785 8.18221 17.9219 7.02557 16.5004 7.02557C15.0789 7.02557 13.9222 8.18221 13.9222 9.6037C13.9222 11.0252 15.0789 12.1818 16.5004 12.1818ZM16.5004 8.31464C17.2111 8.31464 17.7894 8.89295 17.7894 9.6037C17.7894 10.3144 17.2111 10.8928 16.5004 10.8928C15.7896 10.8928 15.2113 10.3144 15.2113 9.6037C15.2113 8.89295 15.7896 8.31464 16.5004 8.31464Z" fill="#026F81"/>
<path d="M16.5 0.193542C7.607 0.193542 2.81067e-05 7.78617 2.81067e-05 16.6935C2.81067e-05 19.7362 0.871907 22.9719 2.34199 25.4194L0.03301 32.3453C-0.0440316 32.5767 0.0161414 32.8323 0.188855 33.0047C0.362325 33.1782 0.618123 33.2374 0.848492 33.1603L7.77443 30.8516C10.2216 32.3219 13.4574 33.1935 16.5 33.1935C25.3953 33.1935 33 25.5999 33 16.6935C33 7.79826 25.4066 0.193542 16.5 0.193542V0.193542ZM16.5 31.9045C13.5812 31.9045 10.4789 31.0432 8.20118 29.6005C8.03979 29.4983 7.83863 29.4714 7.65232 29.5336L1.66372 31.5298L3.66001 25.5412C3.72144 25.3575 3.69676 25.156 3.59303 24.9924C2.15039 22.7149 1.28909 19.6123 1.28909 16.6935C1.28909 8.44833 8.2548 1.4826 16.5 1.4826C24.7452 1.4826 31.7109 8.44833 31.7109 16.6935C31.7109 24.9388 24.7452 31.9045 16.5 31.9045Z" fill="#026F81"/>
</svg>
