<svg id="Camada_1" data-name="Camada 1" xmlns="http://www.w3.org/2000/svg" viewBox="0 0 50 50"><title>svg</title><path d="M47.43,12v30.2H3.56V12.11H17.22V6.63H33.71V12ZM6.29,39.46H44.67v-16l-2.26.57-.71-2.6c.9-.25,1.68-.46,2.45-.71.21-.07.53-.28.54-.43,0-1.82,0-3.63,0-5.42H6.26c0,1.65,0,3.23,0,4.79,0,.74.25,1,.93,1.18,5.18,1.36,10.37,2.7,15.52,4.17a7.94,7.94,0,0,0,5.5,0s.12,0,.28.07l.63,2.49c-.68.2-1.25.33-1.8.54a5.75,5.75,0,0,1-3.62,0c-5.44-1.51-10.91-2.95-16.36-4.42-.33-.09-.66-.14-1-.22ZM20,12h10.9V9.37H20Z"/><path d="M14.46,34.11v2.63H9.09V34.11Z"/><path d="M36.55,34.08h5.37v2.63H36.55Z"/><path d="M37.11,25.49l-.72-2.63L39,22.13l.72,2.65Z"/><path d="M31.78,26.92l-.69-2.65,2.63-.72.72,2.65Z"/></svg>