<svg width="225" height="173" viewBox="0 0 225 173" fill="none" xmlns="http://www.w3.org/2000/svg">
<g clip-path="url(#clip0)">
<path d="M190.969 173C209.764 173 225 170.477 225 167.366C225 164.254 209.764 161.731 190.969 161.731C172.174 161.731 156.938 164.254 156.938 167.366C156.938 170.477 172.174 173 190.969 173Z" fill="#3F3D56"/>
<path d="M187.765 54.58C193.689 54.58 198.491 49.7628 198.491 43.8205C198.491 37.8781 193.689 33.0609 187.765 33.0609C181.842 33.0609 177.039 37.8781 177.039 43.8205C177.039 49.7628 181.842 54.58 187.765 54.58Z" fill="#2F2E41"/>
<path d="M186.169 54.8859C190.191 54.8859 193.452 51.6147 193.452 47.5793C193.452 43.544 190.191 40.2728 186.169 40.2728C182.146 40.2728 178.885 43.544 178.885 47.5793C178.885 51.6147 182.146 54.8859 186.169 54.8859Z" fill="#FFB8B8"/>
<path d="M181.838 51.5288C181.838 51.5288 184.988 58.8354 183.413 59.6253C181.838 60.4152 181.051 63.9698 181.051 63.9698L185.184 72.6587L190.893 76.2132H194.24C194.24 76.2132 197.586 61.2051 196.405 59.4278C195.224 57.6506 190.893 56.6632 190.893 56.6632C190.893 56.6632 189.909 54.2935 190.303 52.1213C190.696 49.949 181.838 51.5288 181.838 51.5288Z" fill="#FFB8B8"/>
<path d="M177.113 72.2637L171.995 68.1168C171.995 68.1168 162.743 61.6001 163.924 66.3395C165.105 71.0789 170.42 71.4738 170.42 71.4738L179.279 78.5829L177.113 72.2637Z" fill="#FFB8B8"/>
<path d="M176.72 93.9859C176.72 93.9859 174.357 103.86 176.72 117.288L177.704 122.62C177.704 122.62 177.704 126.767 178.688 128.347C178.688 128.347 181.247 151.846 182.625 151.846C184.003 151.846 188.334 151.056 188.728 150.464C189.121 149.871 181.05 92.9985 181.05 92.9985L176.72 93.9859Z" fill="#026F81"/>
<path opacity="0.1" d="M176.72 93.9859C176.72 93.9859 174.357 103.86 176.72 117.288L177.704 122.62C177.704 122.62 177.704 126.767 178.688 128.347C178.688 128.347 181.247 151.846 182.625 151.846C184.003 151.846 188.334 151.056 188.728 150.464C189.121 149.871 181.05 92.9985 181.05 92.9985L176.72 93.9859Z" fill="black"/>
<path d="M183.185 150.269L180.135 161.605C180.135 161.605 174.036 165.204 177.803 165.924C181.57 166.644 185.337 165.204 185.337 165.204L187.131 159.986L188.925 158.906V164.484H189.463L190.719 157.107C190.719 157.107 190.539 153.328 189.463 152.968C188.387 152.608 187.849 150.629 187.849 150.629L183.185 150.269Z" fill="black"/>
<path opacity="0.1" d="M183.185 150.269L180.135 161.605C180.135 161.605 174.036 165.204 177.803 165.924C181.57 166.644 185.337 165.204 185.337 165.204L187.131 159.986L188.925 158.906V164.484H189.463L190.719 157.107C190.719 157.107 190.539 153.328 189.463 152.968C188.387 152.608 187.849 150.629 187.849 150.629L183.185 150.269Z" fill="black"/>
<path d="M175.932 93.591C175.932 93.591 177.507 99.5153 178.098 100.503C178.098 100.503 178.885 117.288 181.444 123.015L184.2 130.321C184.2 130.321 188.728 151.846 187.547 154.216C187.547 154.216 193.649 155.598 194.043 154.216C194.043 154.216 193.846 142.762 194.437 141.182C195.027 139.603 196.011 130.914 191.287 124.595V105.44C191.287 105.44 198.767 99.1203 194.437 91.0238C190.106 82.9274 175.932 93.591 175.932 93.591Z" fill="#026F81"/>
<path d="M188.137 153.031L184.791 165.472C184.791 165.472 178.098 169.421 182.232 170.211C186.366 171.001 190.5 169.421 190.5 169.421L192.468 163.695L194.437 162.51V168.632H195.027L196.405 160.535C196.405 160.535 196.208 156.388 195.027 155.993C193.846 155.598 193.256 153.426 193.256 153.426L188.137 153.031Z" fill="black"/>
<path d="M183.841 58.1506C183.841 58.1506 178.885 61.0077 178.885 61.2052C178.885 61.4026 179.476 64.5622 179.476 64.5622C179.476 64.5622 173.373 70.684 177.507 76.0158C177.507 76.0158 178.885 77.0032 178.885 80.1628V83.3224C178.885 83.3224 167.271 90.6289 170.223 92.9986C173.176 95.3683 176.326 94.9734 177.31 96.3557C178.295 97.738 184.003 95.1709 185.184 94.7759C186.366 94.381 186.562 93.986 187.547 95.3683C188.531 96.7507 194.043 94.381 194.043 94.381C194.043 94.381 197.586 93.3936 198.374 93.3936C198.86 93.3877 199.336 93.2514 199.752 92.9986L191.287 84.3097L195.519 73.5474C195.519 73.5474 183.019 65.7471 183.019 63.5749C183.019 61.4027 183.841 58.1506 183.841 58.1506Z" fill="#EFE05A"/>
<path d="M191.484 58.6379C191.484 58.6379 188.925 62.1925 190.893 67.1294C192.862 72.0662 196.012 77.793 196.012 77.793L191.09 79.3728H186.563C186.563 79.3728 177.113 77.793 178.098 81.3476C179.082 84.9021 185.775 83.3223 185.775 83.3223H189.712C189.712 83.3223 198.571 84.3097 199.752 82.7299C199.752 82.7299 202.902 82.5324 201.524 76.2132C200.146 69.894 196.122 59.077 196.122 59.077L191.484 58.6379Z" fill="#FFB8B8"/>
<path d="M184.752 44.3041C188.546 44.3041 191.622 42.7344 191.622 40.7982C191.622 38.8619 188.546 37.2922 184.752 37.2922C180.958 37.2922 177.883 38.8619 177.883 40.7982C177.883 42.7344 180.958 44.3041 184.752 44.3041Z" fill="#2F2E41"/>
<path d="M193.354 49.2578C193.898 49.2578 194.338 48.2853 194.338 47.0856C194.338 45.8859 193.898 44.9134 193.354 44.9134C192.81 44.9134 192.37 45.8859 192.37 47.0856C192.37 48.2853 192.81 49.2578 193.354 49.2578Z" fill="#FFB8B8"/>
<path d="M192.567 40.174C195.828 40.174 198.472 37.5216 198.472 34.2498C198.472 30.9779 195.828 28.3255 192.567 28.3255C189.305 28.3255 186.661 30.9779 186.661 34.2498C186.661 37.5216 189.305 40.174 192.567 40.174Z" fill="#2F2E41"/>
<path d="M66.7399 61.1952C80.1213 61.1952 90.969 50.3133 90.969 36.8899C90.969 23.4664 80.1213 12.5845 66.7399 12.5845C53.3586 12.5845 42.5109 23.4664 42.5109 36.8899C42.5109 50.3133 53.3586 61.1952 66.7399 61.1952Z" fill="#92EB9B" fill-opacity="0.59"/>
<path d="M19.8238 118.865C27.7309 118.865 34.141 112.435 34.141 104.503C34.141 96.571 27.7309 90.1408 19.8238 90.1408C11.9166 90.1408 5.50659 96.571 5.50659 104.503C5.50659 112.435 11.9166 118.865 19.8238 118.865Z" fill="#92EB9B" fill-opacity="0.59"/>
<path d="M111.654 133.914C127.833 133.914 140.949 120.757 140.949 104.526C140.949 88.2961 127.833 75.1389 111.654 75.1389C95.4744 75.1389 82.3585 88.2961 82.3585 104.526C82.3585 120.757 95.4744 133.914 111.654 133.914Z" fill="#92EB9B" fill-opacity="0.59"/>
<path d="M14.5662 57.0153L14.1354 56.9231C14.2277 56.489 14.3238 56.0563 14.4239 55.625L14.8531 55.7252C14.7536 56.1539 14.658 56.5839 14.5662 57.0153Z" fill="#6C63FF"/>
<path d="M153.279 53.3643C153.053 52.5223 152.808 51.672 152.551 50.8372L152.971 50.7066C153.23 51.5467 153.477 52.4022 153.704 53.2495L153.279 53.3643ZM15.4955 53.1712L15.0704 53.0551C15.301 52.2053 15.551 51.3474 15.8134 50.5051L16.2339 50.637C15.973 51.4741 15.7247 52.3266 15.4955 53.1712V53.1712ZM151.731 48.3431C151.442 47.518 151.136 46.6893 150.819 45.8802L151.229 45.7188C151.548 46.5328 151.857 47.3667 152.146 48.197L151.731 48.3431ZM17.0655 48.1327L16.6501 47.9853C16.9435 47.1539 17.2562 46.3175 17.5795 45.499L17.989 45.6617C17.6677 46.4752 17.357 47.3066 17.0655 48.1327ZM149.817 43.4521C149.47 42.6534 149.103 41.8493 148.727 41.0622L149.124 40.8708C149.503 41.6629 149.872 42.472 150.221 43.2756L149.817 43.4521ZM19.003 43.2274L18.5997 43.0494C18.9533 42.243 19.3267 41.4324 19.7095 40.6402L20.106 40.8329C19.7255 41.6203 19.3544 42.4259 19.003 43.2274ZM147.548 38.7134C147.142 37.9399 146.717 37.1648 146.284 36.4094L146.666 36.1893C147.101 36.9493 147.529 37.7292 147.938 38.5076L147.548 38.7134ZM21.2964 38.4817L20.9073 38.2743C21.3196 37.4961 21.7515 36.7156 22.1912 35.9548L22.5723 36.1764C22.1354 36.9326 21.706 37.7082 21.2964 38.4817ZM144.936 34.1531C144.476 33.4129 143.995 32.6708 143.507 31.9474L143.872 31.6997C144.363 32.4277 144.847 33.1744 145.31 33.919L144.936 34.1531ZM23.9315 33.9202L23.5588 33.6848C24.0261 32.9404 24.5138 32.1943 25.0086 31.4671L25.3725 31.7161C24.8808 32.439 24.396 33.1805 23.9316 33.9202H23.9315ZM141.996 29.7956C141.485 29.0939 140.951 28.3888 140.409 27.7001L140.755 27.4263C141.3 28.1193 141.838 28.8287 142.352 29.5347L141.996 29.7956ZM26.8931 29.5671L26.5386 29.3047C27.0599 28.5957 27.6008 27.8878 28.1463 27.2004L28.4908 27.4755C27.9488 28.1588 27.4113 28.8624 26.8931 29.5671H26.8931ZM138.745 25.664C138.181 24.9987 137.597 24.3345 137.009 23.69L137.334 23.3916C137.926 24.04 138.514 24.7083 139.081 25.3777L138.745 25.664ZM30.1638 25.4444L29.8293 25.1567C30.3996 24.4897 30.9904 23.8234 31.5856 23.1766L31.9094 23.4764C31.3178 24.1193 30.7305 24.7814 30.1638 25.4444ZM135.201 21.7807C134.589 21.1572 133.957 20.5375 133.324 19.9387L133.627 19.6172C134.263 20.2197 134.899 20.8432 135.515 21.4706L135.201 21.7807ZM33.7253 21.5741L33.4127 21.2627C34.0313 20.6378 34.669 20.0169 35.308 19.4172L35.6089 19.7399C34.9738 20.3359 34.3401 20.953 33.7253 21.5741ZM131.381 18.1665C130.726 17.59 130.051 17.018 129.375 16.4663L129.653 16.1237C130.333 16.6787 131.012 17.2542 131.672 17.8342L131.381 18.1665ZM37.5579 17.9762L37.2688 17.6427C37.9308 17.0653 38.6117 16.493 39.293 15.9415L39.5696 16.2854C38.8926 16.8335 38.2158 17.4024 37.5579 17.9762ZM127.308 14.8409C126.613 14.315 125.898 13.794 125.182 13.2923L125.434 12.9301C126.155 13.4349 126.875 13.9591 127.573 14.4881L127.308 14.8409ZM41.6412 14.6699L41.3773 14.316C42.0798 13.7886 42.8005 13.2679 43.5193 12.7684L43.7701 13.1318C43.0557 13.6281 42.3394 14.1456 41.6412 14.6699ZM123.001 11.8229C122.269 11.3487 121.517 10.8815 120.767 10.4347L120.992 10.0547C121.747 10.5045 122.503 10.9744 123.24 11.4515L123.001 11.8229ZM45.9533 11.6733L45.7158 11.3011C46.4539 10.8274 47.2104 10.3613 47.9642 9.91573L48.188 10.2966C47.4386 10.7393 46.6868 11.2026 45.9533 11.6733V11.6733ZM118.483 9.12974C117.719 8.71156 116.935 8.30115 116.152 7.90994L116.349 7.51442C117.136 7.90811 117.925 8.32101 118.694 8.74178L118.483 9.12974ZM50.471 9.00329L50.2615 8.61446C51.0316 8.19693 51.82 7.78802 52.6044 7.39929L52.7995 7.79547C52.0198 8.18182 51.2364 8.58824 50.471 9.00329ZM113.778 6.77699C112.985 6.41642 112.172 6.06535 111.363 5.73326L111.529 5.32415C112.344 5.65828 113.162 6.01173 113.96 6.37456L113.778 6.77699ZM55.1704 6.67503L54.99 6.27196C55.7872 5.91312 56.603 5.56377 57.4146 5.23384L57.5801 5.64339C56.7733 5.97137 55.9626 6.31846 55.1704 6.67503ZM108.91 4.77974C108.089 4.47818 107.252 4.18828 106.423 3.91802L106.559 3.49768C107.394 3.76968 108.235 4.06141 109.061 4.36479L108.91 4.77974ZM60.0254 4.70184L59.8753 4.28646C60.6978 3.98707 61.5366 3.69944 62.3682 3.43133L62.503 3.8521C61.6766 4.11848 60.843 4.40439 60.0254 4.70184ZM103.905 3.14941C103.066 2.91034 102.212 2.68408 101.367 2.47672L101.471 2.04754C102.322 2.25609 103.181 2.48384 104.025 2.72433L103.905 3.14941ZM65.0169 3.09299L64.8977 2.66747C65.7407 2.43001 66.6006 2.20484 67.4536 1.99823L67.5569 2.42785C66.7092 2.63316 65.8546 2.85693 65.0169 3.09299ZM98.8056 1.89886C97.9525 1.723 97.0843 1.56074 96.2249 1.41649L96.2976 0.980617C97.1622 1.12573 98.0359 1.28907 98.8942 1.46601L98.8056 1.89886ZM70.1196 1.85733L70.0323 1.42425C70.8923 1.24957 71.7663 1.08882 72.6303 0.946403L72.7017 1.38249C71.8431 1.52395 70.9743 1.68373 70.1196 1.85733V1.85733ZM93.6282 1.0297C92.7627 0.917175 91.8848 0.819533 91.0191 0.739155L91.0597 0.299182C91.9308 0.379993 92.814 0.478279 93.6848 0.591456L93.6282 1.0297ZM75.2996 1.00349L75.2442 0.565023C76.1123 0.454652 76.9958 0.358845 77.8701 0.280195L77.9094 0.720384C77.0404 0.798499 76.1624 0.893764 75.2996 1.00349V1.00349ZM88.401 0.544523C87.5329 0.495865 86.6503 0.462636 85.7778 0.445697L85.7864 0.0037812C86.6641 0.0209364 87.5521 0.0543801 88.4256 0.103254L88.401 0.544523ZM80.5281 0.53319L80.5049 0.0919186C81.3796 0.0454202 82.2678 0.0145633 83.1448 0L83.1521 0.441916C82.2804 0.456272 81.3976 0.487021 80.5281 0.53319Z" fill="#6C63FF"/>
<path d="M154.208 57.2602C154.118 56.8284 154.024 56.3981 153.926 55.9693L154.355 55.8705C154.454 56.302 154.548 56.7351 154.639 57.1696L154.208 57.2602Z" fill="#6C63FF"/>
<path d="M154.802 86.0733L154.37 85.9877C154.455 85.5561 154.536 85.1231 154.613 84.6888L155.047 84.7662C154.969 85.2034 154.888 85.6391 154.802 86.0733Z" fill="#6C63FF"/>
<path d="M84.3614 144.055C83.8826 144.055 83.405 144.05 82.9284 144.04L82.937 143.599C83.8079 143.616 84.6847 143.617 85.5565 143.603L85.5636 144.045C85.1637 144.051 84.7629 144.054 84.3614 144.055ZM88.1975 143.954L88.1742 143.512C89.0455 143.466 89.9244 143.404 90.7865 143.326L90.8257 143.767C89.9583 143.844 89.074 143.907 88.1975 143.954ZM80.2955 143.941C79.4211 143.892 78.537 143.826 77.6679 143.746L77.7083 143.306C78.5723 143.386 79.451 143.451 80.32 143.5L80.2955 143.941ZM93.4455 143.484L93.3902 143.045C94.2573 142.935 95.1293 142.808 95.982 142.668L96.0532 143.104C95.1953 143.245 94.318 143.373 93.4455 143.484V143.484ZM75.0488 143.454C74.1784 143.341 73.3014 143.211 72.4422 143.067L72.5149 142.631C73.3688 142.774 74.2404 142.904 75.1054 143.016L75.0488 143.454ZM98.6454 142.629L98.5583 142.196C99.4131 142.023 100.273 141.832 101.115 141.629L101.218 142.059C100.371 142.263 99.5056 142.455 98.6454 142.629ZM69.8516 142.583C68.9923 142.406 68.1272 142.211 67.2805 142.004L67.3851 141.575C68.2264 141.781 69.0862 141.974 69.9403 142.15L69.8516 142.583ZM103.769 141.393L103.65 140.967C104.486 140.733 105.329 140.479 106.158 140.212L106.293 140.633C105.459 140.901 104.61 141.157 103.769 141.393V141.393ZM64.7323 141.33C63.8903 141.091 63.0397 140.831 62.2041 140.56L62.3399 140.139C63.1704 140.409 64.0157 140.667 64.8526 140.905L64.7323 141.33ZM108.78 139.782L108.63 139.367C109.444 139.071 110.266 138.756 111.071 138.43L111.236 138.84C110.425 139.168 109.599 139.485 108.78 139.783L108.78 139.782ZM59.7069 139.696C58.8835 139.395 58.0548 139.073 57.2438 138.741L57.4102 138.332C58.2162 138.662 59.0399 138.981 59.8581 139.281L59.7069 139.696ZM113.655 137.807L113.475 137.404C114.268 137.048 115.064 136.673 115.841 136.289L116.036 136.686C115.254 137.072 114.453 137.449 113.655 137.807L113.655 137.807ZM54.8183 137.695C54.02 137.333 53.2177 136.951 52.4335 136.56L52.6297 136.164C53.4089 136.553 54.2064 136.932 54.9998 137.292L54.8183 137.695ZM118.375 135.476L118.166 135.087C118.932 134.673 119.698 134.241 120.445 133.801L120.668 134.182C119.917 134.624 119.145 135.06 118.375 135.476H118.375ZM50.0926 135.338C49.3229 134.918 48.5512 134.478 47.7985 134.03L48.0232 133.65C48.7712 134.095 49.5383 134.532 50.3032 134.949L50.0926 135.338ZM122.914 132.803L122.677 132.43C123.406 131.964 124.139 131.476 124.857 130.979L125.107 131.343C124.385 131.842 123.647 132.334 122.914 132.803H122.914ZM45.5546 132.639C44.8189 132.164 44.0817 131.669 43.3632 131.167L43.615 130.805C44.3291 131.303 45.0619 131.796 45.7929 132.268L45.5546 132.639ZM127.246 129.802L126.983 129.448C127.678 128.928 128.374 128.387 129.052 127.84L129.328 128.185C128.646 128.735 127.945 129.279 127.246 129.802L127.246 129.802ZM41.2276 129.616C40.5299 129.089 39.8309 128.541 39.1502 127.987L39.4277 127.644C40.1043 128.195 40.799 128.739 41.4924 129.263L41.2276 129.616ZM131.35 126.491L131.062 126.157C131.719 125.587 132.374 124.996 133.01 124.402L133.31 124.725C132.67 125.323 132.011 125.917 131.35 126.491L131.35 126.491ZM37.1338 126.283C36.4743 125.705 35.8172 125.108 35.1811 124.508L35.4829 124.186C36.1151 124.782 36.7681 125.376 37.4237 125.951L37.1338 126.283ZM135.205 122.888L134.893 122.576C135.508 121.957 136.119 121.319 136.708 120.682L137.031 120.983C136.439 121.624 135.824 122.265 135.205 122.888ZM33.2945 122.662C32.6807 122.039 32.0691 121.396 31.4765 120.749L31.8009 120.45C32.3898 121.093 32.9977 121.732 33.6078 122.351L33.2945 122.662ZM138.787 119.011L138.454 118.723C139.022 118.061 139.585 117.38 140.127 116.7L140.471 116.976C139.926 117.66 139.359 118.345 138.787 119.011ZM29.7297 118.771C29.1625 118.104 28.5995 117.418 28.0562 116.73L28.4014 116.456C28.9414 117.139 29.501 117.821 30.0648 118.484L29.7297 118.771ZM142.08 114.881L141.726 114.617C142.246 113.914 142.758 113.194 143.248 112.477L143.612 112.727C143.119 113.448 142.604 114.173 142.08 114.881ZM26.4584 114.63C25.9407 113.924 25.4293 113.198 24.9383 112.473L25.3026 112.225C25.7906 112.945 26.2989 113.666 26.8133 114.368L26.4584 114.63ZM145.064 110.518L144.692 110.282C145.156 109.546 145.615 108.79 146.054 108.035L146.434 108.258C145.993 109.018 145.531 109.778 145.064 110.518ZM23.4983 110.263C23.0341 109.521 22.5771 108.76 22.1402 108.001L22.5216 107.78C22.9559 108.534 23.4101 109.291 23.8715 110.028L23.4983 110.263ZM147.721 105.947L147.333 105.739C147.745 104.966 148.146 104.178 148.527 103.396L148.923 103.59C148.54 104.377 148.136 105.17 147.721 105.947ZM20.866 105.692C20.4572 104.918 20.0573 104.125 19.6775 103.338L20.0742 103.145C20.4516 103.928 20.849 104.715 21.2553 105.485L20.866 105.692ZM150.037 101.19L149.634 101.011C149.987 100.214 150.329 99.3975 150.653 98.5853L151.062 98.7493C150.736 99.5666 150.392 100.388 150.037 101.19V101.19ZM18.5764 100.941C18.2253 100.139 17.8848 99.3196 17.5643 98.5069L17.9739 98.3442C18.2924 99.1521 18.6308 99.966 18.9797 100.764L18.5764 100.941ZM151.997 96.2717L151.582 96.1228C151.876 95.2987 152.158 94.4589 152.42 93.6269L152.84 93.7602C152.576 94.5972 152.292 95.4422 151.997 96.2717ZM16.6428 96.0374C16.3513 95.2103 16.0712 94.3664 15.8105 93.5289L16.2311 93.3973C16.4901 94.2293 16.7684 95.0681 17.0581 95.8902L16.6428 96.0374ZM153.589 91.2186L153.165 91.1008C153.395 90.2631 153.614 89.4069 153.814 88.5559L154.243 88.6577C154.041 89.5139 153.821 90.3755 153.589 91.2186ZM15.0713 90.9918C14.842 90.1466 14.6252 89.2854 14.4269 88.4318L14.856 88.3317C15.053 89.1799 15.2685 90.0359 15.4964 90.8757L15.0713 90.9918Z" fill="#006478"/>
<path d="M13.8673 85.7994C13.7834 85.3648 13.7033 84.9289 13.6272 84.4915L14.0613 84.4155C14.1368 84.8501 14.2163 85.2834 14.2998 85.7153L13.8673 85.7994Z" fill="#6C63FF"/>
<path d="M120.323 86.2753L119.913 86.1128C120.073 85.7074 120.228 85.2923 120.375 84.8789L120.79 85.0271C120.642 85.4453 120.485 85.8652 120.323 86.2753Z" fill="#6C63FF"/>
<path d="M84.3612 110.8C83.8336 110.8 83.3011 110.789 82.7785 110.768L82.7964 110.327C83.6633 110.362 84.5495 110.368 85.4192 110.344L85.4313 110.786C85.0757 110.796 84.719 110.8 84.3612 110.8ZM88.0788 110.623L88.0371 110.183C88.9046 110.101 89.7795 109.986 90.6378 109.844L90.7096 110.28C89.8415 110.424 88.9564 110.539 88.0788 110.623ZM80.1331 110.571C79.2569 110.475 78.3735 110.348 77.5073 110.192L77.585 109.757C78.4412 109.911 79.3145 110.037 80.1808 110.132L80.1331 110.571ZM93.3107 109.756L93.2089 109.326C94.0571 109.124 94.908 108.89 95.7381 108.631L95.8691 109.053C95.0293 109.315 94.1686 109.552 93.3107 109.756V109.756ZM74.9134 109.634C74.058 109.418 73.2 109.17 72.3634 108.896L72.5 108.476C73.3271 108.747 74.1751 108.992 75.0208 109.205L74.9134 109.634ZM98.3734 108.174L98.2136 107.762C99.0243 107.446 99.8351 107.096 100.623 106.724L100.811 107.124C100.014 107.501 99.1935 107.854 98.3734 108.174V108.174ZM69.8705 107.983C69.0532 107.652 68.2376 107.287 67.4464 106.9L67.6396 106.503C68.4217 106.886 69.2279 107.246 70.0357 107.574L69.8705 107.983ZM103.171 105.908L102.956 105.522C103.717 105.096 104.473 104.638 105.201 104.162L105.442 104.532C104.705 105.014 103.941 105.477 103.171 105.908ZM65.1024 105.653C64.3389 105.212 63.581 104.738 62.8498 104.246L63.0952 103.879C63.8182 104.366 64.5674 104.834 65.3223 105.27L65.1024 105.653ZM107.614 103.003L107.349 102.651C108.045 102.123 108.731 101.566 109.388 100.995L109.676 101.329C109.012 101.907 108.318 102.47 107.614 103.003ZM60.6983 102.688C60.0008 102.146 59.3144 101.573 58.6581 100.986L58.9513 100.657C59.6 101.237 60.2787 101.803 60.9683 102.339L60.6983 102.688ZM111.62 99.5178L111.309 99.2045C111.927 98.588 112.531 97.9426 113.105 97.2862L113.436 97.5775C112.856 98.2415 112.245 98.8942 111.62 99.5178V99.5178ZM56.7384 99.1497C56.1223 98.5186 55.52 97.8578 54.948 97.1857L55.2831 96.8987C55.8485 97.5633 56.4441 98.2167 57.0531 98.8407L56.7384 99.1497ZM115.117 95.5177L114.766 95.2497C115.294 94.5555 115.805 93.8338 116.285 93.104L116.653 93.3474C116.167 94.0856 115.651 94.8158 115.117 95.5177ZM53.2954 95.1036C52.7701 94.3935 52.2631 93.6564 51.7885 92.913L52.1595 92.6748C52.6287 93.4095 53.1298 94.1382 53.6492 94.8404L53.2954 95.1036ZM118.036 91.0768L117.653 90.8592C118.081 90.0991 118.489 89.3138 118.865 88.5254L119.262 88.7159C118.882 89.5134 118.47 90.3077 118.037 91.0768H118.036ZM50.4351 90.6245C50.0114 89.8485 49.6098 89.0489 49.2415 88.2479L49.6415 88.0627C50.0056 88.8547 50.4027 89.6451 50.8214 90.4122L50.4351 90.6245Z" fill="#006478"/>
<path d="M48.2082 85.7794C48.0523 85.3674 47.9009 84.9453 47.7581 84.5247L48.1751 84.3823C48.3163 84.798 48.466 85.2153 48.6201 85.6225L48.2082 85.7794Z" fill="#6C63FF"/>
<path d="M48.8888 57.7318L48.4801 57.5669C48.6451 57.1551 48.819 56.7418 48.997 56.3386L49.3999 56.5175C49.2239 56.9162 49.0519 57.3246 48.8888 57.7318Z" fill="#6C63FF"/>
<path d="M50.5373 54.1468L50.1479 53.9403C50.5641 53.1509 51.0135 52.3656 51.4839 51.6066L51.8579 51.8399C51.3931 52.5903 50.9488 53.3664 50.5373 54.1468ZM117.797 53.5031C117.371 52.7313 116.912 51.9639 116.433 51.222L116.803 50.9816C117.288 51.732 117.752 52.5084 118.183 53.2891L117.797 53.5031ZM53.3348 49.6304L52.9776 49.3717C53.4989 48.6473 54.0522 47.9321 54.622 47.2457L54.9605 47.5286C54.3972 48.2071 53.8502 48.9142 53.3348 49.6304ZM114.914 49.0411C114.386 48.3356 113.826 47.639 113.249 46.9707L113.582 46.6816C114.166 47.3575 114.732 48.062 115.267 48.7757L114.914 49.0411ZM56.7268 45.5443L56.4085 45.2388C57.0241 44.5935 57.6702 43.9614 58.3287 43.36L58.6253 43.6869C57.9742 44.2814 57.3355 44.9063 56.7268 45.5443ZM111.446 45.0205C110.825 44.3941 110.175 43.7814 109.513 43.1994L109.803 42.8671C110.473 43.4557 111.131 44.0754 111.759 44.7089L111.446 45.0205ZM60.6469 41.9651L60.3735 41.6185C61.0723 41.0639 61.7989 40.527 62.5331 40.0228L62.782 40.3875C62.0561 40.886 61.3378 41.4167 60.6469 41.9651ZM107.459 41.5166C106.759 40.9821 106.03 40.4651 105.294 39.98L105.536 39.6106C106.281 40.1013 107.017 40.6242 107.726 41.1648L107.459 41.5166ZM65.0206 38.9622L64.7976 38.5811C65.5654 38.1289 66.359 37.698 67.1563 37.3004L67.3524 37.6961C66.5642 38.0891 65.7797 38.5152 65.0206 38.9622ZM103.029 38.5976C102.26 38.1645 101.467 37.7537 100.673 37.3763L100.861 36.9769C101.665 37.3586 102.467 37.7743 103.244 38.2122L103.029 38.5976ZM69.7665 36.5957L69.5983 36.1873C70.4213 35.8463 71.267 35.5303 72.1117 35.248L72.2508 35.6672C71.4159 35.9463 70.58 36.2587 69.7665 36.5957ZM98.2379 36.3228C97.4172 36.0011 96.5754 35.705 95.7359 35.4423L95.8671 35.0204C96.7163 35.2862 97.5679 35.5858 98.3982 35.9111L98.2379 36.3228ZM74.794 34.9152L74.6843 34.4872C75.5462 34.2649 76.4276 34.0701 77.3038 33.9085L77.3834 34.3431C76.5173 34.5029 75.6461 34.6954 74.794 34.9152ZM93.1786 34.7394C92.3222 34.536 91.4475 34.3604 90.5787 34.2173L90.6501 33.7812C91.5289 33.9259 92.4137 34.1036 93.2802 34.3093L93.1786 34.7394ZM80.0065 33.9532L79.957 33.5141C80.839 33.4142 81.7386 33.3437 82.6309 33.3046L82.6502 33.746C81.7678 33.7848 80.8784 33.8545 80.0065 33.9532ZM87.9489 33.8779C87.0744 33.7957 86.1838 33.7429 85.3019 33.7211L85.3127 33.2794C86.2047 33.3014 87.1055 33.3547 87.99 33.4379L87.9489 33.8779Z" fill="#6C63FF"/>
<path d="M119.561 57.0683C119.39 56.6646 119.21 56.2594 119.027 55.8639L119.426 55.6774C119.612 56.0775 119.793 56.4875 119.966 56.8957L119.561 57.0683Z" fill="#6C63FF"/>
<path d="M125.247 71.9699C124.668 71.9676 124.107 72.1668 123.658 72.5335C123.21 72.9002 122.902 73.4117 122.787 73.9806C122.673 74.5496 122.759 75.1407 123.03 75.6533C123.302 76.1659 123.742 76.568 124.276 76.7912C124.81 77.0143 125.405 77.0447 125.959 76.877C126.513 76.7093 126.992 76.354 127.314 75.8717C127.636 75.3894 127.781 74.81 127.724 74.2323C127.668 73.6547 127.413 73.1146 127.004 72.7041C126.774 72.4709 126.501 72.2859 126.199 72.1598C125.897 72.0337 125.574 71.9692 125.247 71.9699Z" fill="#006478"/>
<path d="M115.282 71.9699C114.703 71.9676 114.142 72.1668 113.693 72.5335C113.244 72.9002 112.937 73.4117 112.822 73.9806C112.708 74.5496 112.793 75.1407 113.065 75.6533C113.336 76.1659 113.777 76.568 114.311 76.7912C114.845 77.0143 115.44 77.0447 115.994 76.877C116.548 76.7093 117.027 76.354 117.349 75.8717C117.67 75.3894 117.816 74.81 117.759 74.2323C117.703 73.6547 117.448 73.1146 117.039 72.7041C116.809 72.4715 116.535 72.2868 116.233 72.1608C115.932 72.0348 115.608 71.9699 115.282 71.9699Z" fill="#006478"/>
<path d="M120.264 58.1018C117.781 58.1018 115.354 58.8405 113.289 60.2244C111.224 61.6083 109.615 63.5753 108.665 65.8767C107.715 68.178 107.466 70.7104 107.95 73.1535C108.435 75.5966 109.631 77.8408 111.387 79.6022C113.142 81.3635 115.379 82.5631 117.815 83.049C120.25 83.535 122.775 83.2856 125.069 82.3323C127.363 81.3791 129.324 79.7648 130.703 77.6936C132.083 75.6224 132.819 73.1874 132.819 70.6964C132.819 67.3561 131.497 64.1526 129.142 61.7907C126.788 59.4287 123.594 58.1018 120.264 58.1018ZM122.704 63.3538C122.864 63.3523 123.022 63.3827 123.17 63.4433C123.318 63.5038 123.452 63.5934 123.565 63.7066C123.678 63.8198 123.767 63.9545 123.827 64.1027C123.888 64.251 123.918 64.4098 123.916 64.5699C123.918 64.8126 123.848 65.0503 123.714 65.2527C123.581 65.4551 123.39 65.6132 123.167 65.7067C122.944 65.8003 122.698 65.8252 122.46 65.7782C122.223 65.7313 122.005 65.6145 121.834 65.4429C121.663 65.2713 121.546 65.0526 121.5 64.8145C121.453 64.5763 121.478 64.3296 121.571 64.1057C121.664 63.8818 121.822 63.6907 122.024 63.5569C122.225 63.423 122.462 63.3523 122.704 63.3538ZM115.282 78.039C114.578 78.0394 113.889 77.8303 113.304 77.4382C112.718 77.046 112.262 76.4885 111.992 75.8361C111.723 75.1837 111.652 74.4658 111.789 73.7731C111.927 73.0804 112.266 72.4441 112.763 71.9447C113.261 71.4453 113.895 71.1053 114.586 70.9676C115.276 70.8299 115.992 70.9008 116.643 71.1712C117.293 71.4417 117.849 71.8995 118.24 72.4869C118.63 73.0743 118.839 73.7647 118.839 74.471C118.835 75.4163 118.46 76.322 117.793 76.9905C117.127 77.6589 116.224 78.0359 115.282 78.039H115.282ZM120.874 70.9259V74.3677C120.874 74.53 120.81 74.6856 120.696 74.8004C120.581 74.9151 120.426 74.9796 120.264 74.9796C120.103 74.9796 119.947 74.9151 119.833 74.8004C119.719 74.6856 119.654 74.53 119.654 74.3677V71.8475C119.654 71.3465 119.044 71.2356 117.31 70.2337C117.085 70.0998 116.605 69.8627 116.605 69.1973C116.608 68.8766 116.735 68.5698 116.959 68.3407L119.692 65.6981C119.822 65.5664 119.981 65.4667 120.155 65.4068C120.33 65.3469 120.516 65.3285 120.699 65.3529C120.882 65.3774 121.056 65.4441 121.209 65.5478C121.362 65.6515 121.489 65.7893 121.58 65.9505L122.704 68.2489H124.534C124.696 68.2492 124.85 68.3138 124.965 68.4285C125.079 68.5432 125.143 68.6987 125.143 68.8608C125.143 69.0228 125.079 69.1783 124.965 69.293C124.85 69.4077 124.696 69.4723 124.534 69.4727H122.346C121.938 69.4727 121.61 68.5931 120.897 67.5031L119.033 69.4727C119.715 70.008 120.874 70.4211 120.874 70.9259H120.874ZM125.247 78.0352C124.543 78.0352 123.856 77.8259 123.271 77.4339C122.686 77.0418 122.23 76.4846 121.961 75.8326C121.692 75.1806 121.621 74.4632 121.758 73.7711C121.896 73.0789 122.234 72.4432 122.732 71.9442C123.229 71.4452 123.863 71.1053 124.553 70.9677C125.243 70.83 125.958 70.9007 126.608 71.1707C127.258 71.4408 127.814 71.8981 128.204 72.4849C128.595 73.0716 128.804 73.7615 128.804 74.4671C128.801 75.4125 128.425 76.3184 127.759 76.9869C127.092 77.6554 126.189 78.0322 125.247 78.0352H125.247Z" fill="#006478"/>
<path d="M155.947 58.1018C153.464 58.1018 151.037 58.8405 148.972 60.2244C146.907 61.6083 145.298 63.5753 144.348 65.8767C143.398 68.178 143.149 70.7104 143.633 73.1535C144.118 75.5966 145.314 77.8408 147.069 79.6022C148.825 81.3635 151.062 82.5631 153.498 83.049C155.933 83.535 158.458 83.2856 160.752 82.3323C163.046 81.3791 165.007 79.7648 166.386 77.6936C167.766 75.6224 168.502 73.1874 168.502 70.6964C168.502 67.3561 167.179 64.1526 164.825 61.7907C162.47 59.4287 159.277 58.1018 155.947 58.1018ZM152.619 67.1054C153.003 67.1143 153.376 67.2368 153.691 67.4573C154.006 67.6779 154.249 67.9869 154.39 68.3455C154.531 68.7041 154.563 69.0964 154.483 69.4733C154.403 69.8502 154.213 70.1949 153.938 70.4643C153.663 70.7337 153.316 70.9157 152.938 70.9876C152.561 71.0595 152.17 71.0181 151.816 70.8685C151.462 70.719 151.16 70.4679 150.947 70.1468C150.735 69.8257 150.621 69.4489 150.621 69.0634C150.624 68.8032 150.678 68.5461 150.78 68.3068C150.882 68.0675 151.03 67.8507 151.215 67.6689C151.401 67.487 151.621 67.3436 151.861 67.247C152.102 67.1503 152.36 67.1022 152.619 67.1054V67.1054ZM163.267 75.5915H161.936V73.6334H149.958V75.5915H148.628V65.8013H149.958V71.6754H155.28V67.1054H160.606C160.951 67.1016 161.295 67.1661 161.615 67.2953C161.936 67.4246 162.229 67.6159 162.476 67.8585C162.723 68.101 162.92 68.39 163.056 68.709C163.191 69.0279 163.263 69.3706 163.267 69.7174V75.5915Z" fill="#006478"/>
<path d="M16.9774 67.3311H13.2413C13.2009 67.3312 13.1622 67.3473 13.1337 67.376C13.1051 67.4047 13.089 67.4435 13.0889 67.484V72.838C13.089 72.8786 13.1051 72.9174 13.1337 72.946C13.1622 72.9747 13.2009 72.9909 13.2413 72.991H16.9774C17.139 72.9905 17.2939 72.9259 17.4082 72.8112C17.5224 72.6966 17.5869 72.5412 17.5873 72.3791V67.9429C17.5869 67.7808 17.5224 67.6254 17.4082 67.5108C17.2939 67.3961 17.139 67.3315 16.9774 67.3311Z" fill="#006478"/>
<path d="M16.1387 74.1382C15.9645 74.1525 15.7979 74.2164 15.6587 74.3226C15.5195 74.4287 15.4135 74.5726 15.3532 74.7373C15.2929 74.9019 15.2808 75.0804 15.3184 75.2517C15.356 75.423 15.4417 75.5799 15.5653 75.704C15.6889 75.828 15.8454 75.9139 16.0161 75.9516C16.1869 75.9893 16.3648 75.9772 16.529 75.9167C16.6931 75.8563 16.8365 75.7499 16.9423 75.6103C17.0482 75.4706 17.1119 75.3035 17.1261 75.1287C17.1366 74.996 17.1182 74.8625 17.0723 74.7376C17.0264 74.6127 16.954 74.4992 16.8602 74.405C16.7663 74.3109 16.6532 74.2383 16.5286 74.1922C16.4041 74.1461 16.2711 74.1277 16.1387 74.1382Z" fill="#006478"/>
<path d="M8.82281 74.1382C8.64854 74.1525 8.48197 74.2164 8.34277 74.3226C8.20358 74.4287 8.09757 74.5726 8.03727 74.7373C7.97698 74.9019 7.96491 75.0804 8.0025 75.2517C8.04008 75.423 8.12575 75.5799 8.24939 75.704C8.37302 75.828 8.52946 75.9139 8.70022 75.9516C8.87098 75.9893 9.04893 75.9772 9.21305 75.9167C9.37717 75.8563 9.52061 75.7499 9.62642 75.6103C9.73223 75.4706 9.796 75.3035 9.81018 75.1287C9.82066 74.996 9.80231 74.8625 9.7564 74.7376C9.71049 74.6127 9.6381 74.4992 9.54424 74.405C9.45037 74.3109 9.33727 74.2383 9.21272 74.1922C9.08817 74.1461 8.95514 74.1277 8.82281 74.1382Z" fill="#006478"/>
<path d="M11.8689 67.3311H8.14053C7.97693 67.3317 7.82019 67.3971 7.70451 67.5132C7.58882 67.6292 7.52356 67.7865 7.52295 67.9506V72.3715C7.52356 72.5356 7.58882 72.6928 7.70451 72.8089C7.82019 72.9249 7.97693 72.9904 8.14053 72.991H11.8689C11.9093 72.9909 11.9481 72.9747 11.9766 72.946C12.0052 72.9174 12.0213 72.8786 12.0214 72.838V67.484C12.0213 67.4435 12.0052 67.4047 11.9766 67.376C11.9481 67.3473 11.9093 67.3312 11.8689 67.3311Z" fill="#006478"/>
<path d="M12.5551 58.1018C10.0719 58.1018 7.64452 58.8405 5.57985 60.2244C3.51518 61.6083 1.90597 63.5753 0.955703 65.8767C0.00544014 68.178 -0.243192 70.7104 0.241248 73.1535C0.725688 75.5966 1.92144 77.8408 3.6773 79.6022C5.43316 81.3635 7.67026 82.5631 10.1057 83.049C12.5411 83.535 15.0655 83.2856 17.3597 82.3323C19.6538 81.3791 21.6147 79.7648 22.9942 77.6936C24.3738 75.6224 25.1101 73.1874 25.1101 70.6964C25.1101 67.3561 23.7874 64.1526 21.4328 61.7907C19.0783 59.4287 15.8849 58.1018 12.5551 58.1018ZM18.6547 75.8209C18.6535 76.2263 18.4925 76.6147 18.2068 76.9013C17.921 77.1879 17.5339 77.3495 17.1298 77.3506H7.98035C7.57629 77.3495 7.18911 77.1879 6.90339 76.9013C6.61767 76.6147 6.45663 76.2263 6.45544 75.8209V65.2659C6.45639 64.9417 6.58522 64.6309 6.81379 64.4017C7.04237 64.1724 7.35211 64.0431 7.67536 64.0422H17.4348C17.758 64.0431 18.0678 64.1724 18.2963 64.4017C18.5249 64.6309 18.6538 64.9417 18.6547 65.2659V75.8209Z" fill="#006478"/>
<path d="M17.0155 65.113H8.09479C8.0216 65.1079 7.94816 65.118 7.87903 65.1426C7.80989 65.1672 7.74654 65.2058 7.69291 65.256C7.63928 65.3062 7.59651 65.367 7.56728 65.4345C7.53804 65.502 7.52295 65.5748 7.52295 65.6484C7.52295 65.722 7.53804 65.7948 7.56728 65.8623C7.59651 65.9297 7.63928 65.9905 7.69291 66.0407C7.74654 66.0909 7.80989 66.1295 7.87903 66.1541C7.94816 66.1787 8.0216 66.1888 8.09479 66.1838H17.0155C17.0887 66.1888 17.1621 66.1787 17.2313 66.1541C17.3004 66.1295 17.3638 66.0909 17.4174 66.0407C17.471 65.9905 17.5138 65.9297 17.543 65.8623C17.5723 65.7948 17.5873 65.722 17.5873 65.6484C17.5873 65.5748 17.5723 65.502 17.543 65.4345C17.5138 65.367 17.471 65.3062 17.4174 65.256C17.3638 65.2058 17.3004 65.1672 17.2313 65.1426C17.1621 65.118 17.0887 65.1079 17.0155 65.113Z" fill="#006478"/>
<path d="M50.1354 71.0406C49.8838 71.0406 49.678 71.4154 49.678 71.8819C49.678 72.3485 49.8838 72.7233 50.1354 72.7233C50.3871 72.7233 50.5929 72.3485 50.5929 71.8819C50.5929 71.4154 50.3871 71.0406 50.1354 71.0406Z" fill="#006478"/>
<path d="M46.7807 71.0406C46.5291 71.0406 46.3232 71.4154 46.3232 71.8819C46.3232 72.3485 46.5291 72.7233 46.7807 72.7233C47.0324 72.7233 47.2382 72.3485 47.2382 71.8819C47.2382 71.4154 47.0323 71.0406 46.7807 71.0406Z" fill="#006478"/>
<path d="M48.4583 58.1018C45.9751 58.1018 43.5477 58.8405 41.483 60.2244C39.4184 61.6083 37.8092 63.5753 36.8589 65.8767C35.9086 68.178 35.66 70.7104 36.1444 73.1535C36.6289 75.5966 37.8246 77.8408 39.5805 79.6022C41.3364 81.3635 43.5735 82.5631 46.0089 83.049C48.4443 83.535 50.9687 83.2856 53.2629 82.3323C55.557 81.3791 57.5179 79.7648 58.8974 77.6936C60.277 75.6224 61.0133 73.1874 61.0133 70.6964C61.0133 67.3561 59.6906 64.1526 57.336 61.7907C54.9815 59.4287 51.7881 58.1018 48.4583 58.1018ZM42.5874 70.2681L43.2812 66.5662C43.4604 65.5604 43.9255 64.7688 44.7985 64.7688H46.1099L46.1862 64.4667C46.253 64.2031 46.4054 63.9694 46.6194 63.8025C46.8335 63.6356 47.0969 63.545 47.368 63.545H49.541C49.8115 63.5449 50.0744 63.635 50.2884 63.8011C50.5023 63.9673 50.6551 64.2001 50.7228 64.4628L50.799 64.7688H52.118C52.972 64.7688 53.4257 65.5451 53.6391 66.5624V66.5662L54.3368 70.2719C54.3423 70.2996 54.3401 70.3283 54.3304 70.3548C54.3206 70.3812 54.3038 70.4045 54.2816 70.4219C54.2595 70.4394 54.233 70.4503 54.205 70.4535C54.1771 70.4568 54.1488 70.4521 54.1233 70.4402L53.155 69.9928C53.1322 69.9833 53.1121 69.9681 53.0968 69.9487C53.0815 69.9293 53.0713 69.9063 53.0673 69.8819L52.4497 66.6083C52.3353 66.1876 52.1752 65.9964 51.8359 65.9964H45.0844C44.7489 65.9964 44.5659 66.1991 44.4706 66.6083L43.853 69.8818C43.8483 69.906 43.8379 69.9287 43.8227 69.948C43.8074 69.9673 43.7878 69.9827 43.7654 69.9928L42.8009 70.4364C42.7754 70.4479 42.7472 70.4523 42.7194 70.4489C42.6916 70.4455 42.6652 70.4346 42.6432 70.4172C42.6212 70.3999 42.6043 70.3768 42.5945 70.3505C42.5847 70.3242 42.5822 70.2957 42.5874 70.2681ZM56.0332 72.6506L53.9479 77.8478C52.8996 77.8478 51.7864 77.0065 51.7864 77.0065C51.1002 77.3545 49.7621 77.6604 48.7632 77.7178C48.6565 77.7216 48.5536 77.7254 48.4583 77.7254C48.363 77.7254 48.26 77.7254 48.1533 77.7178C47.1545 77.6604 45.8164 77.3507 45.1301 77.0065C45.1301 77.0065 44.017 77.8478 42.9686 77.8478L40.8833 72.6506C40.8511 72.569 40.8343 72.4821 40.8337 72.3944C40.8338 72.2624 40.8715 72.1332 40.9424 72.0221C41.0134 71.9109 41.1145 71.8225 41.234 71.7672L48.3286 68.4975C48.3686 68.4786 48.4122 68.4688 48.4563 68.4688C48.5005 68.4688 48.5441 68.4786 48.5841 68.4975L55.6825 71.7672C55.802 71.8225 55.9031 71.9109 55.9741 72.0221C56.045 72.1332 56.0827 72.2624 56.0828 72.3944C56.0822 72.4821 56.0654 72.569 56.0332 72.6506Z" fill="#006478"/>
<path d="M84.3611 58.1018C81.8779 58.1018 79.4505 58.8405 77.3859 60.2244C75.3212 61.6083 73.712 63.5753 72.7617 65.8767C71.8115 68.178 71.5628 70.7104 72.0473 73.1535C72.5317 75.5966 73.7275 77.8408 75.4833 79.6022C77.2392 81.3635 79.4763 82.5631 81.9117 83.049C84.3472 83.535 86.8716 83.2856 89.1657 82.3323C91.4599 81.3791 93.4207 79.7648 94.8003 77.6936C96.1798 75.6224 96.9162 73.1874 96.9162 70.6964C96.9162 67.3561 95.5934 64.1526 93.2389 61.7907C90.8843 59.4287 87.6909 58.1018 84.3611 58.1018ZM90.1448 71.924C90.0152 71.924 89.5844 71.9202 89.4586 71.9125L86.9844 71.8475C86.9716 71.8472 86.9589 71.8502 86.9475 71.8562C86.9362 71.8623 86.9266 71.8711 86.9196 71.8819L83.2065 77.4501C83.1515 77.537 83.0754 77.6085 82.9855 77.658C82.8955 77.7075 82.7944 77.7333 82.6918 77.7331H81.7883C81.5748 77.7331 81.5024 77.5189 81.5786 77.3201L83.4886 71.8552C83.493 71.8438 83.4946 71.8316 83.4932 71.8195C83.4919 71.8074 83.4877 71.7958 83.481 71.7857C83.4743 71.7755 83.4652 71.7672 83.4546 71.7613C83.444 71.7554 83.4321 71.7522 83.42 71.7519L78.7804 71.6487C78.7322 71.6476 78.6844 71.6577 78.6407 71.6783C78.5971 71.6989 78.5588 71.7293 78.5288 71.7672L77.0916 73.5149C77.0341 73.5874 76.961 73.646 76.8779 73.6864C76.7947 73.7268 76.7036 73.7479 76.6112 73.7482H75.9746C75.9502 73.7484 75.9261 73.7428 75.9044 73.7317C75.8826 73.7207 75.8638 73.7045 75.8496 73.6846C75.8354 73.6647 75.8262 73.6417 75.8227 73.6175C75.8192 73.5933 75.8217 73.5686 75.8297 73.5455L76.5884 70.9182C76.6456 70.7719 76.6456 70.6094 76.5884 70.4631L75.8297 67.8359C75.8217 67.8128 75.8192 67.7881 75.8227 67.7638C75.8262 67.7396 75.8354 67.7166 75.8496 67.6967C75.8638 67.6768 75.8826 67.6607 75.9044 67.6496C75.9261 67.6386 75.9502 67.6329 75.9746 67.6332H76.6151C76.7076 67.6326 76.799 67.6534 76.8823 67.6938C76.9655 67.7343 77.0384 67.7933 77.0954 67.8665L78.5059 69.5874C78.5356 69.6256 78.5739 69.6562 78.6176 69.6768C78.6613 69.6974 78.7093 69.7074 78.7575 69.7059L83.4238 69.6371C83.436 69.637 83.448 69.634 83.4588 69.6281C83.4695 69.6223 83.4787 69.614 83.4855 69.6038C83.4922 69.5936 83.4964 69.5819 83.4976 69.5697C83.4988 69.5575 83.497 69.5452 83.4924 69.5338L81.5824 64.0728C81.5062 63.8739 81.5786 63.6597 81.7921 63.6597H82.6956C82.7982 63.6599 82.899 63.686 82.9889 63.7354C83.0789 63.7848 83.155 63.8561 83.2103 63.9427L86.9196 69.5147C86.9262 69.5259 86.9358 69.535 86.9472 69.541C86.9587 69.5471 86.9715 69.5499 86.9844 69.5491L89.4586 69.4841C89.5806 69.4765 90.0152 69.4727 90.1448 69.4727C91.8375 69.4727 92.9011 70.0234 92.9011 70.7002C92.9011 71.3771 91.8336 71.924 90.1448 71.924Z" fill="#006478"/>
<path d="M14.4652 113.15C13.9424 113.15 13.4314 112.995 12.9967 112.704C12.5621 112.412 12.2233 111.998 12.0232 111.514C11.8232 111.029 11.7708 110.496 11.8728 109.982C11.9748 109.467 12.2265 108.995 12.5962 108.624C12.9658 108.253 13.4368 108.001 13.9495 107.898C14.4623 107.796 14.9937 107.849 15.4767 108.049C15.9597 108.25 16.3725 108.59 16.6629 109.026C16.9533 109.462 17.1084 109.974 17.1084 110.499C17.1076 111.202 16.8288 111.876 16.3333 112.373C15.8378 112.87 15.166 113.15 14.4652 113.15ZM14.4652 108.289C14.0296 108.289 13.6037 108.419 13.2415 108.662C12.8792 108.904 12.5969 109.25 12.4302 109.653C12.2635 110.057 12.2199 110.501 12.3049 110.93C12.3899 111.359 12.5996 111.752 12.9077 112.061C13.2157 112.37 13.6082 112.581 14.0355 112.666C14.4627 112.751 14.9056 112.708 15.3081 112.54C15.7106 112.373 16.0546 112.09 16.2966 111.726C16.5387 111.363 16.6678 110.936 16.6678 110.499C16.6672 109.913 16.4349 109.351 16.022 108.937C15.609 108.523 15.0492 108.29 14.4652 108.289Z" fill="#F0F0F0"/>
<path d="M70.1921 53.7126C69.6694 53.7126 69.1583 53.5571 68.7237 53.2658C68.289 52.9744 67.9502 52.5603 67.7502 52.0758C67.5501 51.5913 67.4978 51.0582 67.5997 50.5438C67.7017 50.0295 67.9535 49.557 68.3231 49.1862C68.6928 48.8154 69.1637 48.5629 69.6765 48.4606C70.1892 48.3582 70.7206 48.4108 71.2036 48.6114C71.6866 48.8121 72.0994 49.152 72.3898 49.588C72.6803 50.024 72.8353 50.5367 72.8353 51.0611C72.8345 51.7641 72.5558 52.438 72.0603 52.9351C71.5647 53.4322 70.8929 53.7118 70.1921 53.7126ZM70.1921 48.8515C69.7565 48.8515 69.3306 48.9811 68.9684 49.2239C68.6062 49.4667 68.3239 49.8118 68.1571 50.2155C67.9904 50.6193 67.9468 51.0636 68.0318 51.4922C68.1168 51.9208 68.3266 52.3145 68.6346 52.6235C68.9427 52.9325 69.3351 53.143 69.7624 53.2282C70.1897 53.3135 70.6326 53.2697 71.035 53.1025C71.4375 52.9353 71.7815 52.6521 72.0236 52.2887C72.2656 51.9253 72.3948 51.4981 72.3948 51.0611C72.3941 50.4753 72.1619 49.9137 71.7489 49.4994C71.336 49.0852 70.7761 48.8522 70.1921 48.8515Z" fill="#F0F0F0"/>
<path d="M119.415 126.49L116.449 123.3L119.629 120.325L122.595 123.514L119.415 126.49ZM116.922 123.316L119.432 126.015L122.122 123.498L119.613 120.799L116.922 123.316Z" fill="#F0F0F0"/>
</g>
<defs>
<clipPath id="clip0">
<rect width="225" height="173" fill="white"/>
</clipPath>
</defs>
</svg>
