<svg width="32" height="31" viewBox="0 0 32 31" fill="none" xmlns="http://www.w3.org/2000/svg">
<g clip-path="url(#clip0)">
<path d="M16.0001 0C8.55582 0 2.52637 0.815816 2.52637 6.5263V22.0263C2.52637 25.1834 5.17055 27.7369 8.42113 27.7369L5.89482 30.1843V31.0001H26.1054V30.1843L23.579 27.7369C26.838 27.7369 29.4738 25.1834 29.4738 22.0263V6.5263C29.4737 0.815816 23.4443 0 16.0001 0ZM8.42113 24.4737C7.02321 24.4737 5.89482 23.3806 5.89482 22.0263C5.89482 20.6721 7.02321 19.579 8.42113 19.579C9.81906 19.579 10.9475 20.6721 10.9475 22.0263C10.9475 23.3806 9.81898 24.4737 8.42113 24.4737ZM14.3158 14.6842H5.89482V6.5263H14.3159V14.6842H14.3158ZM23.579 24.4737C22.1811 24.4737 21.0527 23.3806 21.0527 22.0263C21.0527 20.6721 22.1811 19.579 23.579 19.579C24.977 19.579 26.1054 20.6721 26.1054 22.0263C26.1054 23.3806 24.9769 24.4737 23.579 24.4737ZM26.1054 14.6842H17.6843V6.5263H26.1054V14.6842Z" fill="#DDDDDD"/>
</g>
<defs>
<clipPath id="clip0">
<rect width="32" height="31" fill="white"/>
</clipPath>
</defs>
</svg>
