<svg width="314" height="408" viewBox="0 0 314 408" fill="none" xmlns="http://www.w3.org/2000/svg">
<g clip-path="url(#clip0)">
<path d="M123.653 41.1467C136.584 41.1467 147.066 32.9555 147.066 22.8512C147.066 12.7468 136.584 4.55566 123.653 4.55566C110.722 4.55566 100.239 12.7468 100.239 22.8512C100.239 32.9555 110.722 41.1467 123.653 41.1467Z" fill="#3F3D56"/>
<path d="M170.48 118.549C189.101 118.549 204.196 103.427 204.196 84.7721C204.196 66.1175 189.101 50.9949 170.48 50.9949C151.859 50.9949 136.764 66.1175 136.764 84.7721C136.764 103.427 151.859 118.549 170.48 118.549Z" fill="#3F3D56"/>
<path d="M277.475 392.752C282.129 392.752 285.901 388.972 285.901 384.31C285.901 379.648 282.129 375.869 277.475 375.869C272.822 375.869 269.049 379.648 269.049 384.31C269.049 388.972 272.822 392.752 277.475 392.752Z" fill="#3F3D56"/>
<path d="M233.463 392.752C238.116 392.752 241.889 388.972 241.889 384.31C241.889 379.648 238.116 375.869 233.463 375.869C228.809 375.869 225.037 379.648 225.037 384.31C225.037 388.972 228.809 392.752 233.463 392.752Z" fill="#3F3D56"/>
<path d="M246.574 180.713H242.827V284.391H246.574V180.713Z" fill="#3F3D56"/>
<path d="M266.707 180.713H262.96V284.391H266.707V180.713Z" fill="#3F3D56"/>
<path d="M243.742 183.527L242.804 180.713C242.804 180.713 253.106 168.518 267.622 178.348L266.683 182.575H262.937C262.937 182.575 256.853 177.462 246.551 183.302L243.742 183.527Z" fill="#3F3D56"/>
<path d="M180.782 165.935H147.066V209.093H180.782V165.935Z" fill="#FBBEBE"/>
<path d="M204.196 153.734H193.894V174.376H204.196V153.734Z" fill="#FBBEBE"/>
<path d="M151.515 375.869L147.302 388.537C147.302 388.537 145.426 397.918 151.515 398.385C157.605 398.852 167.447 396.978 167.447 396.978C167.447 396.978 168.851 392.758 167.447 389.004C166.042 385.25 161.829 374.929 161.829 374.929L151.515 375.869Z" fill="#3C354C"/>
<path d="M183.355 376.336C183.355 376.336 176.799 392.758 181.951 395.571C187.102 398.385 194.129 396.038 199.747 398.385C205.364 400.732 220.818 395.104 220.818 395.104C220.818 395.104 222.694 389.944 212.392 388.537C212.392 388.537 201.181 380.09 201.181 378.216C201.181 376.342 194.625 376.336 194.625 376.336H183.355Z" fill="#3C354C"/>
<path d="M181.951 189.16C181.951 189.16 143.556 197.135 138.877 194.788C134.197 192.441 129.512 226.709 129.512 226.709C129.512 226.709 127.636 247.351 134.192 275.028C140.747 302.705 134.192 316.313 134.192 316.313C134.192 316.313 135.13 342.582 142.157 354.783C149.185 366.984 149.179 378.24 149.179 378.24C149.179 378.24 162.75 379.646 163.228 376.36C163.228 376.36 157.605 363.225 158.543 351.03C159.481 338.835 155.735 315.373 155.735 315.373C155.735 315.373 161.824 285.816 160.886 274.585C159.948 263.353 164.167 239.4 166.503 243.621C168.84 247.842 174.935 268.484 174.935 272.711C174.935 276.937 177.295 305.075 178.682 306.955C180.069 308.835 179.614 314.462 179.148 317.276C178.682 320.09 178.682 341.199 181.019 352.46C183.355 363.721 181.491 376.383 181.957 378.263C182.423 380.143 196.006 378.73 196.472 375.443C196.472 375.443 198.349 355.274 199.287 352.46C200.225 349.646 200.668 313.942 200.668 313.942C200.668 313.942 201.6 286.265 202.538 283.452C203.476 280.638 204.898 220.118 198.791 213.107C192.684 206.096 195.044 188.244 195.044 188.244L181.951 189.16Z" fill="#3F3D56"/>
<path d="M150.388 107.436C148.654 110.711 146.907 114.015 145.821 117.568C144.736 121.121 144.358 124.969 145.379 128.539C146.109 130.77 147.125 132.896 148.4 134.865C149.414 136.746 150.701 138.467 152.218 139.972C155.758 143.211 160.903 143.862 165.683 144.37C166.502 144.507 167.34 144.493 168.155 144.329C168.809 144.138 169.413 143.808 169.925 143.359C172.02 141.586 172.97 138.878 173.737 136.266C175.562 130.052 176.868 123.697 177.643 117.267C177.823 116.25 177.823 115.209 177.643 114.193C177.23 112.419 175.814 111.042 174.787 109.517C173.558 107.694 172.855 105.567 172.758 103.369C172.716 102.299 172.758 101.117 172.085 100.301C171.637 99.857 171.094 99.5214 170.498 99.3198C167.707 98.1375 164.922 96.9553 162.125 95.8203C160.437 95.1228 157.404 93.2666 155.634 94.638C154.118 95.8203 154.849 98.5632 154.2 100.207C153.203 102.701 151.639 105.072 150.388 107.436Z" fill="#FBBEBE"/>
<path opacity="0.1" d="M150.388 107.436C148.654 110.711 146.907 114.015 145.821 117.568C144.736 121.121 144.358 124.969 145.379 128.539C146.109 130.77 147.125 132.896 148.4 134.865C149.414 136.746 150.701 138.467 152.218 139.972C155.758 143.211 160.903 143.862 165.683 144.37C166.502 144.507 167.34 144.493 168.155 144.329C168.809 144.138 169.413 143.808 169.925 143.359C172.02 141.586 172.97 138.878 173.737 136.266C175.562 130.052 176.868 123.697 177.643 117.267C177.823 116.25 177.823 115.209 177.643 114.193C177.23 112.419 175.814 111.042 174.787 109.517C173.558 107.694 172.855 105.567 172.758 103.369C172.716 102.299 172.758 101.117 172.085 100.301C171.637 99.857 171.094 99.5214 170.498 99.3198C167.707 98.1375 164.922 96.9553 162.125 95.8203C160.437 95.1228 157.404 93.2666 155.634 94.638C154.118 95.8203 154.849 98.5632 154.2 100.207C153.203 102.701 151.639 105.072 150.388 107.436Z" fill="black"/>
<path d="M168.84 108.471C177.893 108.471 185.231 101.118 185.231 92.0491C185.231 82.9797 177.893 75.6274 168.84 75.6274C159.787 75.6274 152.448 82.9797 152.448 92.0491C152.448 101.118 159.787 108.471 168.84 108.471Z" fill="#FBBEBE"/>
<path d="M174.593 133.464C171.489 134.581 168.285 135.544 164.986 135.663C162.516 135.687 160.05 135.424 157.64 134.876C152.661 133.884 147.771 132.487 143.019 130.697C142.004 132.701 141.732 134.989 141.644 137.235C141.39 144.027 142.741 150.766 143.261 157.546C143.915 166.165 143.261 174.973 145.473 183.32C145.601 181.901 146.152 180.554 147.055 179.454C147.807 178.642 148.706 177.98 149.704 177.503C154.17 175.19 159.312 174.549 164.208 175.694C167.046 176.368 170.061 177.627 172.752 176.498C174.357 175.818 175.519 174.388 176.41 172.886C177.923 170.177 179.002 167.247 179.608 164.203C181.378 156.376 181.614 148.283 181.827 140.256C181.886 138.11 182.806 131.732 181.03 130.159C179.785 129.066 179.419 130.626 178.522 131.442C177.356 132.365 176.021 133.051 174.593 133.464Z" fill="#F2F2F2"/>
<path d="M151.521 105.273C150.43 104.415 148.813 104.681 147.609 105.409C146.406 106.136 145.432 107.141 144.211 107.803C140.824 109.641 136.274 108.293 133.058 110.433C130.037 112.449 129.518 116.599 129.282 120.228C128.692 129.45 128.185 138.737 125.972 147.71C125.382 150.074 124.674 152.498 124.898 154.934C125.075 156.325 125.403 157.693 125.877 159.012L128.781 168.098C130.126 172.319 131.489 176.604 131.631 181.032C131.772 185.46 130.734 189.668 129.701 193.895C127.66 202.222 126.332 210.708 125.73 219.26C125.547 222.092 125.47 225.048 126.615 227.643C127.795 230.356 130.191 232.372 132.716 233.903C135.242 235.434 137.985 236.616 140.458 238.242C145.42 241.511 149.403 246.659 155.209 248.001C157.87 248.592 160.656 248.356 163.334 247.836C163.334 247.836 161.818 178.839 157.599 168.985C153.38 159.131 149.639 116.445 149.639 115.038C149.639 113.631 151.521 105.273 151.521 105.273Z" fill="#026F81"/>
<path d="M174.309 107.531C174.309 107.531 196.466 107.531 199.747 119.259C203.027 130.987 190.383 150.222 190.383 150.222C190.383 150.222 195.534 188.22 197.87 191.974C200.207 195.728 199.281 203.205 199.281 203.205C200.977 208.353 201.299 213.855 200.213 219.166C198.342 227.607 191.315 242.622 191.315 242.622C191.315 242.622 181.951 242.622 179.608 248.25C177.265 253.877 176.799 223.854 176.799 223.854C176.799 223.854 168.373 168.967 168.839 165.686C169.306 162.406 171.648 135.19 172.586 127.682C173.525 120.175 175.566 110.345 174.309 107.531Z" fill="#026F81"/>
<path d="M191.315 115.038C191.315 115.038 202.089 118.319 202.089 122.073C202.089 125.826 205.388 145.996 205.388 152.563C205.388 159.131 203.983 160.07 205.388 162.417C206.792 164.764 190.406 163.824 190.406 163.824L187.426 137.087L191.315 115.038Z" fill="#026F81"/>
<path d="M127.63 148.815C127.63 148.815 148.707 150.222 152.454 147.402C156.2 144.583 172.12 151.156 173.525 154.91C174.929 158.664 151.043 159.131 147.302 159.131C143.561 159.131 125.759 164.764 125.759 164.764L127.63 148.815Z" fill="#A0616A"/>
<path d="M84.2429 367.339C84.2429 367.339 74.4184 392.167 79.5224 395.122C84.6264 398.078 138.446 395.973 138.446 395.973C138.446 395.973 147.409 390.417 137.165 386.563C137.165 386.563 128.621 386.137 123.075 382.714C117.528 379.292 111.114 372.878 111.114 372.878C111.114 372.878 110.689 363.467 107.273 365.607C106.251 366.281 105.381 367.163 104.72 368.194C104.058 369.225 103.619 370.384 103.432 371.595L84.2429 367.339Z" fill="#3F3D56"/>
<path opacity="0.1" d="M84.2429 367.339C84.2429 367.339 74.4184 392.167 79.5224 395.122C84.6264 398.078 138.446 395.973 138.446 395.973C138.446 395.973 147.409 390.417 137.165 386.563C137.165 386.563 128.621 386.137 123.075 382.714C117.528 379.292 111.114 372.878 111.114 372.878C111.114 372.878 110.689 363.467 107.273 365.607C106.251 366.281 105.381 367.163 104.72 368.194C104.058 369.225 103.619 370.384 103.432 371.595L84.2429 367.339Z" fill="black"/>
<path d="M69.0842 374.929C69.0842 374.929 58.3156 402.121 63.9329 405.42C69.5503 408.718 128.556 406.36 128.556 406.36C128.556 406.36 138.392 400.265 127.152 396.038C127.152 396.038 117.788 395.572 111.698 391.818C105.609 388.064 98.5871 381.012 98.5871 381.012C98.5871 381.012 98.1209 370.691 94.3741 373.038C93.2528 373.777 92.2986 374.743 91.573 375.874C90.8473 377.005 90.3664 378.276 90.1611 379.605L69.0842 374.929Z" fill="#3F3D56"/>
<path d="M124.355 202.295L117.799 261.408C117.799 261.408 115.439 289.558 108.435 295.652C108.435 295.652 108.435 304.567 106.075 307.38L102.794 344.444C102.794 344.444 107.479 358.04 107.013 360.405C106.547 362.77 108.883 370.253 108.417 371.193C107.951 372.133 85.936 371.193 85.936 371.193L90.6211 295.664L105.137 190.585L124.355 202.295Z" fill="#006478"/>
<path opacity="0.1" d="M124.355 202.295L117.799 261.408C117.799 261.408 115.439 289.558 108.435 295.652C108.435 295.652 108.435 304.567 106.075 307.38L102.794 344.444C102.794 344.444 107.479 358.04 107.013 360.405C106.547 362.77 108.883 370.253 108.417 371.193C107.951 372.133 85.936 371.193 85.936 371.193L90.6211 295.664L105.137 190.585L124.355 202.295Z" fill="black"/>
<path d="M112.648 200.415C112.648 200.415 107.497 248.734 105.155 259.055C103.682 265.852 102.743 272.754 102.346 279.698C102.346 279.698 101.88 294.713 97.6608 298.933C96.4297 300.155 95.4624 301.617 94.8189 303.229C94.1753 304.84 93.8693 306.567 93.9198 308.303C93.9198 308.303 89.7009 355.682 92.0435 361.315C94.386 366.949 96.7285 371.636 94.4037 375.384C92.0789 379.132 66.3051 379.138 66.3051 376.324C66.3051 373.51 66.3051 371.164 64.9007 369.757C63.4964 368.35 64.9007 359.436 64.9007 359.436C64.9007 359.436 59.2834 317.684 64.4346 305.489C69.5858 293.294 71.9283 259.972 71.9283 259.972C71.9283 259.972 68.1815 221.974 63.4964 215.873C58.8113 209.773 64.4346 188.197 64.4346 188.197L112.648 200.415Z" fill="#006478"/>
<path d="M99.4663 50.3624C100.009 51.6038 101.313 52.2954 102.499 52.9516C109.373 56.7466 115.126 62.2501 120.791 67.6885C119.377 62.8833 119.68 57.7347 121.647 53.1289C122.319 51.5624 123.21 49.8718 122.726 48.2343C122.366 47.0521 121.346 46.1536 120.366 45.3851C118.053 43.593 115.636 41.9409 113.126 40.4373C111.356 39.3851 107.768 36.589 105.756 36.8905C105.65 39.6156 105.597 42.0511 104.405 44.5752C104.11 45.2018 99.6728 50.8353 99.4663 50.3624Z" fill="#A0616A"/>
<path d="M123.417 56.392C134.021 56.392 142.617 47.78 142.617 37.1566C142.617 26.5331 134.021 17.9211 123.417 17.9211C112.813 17.9211 104.216 26.5331 104.216 37.1566C104.216 47.78 112.813 56.392 123.417 56.392Z" fill="#A0616A"/>
<path d="M124.355 82.6676C124.355 82.6676 127.63 66.246 118.265 60.6184C108.901 54.9909 98.1325 48.4234 98.1325 48.4234C98.1325 48.4234 94.8518 47.9505 93.4474 54.9909C93.4474 54.9909 66.7591 60.1514 63.9445 85.4814C61.1299 110.811 65.8209 147.875 65.8209 147.875C65.8209 147.875 61.6079 180.246 56.4566 197.601C56.4566 197.601 52.2377 201.355 70.9721 195.727C89.7065 190.1 122.478 211.688 122.478 211.688C122.478 211.688 125.759 208.401 125.759 206.055C125.759 203.708 129.506 190.094 129.506 190.094C129.506 190.094 132.781 132.394 134.185 125.826C135.589 119.259 128.568 83.6075 124.355 82.6676Z" fill="#3F3D56"/>
<path d="M95.3242 115.038C95.3242 115.038 121.074 100.023 115.923 80.788C110.772 61.5526 99.5373 55.458 99.5373 55.458C99.5373 55.458 81.2749 49.3575 65.8213 69.054L66.7595 77.9683C66.7595 77.9683 83.6175 43.724 101.88 65.3003C120.142 86.8766 95.3242 115.038 95.3242 115.038Z" fill="#EFE05A"/>
<path d="M67.6913 69.9998V146.924L62.9059 173.164L60.6696 185.395H44.3014L21.3599 176.947V120.199C21.3599 120.199 40.5545 82.1949 46.6439 75.1604C52.7333 68.126 67.6913 69.9998 67.6913 69.9998Z" fill="#EFE05A"/>
<path opacity="0.1" d="M62.9002 173.17L60.6698 185.4H44.2779L21.3364 176.959L62.9002 173.17Z" fill="black"/>
<path d="M62.0742 156.784L102.346 107.525L66.7534 158.664L63.0065 159.598L62.0742 156.784Z" fill="#EFE05A"/>
<path d="M118.891 39.1427C119.982 38.4038 121.351 38.2679 122.661 38.1378C123.971 38.0078 125.34 37.8304 126.385 37.0265C128.196 35.6314 128.332 32.9359 129.659 31.0738C131.577 28.3723 135.407 28.0472 138.717 28.1772C140.741 28.26 142.918 28.3841 144.617 27.2905C146.317 26.197 147.155 24.0393 147.745 22.0472C148.447 19.6827 148.895 16.798 147.155 15.0482C145.975 13.8305 144.063 13.5881 142.729 12.5182C141.396 11.4482 140.776 9.6098 140.027 8.00784C139.171 6.05088 137.818 4.353 136.103 3.08371C133.589 1.31032 130.379 0.943814 127.317 0.973371C124.255 1.00293 121.18 1.41081 118.142 1.03248C115.651 0.725094 113.167 -0.102487 110.689 0.264014C107.526 0.731008 104.912 3.12509 103.349 5.92114C101.785 8.7172 101.124 11.9093 100.475 15.0423L98.7049 23.5723C98.1621 26.2206 97.6133 28.9339 98.0323 31.5999C98.9056 37.1329 103.791 41.5309 104.128 47.1171C104.449 45.5738 105.147 44.1345 106.161 42.9284C107.174 41.7223 108.471 40.7872 109.934 40.2068C110.3 40.0276 110.715 39.9756 111.114 40.059C111.598 40.2186 111.881 40.7033 112.188 41.1112C112.99 42.1812 115.51 43.8009 116.908 43.0442C118.242 42.3644 117.286 40.2363 118.891 39.1427Z" fill="#3F3D56"/>
<path d="M241.422 277.824C241.422 277.824 228.777 278.291 226.907 292.833C225.037 307.375 226.907 374.929 226.907 374.929C226.907 374.929 241.422 385.717 259.219 384.31C277.015 382.903 305.574 377.743 305.574 377.743V298.531C305.574 286.709 295.732 277.067 283.942 277.747C283.665 277.747 283.352 277.782 283.098 277.812L241.422 277.824Z" fill="#3C354C"/>
<path d="M259.685 395.099C264.339 395.099 268.111 391.319 268.111 386.657C268.111 381.995 264.339 378.216 259.685 378.216C255.032 378.216 251.259 381.995 251.259 386.657C251.259 391.319 255.032 395.099 259.685 395.099Z" fill="#3F3D56"/>
<path d="M305.574 391.345C310.228 391.345 314 387.566 314 382.904C314 378.242 310.228 374.462 305.574 374.462C300.92 374.462 297.148 378.242 297.148 382.904C297.148 387.566 300.92 391.345 305.574 391.345Z" fill="#3F3D56"/>
<path d="M70.506 126.766C70.506 126.766 67.2252 147.403 80.8025 145.529C80.8025 145.529 87.8301 144.589 88.7683 145.529C89.7065 146.469 124.355 140.368 129.04 135.207C129.04 135.207 134.657 133.334 137.466 136.147C140.275 138.961 168.373 141.775 159.953 133.328C151.533 124.88 138.416 123.007 138.416 123.007L120.62 123.941C120.62 123.941 111.255 126.76 105.638 123.941C100.021 121.121 84.0832 122.096 84.0832 122.096L70.506 126.766Z" fill="#A0616A"/>
<path d="M89.7009 61.5583C89.7009 61.5583 68.6299 63.9229 68.6299 94.3957V133.328C68.6299 133.328 80.3367 128.167 82.6792 128.634C85.0217 129.101 94.386 122.534 94.386 122.534C94.386 122.534 105.155 97.2095 104.216 90.175C103.278 83.1406 103.75 62.4923 89.7009 61.5583Z" fill="#3F3D56"/>
<path d="M186.164 137.081L165.093 152.096L178.204 153.503L196.466 138.021L186.164 137.081Z" fill="#3F3D56"/>
<path d="M202.556 159.604C202.556 159.604 207.707 175.564 200.685 180.246C193.664 184.928 181.951 163.824 181.951 163.824C181.951 163.824 169.306 148.815 177.738 145.529C186.17 142.242 189.61 156.553 189.61 156.553L200.667 166.171L202.556 159.604Z" fill="#FBBEBE"/>
<path d="M170.48 91.8125C180.823 91.8125 189.208 86.4559 189.208 79.848C189.208 73.2402 180.823 67.8835 170.48 67.8835C160.137 67.8835 151.751 73.2402 151.751 79.848C151.751 86.4559 160.137 91.8125 170.48 91.8125Z" fill="#3F3D56"/>
<path d="M173.755 64.6028C181.253 64.6028 187.332 58.513 187.332 51.0009C187.332 43.4887 181.253 37.3989 173.755 37.3989C166.256 37.3989 160.177 43.4887 160.177 51.0009C160.177 58.513 166.256 64.6028 173.755 64.6028Z" fill="#3F3D56"/>
<path d="M123.417 34.5792C133.373 34.5792 141.443 30.379 141.443 25.1979C141.443 20.0168 133.373 15.8167 123.417 15.8167C113.461 15.8167 105.391 20.0168 105.391 25.1979C105.391 30.379 113.461 34.5792 123.417 34.5792Z" fill="#3F3D56"/>
<path d="M106.559 42.5536C110.049 42.5536 112.878 35.5163 112.878 26.8354C112.878 18.1545 110.049 11.1172 106.559 11.1172C103.069 11.1172 100.239 18.1545 100.239 26.8354C100.239 35.5163 103.069 42.5536 106.559 42.5536Z" fill="#3F3D56"/>
<path d="M12.4917 397.883C14.2618 394.626 12.2556 390.635 9.9662 387.727C7.67677 384.819 4.8799 381.816 4.93891 378.098C5.02742 372.777 10.6625 369.638 15.1646 366.819C18.5062 364.726 21.5881 362.244 24.3459 359.424C25.5032 358.341 26.4584 357.06 27.1664 355.64C28.0987 353.56 28.0751 351.195 28.0161 348.913C27.8194 341.323 27.4438 333.741 26.8891 326.167" stroke="#3F3D56" stroke-width="4" stroke-miterlimit="10"/>
<path d="M35.4507 325.747C35.388 324.357 34.9766 323.006 34.2547 321.818C33.5328 320.63 32.5236 319.643 31.3203 318.949L29.4675 322.626L29.5265 318.18C27.8471 317.686 26.0543 317.739 24.4069 318.332C22.7594 318.924 21.3424 320.026 20.3603 321.477C19.3782 322.929 18.8817 324.656 18.9425 326.408C19.0033 328.161 19.6182 329.849 20.6985 331.228C21.7788 332.608 23.2687 333.609 24.9532 334.085C26.6377 334.562 28.4298 334.49 30.071 333.88C31.7122 333.27 33.1176 332.154 34.0845 330.692C35.0514 329.23 35.5298 327.499 35.4507 325.747Z" fill="#92EB9B"/>
<path d="M20.6993 381.904C19.8306 383.591 18.4097 384.927 16.6746 385.689C14.9394 386.451 12.9956 386.593 11.1688 386.09C9.34205 385.587 7.74334 384.47 6.64065 382.927C5.53796 381.383 4.99829 379.507 5.11209 377.613C5.22589 375.718 5.98624 373.92 7.26571 372.521C8.54519 371.121 10.266 370.204 12.1398 369.924C14.0136 369.645 15.9265 370.018 17.5579 370.983C19.1893 371.948 20.4401 373.446 21.1005 375.225L15.9257 379.439L21.6198 378.115C21.6212 379.434 21.3054 380.734 20.6993 381.904Z" fill="#92EB9B"/>
<path d="M16.5689 365.796C15.4819 365.849 14.395 365.687 13.3709 365.318C12.3468 364.949 11.4055 364.381 10.6011 363.647C9.79674 362.912 9.14516 362.026 8.68379 361.039C8.22243 360.051 7.96037 358.982 7.91269 357.893C7.84736 356.595 8.09214 355.3 8.62668 354.115C9.12249 353.007 9.85496 352.02 10.7725 351.225C11.69 350.431 12.7703 349.847 13.9372 349.516L13.8959 352.939L15.7664 349.221C16.8534 349.168 17.9402 349.33 18.9643 349.699C19.9885 350.068 20.9298 350.636 21.7342 351.37C22.5385 352.105 23.1901 352.991 23.6515 353.978C24.1128 354.966 24.3749 356.035 24.4226 357.124C24.471 358.082 24.3512 359.04 24.0685 359.956C23.5702 361.584 22.5826 363.019 21.2404 364.064C19.8983 365.109 18.2669 365.714 16.5689 365.796Z" fill="#92EB9B"/>
<path d="M36.6956 352.395C35.4244 352.442 34.1596 352.194 32.9998 351.671C31.8399 351.147 30.8164 350.363 30.009 349.378C29.2015 348.393 28.632 347.235 28.3447 345.994C28.0575 344.752 28.0603 343.461 28.3529 342.221C28.6455 340.981 29.2201 339.825 30.0318 338.844C30.8435 337.863 31.8704 337.083 33.0325 336.564C34.1946 336.046 35.4605 335.804 36.7315 335.856C38.0024 335.908 39.2442 336.254 40.3599 336.866L38.8965 340.886L41.9058 337.989C43.1224 339.092 43.9837 340.533 44.3798 342.128C44.776 343.723 44.689 345.4 44.1301 346.945C43.5712 348.491 42.5656 349.834 41.2416 350.805C39.9175 351.776 38.3349 352.329 36.6956 352.395Z" fill="#92EB9B"/>
<path opacity="0.1" d="M34.3357 327.958C32.4298 328.171 30.5652 328.768 28.6476 328.886C26.7299 329.004 24.6234 328.543 23.4137 327.047C22.7588 326.244 22.4283 325.227 21.8796 324.352C21.3562 323.535 20.6411 322.859 19.7967 322.383C19.2926 323.43 19.0143 324.571 18.9797 325.733C18.9452 326.895 19.1553 328.05 19.5962 329.125C20.0372 330.2 20.6992 331.17 21.5391 331.972C22.379 332.773 23.378 333.388 24.4711 333.778C25.5642 334.167 26.7268 334.321 27.8832 334.23C29.0397 334.139 30.1641 333.805 31.1831 333.25C32.2022 332.695 33.0932 331.931 33.798 331.008C34.5028 330.085 35.0057 329.023 35.2739 327.893C34.9612 327.905 34.6484 327.928 34.3357 327.958Z" fill="black"/>
<path opacity="0.1" d="M36.6958 352.395C35.2709 352.457 33.8541 352.151 32.5821 351.504C31.3101 350.858 30.2259 349.894 29.4341 348.706C28.6423 347.518 28.1697 346.145 28.0618 344.72C27.954 343.295 28.2146 341.867 28.8185 340.573C29.479 341.015 30.0463 341.584 30.4884 342.245C31.0784 343.138 31.4325 344.167 32.1287 344.988C33.4151 346.507 35.6219 347.004 37.6163 346.909C39.6107 346.815 41.5461 346.253 43.5169 346.07C43.7942 346.07 44.0774 346.023 44.3548 346.017C43.9446 347.77 42.9749 349.341 41.5927 350.492C40.2105 351.643 38.4912 352.311 36.6958 352.395Z" fill="black"/>
<path opacity="0.1" d="M16.5689 365.796C15.4819 365.849 14.395 365.687 13.3709 365.318C12.3468 364.949 11.4055 364.381 10.6011 363.647C9.79674 362.912 9.14516 362.026 8.68379 361.038C8.22243 360.051 7.96037 358.982 7.91269 357.893C7.84736 356.595 8.09214 355.3 8.62668 354.115C9.31505 354.563 9.91513 355.134 10.3969 355.8C11.04 356.71 11.4413 357.757 12.167 358.596C13.5655 360.157 15.9139 360.706 18.0322 360.653C20.1505 360.6 22.0564 360.103 24.0921 359.95C23.5935 361.583 22.6027 363.021 21.2558 364.068C19.9089 365.115 18.2717 365.718 16.5689 365.796Z" fill="black"/>
<path opacity="0.1" d="M20.699 381.904C20.2554 382.897 19.621 383.793 18.8318 384.54C18.0427 385.287 17.1144 385.872 16.1 386.259C15.0855 386.647 14.0047 386.831 12.9193 386.8C11.8339 386.77 10.7652 386.525 9.77409 386.081C8.78302 385.636 7.88905 385.001 7.14319 384.21C6.39733 383.42 5.81419 382.49 5.42709 381.473C5.03998 380.457 4.85649 379.374 4.88707 378.287C4.91765 377.2 5.16172 376.129 5.60534 375.136C6.2863 375.585 6.89849 376.13 7.42271 376.756C8.20749 377.719 8.72674 378.807 9.63544 379.711C11.3289 381.378 14.0609 382.076 16.4978 382.129C17.9014 382.135 19.3041 382.06 20.699 381.904Z" fill="black"/>
<path d="M0 394.135C0 394.135 6.53785 393.934 8.50864 392.527C10.4794 391.12 18.5396 389.441 19.053 391.699C19.5663 393.958 28.8716 402.931 21.4959 402.966C14.1201 403.002 4.34872 401.814 2.38383 400.602C0.418929 399.39 0 394.135 0 394.135Z" fill="#656380"/>
<path opacity="0.2" d="M21.6257 402.18C14.244 402.239 4.47854 401.028 2.51364 399.816C1.01489 398.905 0.418939 395.625 0.218319 394.111H0C0 394.111 0.413041 399.39 2.36024 400.614C4.30743 401.837 14.0906 403.026 21.4722 402.978C23.6024 402.978 24.334 402.204 24.2986 401.075C24.0213 401.743 23.2129 402.168 21.6257 402.18Z" fill="black"/>
</g>
<defs>
<clipPath id="clip0">
<rect width="314" height="407" fill="white" transform="translate(0 0.169434)"/>
</clipPath>
</defs>
</svg>
