<svg width="35" height="36" viewBox="0 0 35 36" fill="none" xmlns="http://www.w3.org/2000/svg">
<path d="M6.67529 30.4774C6.66414 30.4671 6.65264 30.4572 6.64068 30.4477C6.28387 30.1407 5.92706 29.8115 5.59879 29.4712C5.39023 29.2573 5.05447 29.2573 4.84591 29.4712C4.63718 29.6878 4.63718 30.0387 4.84591 30.2554C5.20273 30.6253 5.55954 30.9693 5.95917 31.3022C6.17888 31.5073 6.51731 31.4888 6.71508 31.261C6.91275 31.0332 6.895 30.6824 6.67529 30.4774Z" fill="#28DE70"/>
<path d="M1.07385 14.0269C0.794824 13.9258 0.48957 14.0785 0.392071 14.3677C0.37762 14.4106 0.368254 14.4553 0.364329 14.5005C0.257285 15.0073 0.175218 15.5215 0.11456 16.0357C0.0763809 16.3364 0.278159 16.6132 0.567712 16.6571H0.635507C0.906417 16.6573 1.13469 16.4477 1.16716 16.1688C1.22425 15.688 1.30275 15.2034 1.40265 14.7336C1.50015 14.4443 1.35288 14.1278 1.07385 14.0269Z" fill="#28DE70"/>
<path d="M4.01447 27.5364C3.73972 27.1443 3.47925 26.7374 3.24019 26.3231C3.08908 26.0597 2.76063 25.9732 2.50658 26.1298C2.50613 26.1301 2.5056 26.1304 2.50515 26.1307C2.2511 26.2874 2.16761 26.6279 2.31872 26.8913C2.31898 26.8917 2.31925 26.8923 2.31961 26.8928C2.57651 27.3367 2.85483 27.7732 3.15098 28.1912C3.33358 28.4322 3.67006 28.474 3.90252 28.2846C4.12366 28.1045 4.17263 27.7776 4.01447 27.5364Z" fill="#28DE70"/>
<path d="M2.14841 24.0371C1.97714 23.5895 1.82014 23.1271 1.68812 22.661C1.60578 22.3667 1.30883 22.1973 1.02498 22.2827C1.01999 22.2841 1.01508 22.2857 1.01017 22.2874C0.729273 22.3763 0.570045 22.6835 0.653361 22.9754C0.796086 23.4711 0.96022 23.9668 1.14576 24.4551C1.25709 24.7421 1.5718 24.8812 1.84868 24.7658C2.12557 24.6504 2.25973 24.3241 2.14841 24.0371Z" fill="#28DE70"/>
<path d="M2.46772 10.2227C2.20368 10.0848 1.88174 10.1949 1.74874 10.4686C1.52395 10.931 1.317 11.4082 1.13502 11.8928C1.02771 12.1767 1.16161 12.4973 1.43475 12.6104C1.70958 12.7233 2.02063 12.5838 2.12946 12.2989C2.12982 12.298 2.13018 12.2969 2.13053 12.296C2.3018 11.8447 2.48734 11.3971 2.705 10.968C2.838 10.6943 2.73176 10.3606 2.46772 10.2227Z" fill="#28DE70"/>
<path d="M1.18516 20.1766C1.18507 20.1762 1.18507 20.1756 1.18498 20.1751C1.12789 19.6943 1.08864 19.206 1.0708 18.7251C1.06001 18.4186 0.811578 18.1794 0.515958 18.1906C0.220339 18.2018 -0.0104299 18.4593 0.000363708 18.7658C0.000363708 19.2837 0.0574537 19.8052 0.12168 20.3194C0.158253 20.5883 0.377247 20.7902 0.639059 20.7966H0.721126C1.01443 20.7582 1.22218 20.4806 1.18516 20.1766Z" fill="#28DE70"/>
<path d="M15.3844 1.66652C15.3558 1.36004 15.0931 1.13569 14.7974 1.16528C14.3015 1.21707 13.8019 1.29105 13.3095 1.39093C13.0139 1.4195 12.7967 1.69112 12.8243 1.99759C12.8518 2.30407 13.1138 2.52925 13.4094 2.50068L13.4059 2.48588H13.5093C13.9696 2.3934 14.4371 2.32312 14.9009 2.27503C15.1965 2.24543 15.4129 1.97299 15.3844 1.66652Z" fill="#28DE70"/>
<path d="M4.79239 6.86569C4.56974 6.66141 4.22943 6.68295 4.03238 6.91378C3.70411 7.30219 3.39011 7.71279 3.09753 8.13449C2.92412 8.38261 2.97755 8.72958 3.21697 8.90936C3.30787 8.97761 3.41705 9.01451 3.52927 9.01488V9.02228C3.70152 9.02292 3.86352 8.93757 3.96458 8.79293C4.23933 8.40082 4.53192 8.01612 4.83877 7.6536C5.03582 7.42278 5.01504 7.07007 4.79239 6.86569Z" fill="#28DE70"/>
<path d="M18.9115 1.25783C18.4191 1.18015 17.916 1.12467 17.4164 1.09507C17.1208 1.07667 16.8668 1.31018 16.8491 1.61665C16.8313 1.92313 17.0566 2.18641 17.3522 2.20481C17.8232 2.24181 18.2906 2.29359 18.7509 2.36758H18.833C19.1286 2.39005 19.3858 2.15987 19.4074 1.8534C19.4291 1.54702 19.2071 1.28031 18.9115 1.25783Z" fill="#28DE70"/>
<path d="M7.83196 4.2218C7.66453 3.98607 7.34929 3.92568 7.11165 4.08391C6.70131 4.37614 6.29812 4.69427 5.91276 5.02349C5.68511 5.21964 5.65398 5.56985 5.84318 5.80586C6.03238 6.04186 6.37019 6.07414 6.59784 5.87799C6.95465 5.56726 7.33287 5.27133 7.71823 4.9976C7.95631 4.81597 8.00716 4.46862 7.83196 4.2218Z" fill="#28DE70"/>
<path d="M9.62717 3.77335C9.62538 3.77335 9.62368 3.77295 9.62189 3.77295C9.62001 3.77295 9.61822 3.77335 9.61642 3.77335H9.62717Z" fill="#28DE70"/>
<path d="M11.5144 2.47358C11.4362 2.17811 11.1416 2.00426 10.8565 2.08545C10.8315 2.09257 10.8069 2.10164 10.7831 2.11246C10.3157 2.29001 9.84828 2.48237 9.3987 2.71541C9.13064 2.84469 9.0145 3.17475 9.1392 3.45255C9.22662 3.6474 9.41484 3.77187 9.62179 3.77298C9.69904 3.77141 9.77513 3.75282 9.84471 3.71787C10.2658 3.51072 10.7011 3.32206 11.1399 3.1556C11.4251 3.07441 11.5927 2.76905 11.5144 2.47358Z" fill="#28DE70"/>
<path d="M17.9856 34.5702C17.9668 34.2638 17.7121 34.0311 17.4164 34.0505C16.949 34.0875 16.478 34.0986 16.0106 34.0838C15.715 34.0757 15.469 34.3174 15.4611 34.6239C15.4533 34.9304 15.6864 35.1854 15.9821 35.1935H16.4352C16.792 35.1935 17.1488 35.1935 17.4842 35.1603C17.7799 35.1409 18.0043 34.8767 17.9856 34.5702Z" fill="#28DE70"/>
<path d="M31.994 21.7158C31.7073 21.6402 31.4157 21.8199 31.3428 22.1172C31.2286 22.5869 31.0895 23.053 30.9325 23.508C30.8394 23.7938 30.9836 24.1043 31.2572 24.2072C31.5354 24.3107 31.8419 24.1607 31.9417 23.8722C31.9419 23.8717 31.9421 23.8711 31.9422 23.8706C32.1099 23.3823 32.2562 22.8829 32.3811 22.3909C32.4541 22.0937 32.2807 21.7914 31.994 21.7158Z" fill="#28DE70"/>
<path d="M32.6773 15.3625C32.5953 14.852 32.4918 14.3378 32.3669 13.8384C32.2815 13.5451 31.9827 13.3791 31.6998 13.4678C31.4315 13.5518 31.2712 13.836 31.3322 14.1196C31.4499 14.5857 31.5462 15.0666 31.6247 15.5437C31.6709 15.8052 31.8893 15.996 32.1457 15.9987H32.2349C32.5265 15.9496 32.7245 15.6649 32.6773 15.3625Z" fill="#28DE70"/>
<path d="M34.9521 8.9939C34.9269 8.93721 34.8925 8.88552 34.8503 8.84113L33.9047 7.82017C33.7693 7.67997 33.5703 7.62874 33.3873 7.687L31.6818 8.22337L29.6836 6.02609L34.1688 3.4367C34.4301 3.31194 34.5444 2.99114 34.424 2.72027C34.3988 2.66358 34.3644 2.61188 34.3222 2.56749L33.0626 1.2617C32.9254 1.12492 32.727 1.07665 32.5453 1.13593L26.8612 2.91891L24.9487 0.814104C24.4613 0.229826 23.6678 0.0346048 22.9791 0.329518H22.947C22.4277 0.551096 22.0154 0.978623 21.8016 1.51694C21.7477 1.65751 21.7095 1.8039 21.6874 1.95344L21.4698 1.87575C21.188 1.7818 20.886 1.94243 20.7954 2.23457C20.7048 2.52671 20.8597 2.83975 21.1415 2.93371C21.4163 3.02618 21.691 3.12976 21.9658 3.23704C22.0484 3.37113 22.1454 3.49523 22.2548 3.60695L24.2708 5.58968L23.6927 7.56872C18.0392 3.38787 10.1869 4.74998 6.15413 10.6111C2.12134 16.4722 3.43521 24.6126 9.08873 28.7935C14.7423 32.9744 22.5946 31.6122 26.6273 25.7512C29.8433 21.0772 29.7311 14.7723 26.351 10.2246L27.2644 8.5156L29.3839 10.5871L28.8737 12.3368C28.8122 12.5291 28.8605 12.7408 28.9985 12.8843C28.9985 12.8843 30.044 13.957 30.069 13.994C30.3162 14.1425 30.6327 14.0552 30.7761 13.799C30.7783 13.795 30.7806 13.7909 30.7826 13.7869L32.1777 11.1346L34.6968 9.71042C34.9582 9.58558 35.0725 9.26477 34.9521 8.9939ZM8.31053 9.72513C10.4617 7.49603 13.3794 6.24508 16.4209 6.24794C16.6588 6.24794 16.8966 6.25534 17.1345 6.27014C19.1576 8.20478 18.5618 9.96927 17.2059 11.5599C16.4057 12.4396 15.5473 13.2604 14.6368 14.0161C13.3202 15.1776 12.0927 16.2615 11.6289 17.3453C11.0794 18.6326 11.4826 19.7979 13.702 20.8151C14.8117 21.3256 15.4147 21.7214 15.6502 22.021C15.6536 22.0254 15.657 22.0284 15.6605 22.0311C15.6532 22.0334 15.6458 22.0359 15.6359 22.0395C15.0985 22.2517 14.5266 22.3534 13.9517 22.3392C11.2614 22.4575 9.34528 20.6746 7.85737 19.2948C6.78693 18.3071 5.89847 17.4859 4.97432 17.4785C5.12704 14.5563 6.31514 11.7953 8.31053 9.72513ZM27.9317 18.1517H27.9352C27.9336 23.3074 24.7367 27.8782 20.0104 29.4822C19.8777 28.6152 20.0324 27.7271 20.4493 26.9631C21.0147 26.0217 21.7401 25.1946 22.5902 24.5217C25.8836 21.6733 26.0691 20.0827 26.2118 18.8583C26.301 18.0852 26.3688 17.5081 27.8425 16.6684C27.9016 17.1605 27.9314 17.6559 27.9317 18.1517ZM27.268 14.1493C27.4275 14.615 27.5585 15.0907 27.6605 15.5735C25.4161 16.7572 25.3162 17.6006 25.1806 18.751C25.0593 19.7868 24.9023 21.1406 21.9265 23.7152C20.9734 24.4713 20.163 25.403 19.5359 26.4637C18.9891 27.4656 18.7997 28.6349 19.0006 29.767C12.8109 31.2339 6.64617 27.2211 5.23123 20.8042C5.06941 20.0703 4.97504 19.3222 4.94935 18.5697C5.51668 18.5697 6.25171 19.2689 7.15445 20.1012C8.78865 21.6141 10.8796 23.5451 13.9946 23.4304C14.7285 23.4435 15.4572 23.3 16.1354 23.0087C16.4213 22.8777 16.6377 22.6236 16.7277 22.3133C16.8037 21.9671 16.7073 21.6045 16.4708 21.3478C16.1354 20.9224 15.4004 20.4193 14.1373 19.8349C12.628 19.1431 12.2997 18.4699 12.5958 17.7818C12.9527 16.9162 14.1016 15.9323 15.3219 14.8225C16.2728 14.0258 17.1682 13.1606 18.0016 12.2331C19.493 10.4724 20.2602 8.5525 18.7437 6.4514C20.4291 6.80855 22.0147 7.55596 23.3823 8.63758L22.5616 11.4452C22.5011 11.6376 22.5492 11.8489 22.6865 11.9927C22.6865 11.9927 24.0174 13.3614 24.0602 13.3873C24.3074 13.5358 24.624 13.4485 24.7674 13.1922C24.7696 13.1883 24.7717 13.1842 24.7739 13.1801L25.8122 11.2344C26.4251 12.1316 26.915 13.1126 27.268 14.1493ZM32.0529 10.0174L31.5926 10.2541C31.4895 10.3071 31.4066 10.3943 31.3571 10.5019L31.1287 10.9828L30.2402 12.6474L29.9798 12.3515L30.4972 10.5796C30.5575 10.372 30.4913 10.1473 30.3295 10.01L27.5142 7.26151C27.3104 7.05389 26.9828 7.05694 26.7826 7.26826C26.7777 7.27334 26.7731 7.27843 26.7685 7.2837C26.7328 7.32439 24.1994 12.0556 24.1994 12.0556L23.6463 11.4822L25.3733 5.5821C25.4352 5.37338 25.3689 5.14662 25.2056 5.00873L22.9648 2.82255C22.7168 2.60476 22.6344 2.24493 22.7614 1.93476C22.8753 1.66601 23.0831 1.45193 23.3431 1.3355H23.3609C23.6564 1.21722 23.9917 1.30637 24.1958 1.55744L26.3367 3.90269C26.4711 4.05232 26.676 4.10975 26.8648 4.05066L32.5738 2.26398L33.1269 2.83734L28.5953 5.41934C28.3445 5.5612 28.2521 5.88709 28.389 6.14705C28.3912 6.15112 28.3933 6.1551 28.3955 6.15916C28.4169 6.19985 31.1466 9.21095 31.1466 9.21095C31.2818 9.35928 31.4865 9.41523 31.6746 9.35521L33.3909 8.81884L33.6585 9.09627L32.0529 10.0174Z" fill="#28DE70"/>
<path d="M30.6743 25.6155C30.6665 25.6108 30.6586 25.6061 30.6506 25.6019C30.3948 25.4633 30.0791 25.5598 29.9369 25.8201C29.7121 26.2455 29.4659 26.6635 29.2019 27.063C29.0314 27.3143 29.0898 27.6613 29.3321 27.838C29.5745 28.0147 29.9092 27.9543 30.0797 27.703C30.358 27.2739 30.622 26.8263 30.8647 26.375C31.0144 26.1107 30.9291 25.7707 30.6743 25.6155Z" fill="#28DE70"/>
<path d="M32.3669 17.5155C32.0714 17.5113 31.8285 17.7563 31.8244 18.0627C31.8243 18.0702 31.8243 18.0777 31.8245 18.0852V18.148C31.8245 18.6326 31.8031 19.1209 31.7603 19.6055C31.7335 19.9107 31.9504 20.1806 32.2448 20.2084C32.245 20.2084 32.2453 20.2085 32.2456 20.2085H32.2955C32.5779 20.2112 32.8136 19.9861 32.8343 19.6943C32.8807 19.1801 32.9021 18.6585 32.9021 18.1406V18.0667C32.9001 17.7617 32.6611 17.5155 32.3669 17.5155Z" fill="#28DE70"/>
<path d="M13.5736 33.8064C13.1097 33.725 12.6494 33.6214 12.2034 33.4808C11.9246 33.3792 11.619 33.5311 11.5209 33.8202C11.4228 34.1093 11.5695 34.4261 11.8483 34.5278C11.8687 34.5353 11.8897 34.5414 11.9108 34.5463C12.389 34.6869 12.8814 34.8089 13.3738 34.9162H13.4737C13.7693 34.9448 14.0313 34.7196 14.0588 34.4131C14.0864 34.1066 13.8692 33.835 13.5736 33.8064Z" fill="#28DE70"/>
<path d="M21.8549 33.6379C21.7581 33.3654 21.475 33.2164 21.2057 33.2961V33.3109C20.7633 33.4625 20.3066 33.592 19.8534 33.6808C19.5647 33.7482 19.3834 34.0455 19.4484 34.3448C19.5135 34.644 19.8002 34.8321 20.0889 34.7646C20.5742 34.65 21.063 34.5094 21.5376 34.3503C21.815 34.2444 21.957 33.9254 21.8549 33.6379Z" fill="#28DE70"/>
<path d="M9.90194 32.5969C9.47733 32.3787 9.05986 32.1419 8.65666 31.9052C8.40145 31.7499 8.07318 31.8385 7.92341 32.1031C7.77364 32.3677 7.8591 32.708 8.11431 32.8632C8.54605 33.1259 8.99207 33.37 9.44522 33.6031C9.71319 33.7338 10.0327 33.6145 10.1588 33.3367C10.285 33.0589 10.17 32.7277 9.90194 32.5969Z" fill="#28DE70"/>
<path d="M28.4005 29.0275C28.186 28.8245 27.8545 28.8358 27.6534 29.0531H27.657C27.3358 29.423 26.9969 29.7486 26.6508 30.0704C26.4301 30.2747 26.4109 30.6258 26.6079 30.8546C26.805 31.0834 27.1437 31.1033 27.3644 30.899C27.7212 30.555 28.0994 30.1888 28.4348 29.8114C28.6342 29.5851 28.6188 29.2341 28.4005 29.0275Z" fill="#28DE70"/>
<path d="M25.4475 31.7951C25.2959 31.5321 24.9672 31.4464 24.7135 31.6036C24.7049 31.6089 24.6965 31.6144 24.6883 31.6202V31.6054C24.2958 31.8644 23.8855 32.1085 23.4716 32.3453C23.2085 32.4852 23.1047 32.8198 23.2396 33.0925C23.3746 33.3652 23.6973 33.4729 23.9604 33.3329C24.4029 33.0962 24.8417 32.8336 25.2628 32.5561C25.5165 32.3988 25.5992 32.0581 25.4475 31.7951Z" fill="#28DE70"/>
</svg>
