<svg width="51" height="51" viewBox="0 0 51 51" fill="none" xmlns="http://www.w3.org/2000/svg">
<path d="M25.2501 13.7845C30.7104 13.7796 35.9857 15.7631 40.0901 19.3645C41.9928 21.0174 43.5465 23.0334 44.6601 25.2945C44.7604 25.464 44.8133 25.6574 44.8133 25.8545C44.8133 26.0515 44.7604 26.2449 44.6601 26.4145C42.8894 29.9166 40.142 32.8307 36.7501 34.8045C36.4001 35.0045 36.0801 35.0845 35.8301 34.7145C35.5801 34.3445 35.8301 34.0045 36.1701 33.7945C37.9875 32.7251 39.6244 31.3751 41.0201 29.7945C41.9308 28.7525 42.7224 27.6121 43.3801 26.3945C43.479 26.2465 43.5318 26.0725 43.5318 25.8945C43.5318 25.7165 43.479 25.5425 43.3801 25.3945C41.3002 21.5031 37.9256 18.461 33.8401 16.7945C30.7459 15.4209 27.3716 14.7956 23.9906 14.9694C20.6097 15.1431 17.3172 16.111 14.3801 17.7945C11.1926 19.5345 8.5877 22.1742 6.89009 25.3845C6.79121 25.5325 6.73843 25.7065 6.73843 25.8845C6.73843 26.0625 6.79121 26.2365 6.89009 26.3845C9.03151 30.3494 12.5012 33.4332 16.6901 35.0945C19.3223 36.2167 22.1508 36.806 25.0121 36.8283C27.8734 36.8506 30.7107 36.3055 33.3601 35.2245L33.6201 35.1145C33.9901 34.9945 34.3901 34.8745 34.6201 35.3545C34.8501 35.8345 34.4901 36.0245 34.1101 36.1945C31.9991 37.118 29.7476 37.6792 27.4501 37.8545C21.6848 38.4733 15.904 36.8354 11.3201 33.2845C8.91324 31.4603 6.96781 29.097 5.64009 26.3845C5.54275 26.2267 5.4912 26.0449 5.4912 25.8595C5.4912 25.674 5.54275 25.4923 5.64009 25.3345C7.87768 20.9052 11.6588 17.4478 16.2701 15.6145C19.109 14.404 22.1639 13.7815 25.2501 13.7845Z" fill="#28DE70"/>
<path d="M24.6801 16.3645C25.9648 16.3108 27.2472 16.5158 28.4512 16.9673C29.6552 17.4188 30.7563 18.1075 31.689 18.9926C32.6217 19.8778 33.3671 20.9413 33.8809 22.12C34.3947 23.2987 34.6665 24.5687 34.6801 25.8545C34.689 27.2825 34.3761 28.6942 33.7648 29.9848C33.1535 31.2754 32.2593 32.4117 31.1488 33.3094C30.0382 34.2072 28.7397 34.8433 27.3496 35.1706C25.9596 35.4978 24.5137 35.5078 23.1192 35.1998C21.7248 34.8918 20.4176 34.2738 19.2947 33.3915C18.1718 32.5092 17.262 31.3853 16.6329 30.1033C16.0038 28.8213 15.6714 27.4141 15.6606 25.986C15.6497 24.558 15.9606 23.1459 16.5701 21.8545C16.7101 21.5445 16.9201 21.2445 17.0901 20.9345C17.2601 20.6245 17.5401 20.1845 18.0101 20.4545C18.4801 20.7245 18.2901 21.1845 18.0101 21.5445C17.5258 22.3236 17.187 23.1843 17.0101 24.0845C16.6025 25.9685 16.8585 27.9355 17.7347 29.6525C18.611 31.3694 20.0536 32.7308 21.8184 33.5062C23.5833 34.2815 25.5618 34.4232 27.4191 33.9071C29.2763 33.3911 30.8982 32.2491 32.0101 30.6745C32.9282 29.3143 33.4344 27.7182 33.4681 26.0775C33.5018 24.4368 33.0616 22.8212 32.2001 21.4245C31.5813 20.4478 30.7673 19.6095 29.8091 18.9623C28.851 18.3152 27.7694 17.873 26.6323 17.6636C25.4952 17.4542 24.3271 17.4821 23.2013 17.7455C22.0755 18.009 21.0162 18.5023 20.0901 19.1945L19.9301 19.3245C19.5601 19.5845 19.1701 20.0845 18.7501 19.5045C18.3301 18.9245 18.8801 18.6545 19.2401 18.3845C20.7848 17.1362 22.6951 16.4268 24.6801 16.3645Z" fill="#28DE70"/>
<path d="M24.6801 30.2545C23.9256 30.2003 23.2008 29.938 22.5865 29.4967C21.9721 29.0553 21.4922 28.4522 21.2001 27.7545C20.8221 27.0421 20.6632 26.2339 20.7432 25.4314C20.8233 24.629 21.1388 23.8681 21.6501 23.2445C22.1473 22.5361 22.8517 21.9992 23.6664 21.7073C24.4811 21.4154 25.3662 21.383 26.2001 21.6145C26.4892 21.7091 26.801 21.7091 27.0901 21.6145C27.4154 21.4884 27.7703 21.459 28.1119 21.5299C28.4536 21.6008 28.7674 21.769 29.0157 22.0141C29.264 22.2592 29.4362 22.5709 29.5115 22.9116C29.5868 23.2523 29.562 23.6075 29.4401 23.9345C29.3454 24.2236 29.3454 24.5353 29.4401 24.8245C30.0901 27.6145 28.0201 30.2745 24.6801 30.2545ZM27.8001 25.1545C27.543 25.1759 27.2843 25.1408 27.0422 25.0518C26.8 24.9627 26.5803 24.8218 26.3983 24.6389C26.2164 24.456 26.0766 24.2355 25.9888 23.9929C25.901 23.7503 25.8673 23.4914 25.8901 23.2345C25.9401 22.7545 25.7501 22.6845 25.3801 22.6445C24.5761 22.582 23.7781 22.8254 23.1458 23.3261C22.5136 23.8267 22.0937 24.5475 21.9701 25.3445C21.8737 25.941 21.947 26.5526 22.1818 27.1094C22.4166 27.6662 22.8033 28.1457 23.2978 28.4931C23.7922 28.8404 24.3745 29.0417 24.9779 29.0737C25.5813 29.1058 26.1816 28.9674 26.7101 28.6745C27.2301 28.4156 27.6637 28.0113 27.9584 27.5107C28.2531 27.0101 28.3961 26.4348 28.3701 25.8545C28.3701 25.5745 28.5401 24.9845 27.8001 25.1545ZM28.4001 23.2945C28.3924 23.1211 28.3188 22.9572 28.1942 22.8363C28.0697 22.7155 27.9036 22.6468 27.7301 22.6445C27.6345 22.6328 27.5376 22.6416 27.4457 22.6702C27.3538 22.6988 27.269 22.7465 27.197 22.8104C27.1249 22.8742 27.0672 22.9525 27.0277 23.0403C26.9882 23.1281 26.9678 23.2232 26.9678 23.3195C26.9678 23.4157 26.9882 23.5109 27.0277 23.5986C27.0672 23.6864 27.1249 23.7648 27.197 23.8286C27.269 23.8924 27.3538 23.9401 27.4457 23.9687C27.5376 23.9973 27.6345 24.0061 27.7301 23.9945C28.0901 23.9945 28.3401 23.7445 28.4001 23.2945Z" fill="#28DE70"/>
</svg>
