<svg width="22" height="19" viewBox="0 0 22 19" fill="none" xmlns="http://www.w3.org/2000/svg">
<path d="M12.2 17.5076L11.1484 18.4615C10.7031 18.8654 9.98312 18.8654 9.54259 18.4615L0.333955 10.1127C-0.111318 9.70879 -0.111318 9.05566 0.333955 8.65605L9.54259 0.30293C9.98786 -0.100977 10.7079 -0.100977 11.1484 0.30293L12.2 1.25684C12.65 1.66504 12.6406 2.33105 12.1811 2.73066L6.47304 7.66348H20.087C20.7171 7.66348 21.2239 8.12324 21.2239 8.69473V10.0697C21.2239 10.6412 20.7171 11.101 20.087 11.101H6.47304L12.1811 16.0338C12.6453 16.4334 12.6548 17.0994 12.2 17.5076Z" fill="#026F81"/>
</svg>
