<svg width="16" height="16" viewBox="0 0 16 16" fill="none" xmlns="http://www.w3.org/2000/svg">
<g clip-path="url(#clip0)">
<path d="M13.8334 10.1598C13.8334 10.4962 13.5609 10.7685 13.2245 10.7685H9.08681V15.0441C9.08681 15.5721 8.65853 16.0004 8.13026 16.0004C7.60212 16.0004 7.17384 15.5721 7.17384 15.0441V10.7685H2.77514C2.43908 10.7685 2.16663 10.4962 2.16663 10.1598C2.16663 9.82364 2.43905 9.55108 2.77514 9.55108H7.17364V7.85895L7.1391 7.81199H2.77514C2.43908 7.81199 2.16663 7.53943 2.16663 7.20324C2.16663 6.86698 2.43905 6.59473 2.77514 6.59473H6.23647L2.4781 1.52683C2.1635 1.10246 2.25209 0.503554 2.6765 0.188551C3.10067 -0.125739 3.69998 -0.0371158 4.01478 0.387257L8.10707 5.90567L11.9723 0.434116C12.2768 0.00267982 12.8742 -0.100273 13.3051 0.204714C13.7368 0.509496 13.8396 1.1066 13.5347 1.538L9.96228 6.59476H13.2245C13.5608 6.59476 13.8334 6.86701 13.8334 7.20327C13.8334 7.53946 13.5609 7.81202 13.2245 7.81202H9.10247L9.08681 7.83409V9.55091H13.2245C13.5609 9.55111 13.8334 9.82364 13.8334 10.1598Z" fill="#DDDDDD"/>
</g>
<defs>
<clipPath id="clip0">
<rect width="16" height="16" fill="white"/>
</clipPath>
</defs>
</svg>
